<?xml version="1.0" encoding="utf-8"?>
<!-- Generator: Adobe Illustrator 18.0.0, SVG Export Plug-In . SVG Version: 6.00 Build 0)  -->
<!DOCTYPE svg PUBLIC "-//W3C//DTD SVG 1.1//EN" "http://www.w3.org/Graphics/SVG/1.1/DTD/svg11.dtd" [
	<!ENTITY ns_extend "http://ns.adobe.com/Extensibility/1.0/">
	<!ENTITY ns_ai "http://ns.adobe.com/AdobeIllustrator/10.0/">
	<!ENTITY ns_graphs "http://ns.adobe.com/Graphs/1.0/">
	<!ENTITY ns_vars "http://ns.adobe.com/Variables/1.0/">
	<!ENTITY ns_imrep "http://ns.adobe.com/ImageReplacement/1.0/">
	<!ENTITY ns_sfw "http://ns.adobe.com/SaveForWeb/1.0/">
	<!ENTITY ns_custom "http://ns.adobe.com/GenericCustomNamespace/1.0/">
	<!ENTITY ns_adobe_xpath "http://ns.adobe.com/XPath/1.0/">
]>
<svg version="1.1" id="Layer_1" xmlns:x="&ns_extend;" xmlns:i="&ns_ai;" xmlns:graph="&ns_graphs;"
	 xmlns="http://www.w3.org/2000/svg" xmlns:xlink="http://www.w3.org/1999/xlink" x="0px" y="0px" viewBox="0 0 39.7 53.4"
	 enable-background="new 0 0 39.7 53.4" xml:space="preserve">
<metadata>
	<sfw  xmlns="&ns_sfw;">
		<slices></slices>
		<sliceSourceBounds  height="1005.2" width="1944" x="99.4" y="-361.3" bottomLeftOrigin="true"></sliceSourceBounds>
		<optimizationSettings>
			<targetSettings  fileFormat="PNG24Format" targetSettingsID="0">
				<PNG24Format  transparency="true" interlaced="false" matteColor="#FFFFFF" noMatteColor="false" filtered="false">
					</PNG24Format>
			</targetSettings>
		</optimizationSettings>
	</sfw>
</metadata>
<g>
	<path fill="none" stroke="#24ABE2" stroke-width="2" stroke-miterlimit="10.43" d="M-25.3-925c1.5-2.8,3.4-5.4,6.1-7.2
		c8,5.2,15.9,10.3,23.9,15.5c1,0.7,2.3,1.3,2.9,2.4c-0.3,3.2-1.1,6.2-1.9,9.3c-5.7-2.6-10.6-6.6-15.9-9.9
		C-15.2-918.3-20.6-921.1-25.3-925z"/>
</g>
<g>
	<path fill="none" stroke="#25AAE2" stroke-width="2" stroke-miterlimit="10.43" d="M-31.4-915c0.8-2.2,2.1-4.2,3.5-6
		c11,6.2,21.2,13.8,32,20.4c-0.4,2.6-1.4,5-2.7,7.2C-9.6-900.7-20.8-907.4-31.4-915z"/>
	<path fill="none" stroke="#25AAE2" stroke-width="2" stroke-miterlimit="10.43" d="M-73.8-855.3c10.7-2.2,21.5-4,32.4-5.7
		c1.7,4.2,2.9,8.7,3.9,13.2c-10.9,3.3-22.3,4.5-33.4,6.9c-16.5,4.2-33.2,10.2-46,21.9c-8.5,7.6-14.6,17.8-17.5,28.9
		c-2.1,7.2-2.3,14.7-2.9,22.2c-4.8-14.5-4-30.9,2.8-44.7c4.9-10.7,13.3-19.3,22.7-26.1C-100.4-846.6-87.3-852-73.8-855.3z"/>
	<path fill="none" stroke="#25AAE2" stroke-width="2" stroke-miterlimit="10.43" d="M-98-821.4c0.7-3.2,4.2-8.1,7.8-5.4
		c16.3,10.8,32.9,21.2,49.2,32c1.1,0.7,2.3,1.3,3.5,1.9l-0.2,1.1c-0.6,2.7-2,5.2-3.6,7.4c-2.3-2.2-5.1-3.8-7.8-5.5
		C-65.4-800.4-81.5-811.2-98-821.4z"/>
</g>
<g>
	<path fill="none" stroke="#24AAE2" stroke-width="2" stroke-miterlimit="10.43" d="M5.4-888.9c5.1-8.6,6.6-18.6,9.1-28.2
		c2.2,13.7,0.6,28.6-6.8,40.6c-7.2,12.2-19.9,20.1-32.9,24.9c-1.7-4.1-3-8.3-4-12.7C-15.3-867.9-1.4-875.6,5.4-888.9z"/>
	<path fill="none" stroke="#24AAE2" stroke-width="2" stroke-miterlimit="10.43" d="M-57-836.6c3-2.1,6.7-2.1,10.1-2.7
		c4.6,2.7,8.8,5.9,13.5,8.5c0.6,3.4,0.9,6.9,0.9,10.4c-6.2-2.8-11.5-7.2-17.3-10.7C-52.1-832.9-55.3-833.9-57-836.6z"/>
</g>
<g>
	<path fill="none" stroke="#25ABE3" stroke-width="2" stroke-miterlimit="10.43" d="M-35.4-901.6c0.2-2.2,0.8-4.3,1.5-6.4
		c1.4,0.5,2.7,1,4,1.8c9.2,6,18.4,12.2,27.8,18c-0.8,2.2-3.2,6.3-5.8,4.1C-17.1-889.8-26-896.2-35.4-901.6z"/>
	<path fill="none" stroke="#25ABE3" stroke-width="2" stroke-miterlimit="10.43" d="M-126.4-796c1-2.4,2-4.8,3.5-6.9
		c1.7,0.3,3.1,1.4,4.6,2.3c16.3,10.7,32.7,21.1,48.9,31.8c3.8,2.3,7.2,5.1,11.3,6.9c-2,2.4-4.2,4.8-6.7,6.8
		c-18.5-12.6-37.5-24.5-56.3-36.7C-122.9-793.2-125.3-794-126.4-796z"/>
</g>
<g>
	<path fill="none" stroke="#24ABE3" stroke-width="2" stroke-miterlimit="10.43" d="M-35.8-894.9l0.5-1c7.2,4.9,14.5,9.7,21.8,14.3
		c0.9,0.7,2.1,1.2,2.6,2.4c-2.1,1.9-5.1,5-8.1,3.2c-4.8-2.8-9.4-6.1-14.1-9.1c-3-1.4-2.1-5.2-2.8-7.9c0-0.2-0.1-0.7-0.1-0.9
		C-35.8-894.1-35.8-894.6-35.8-894.9z"/>
	<path fill="none" stroke="#24ABE3" stroke-width="2" stroke-miterlimit="10.43" d="M-78.6-832.5c3.4-1.3,7.7-3.6,11.1-1
		c11.7,7.4,23.2,15.1,34.8,22.4c-0.1,3-0.6,6-1.7,8.8c-14.9-9-29.2-19.2-44.2-28.2C-78.5-831-78.5-832-78.6-832.5z"/>
</g>
<g>
	<path fill="#1D598F" d="M-0.7-851.1c1.2,0.3,2.5,0.4,3.3,1.5c18.2,19.5,37.4,38,55.8,57.4c-0.6-16.1-0.5-32.2-1.2-48.3
		c0-2.9-1.5-6-4.8-6.1c-1.9-0.7-6.5,0.9-5.4-2.5c4.3-0.7,8.7-0.1,13-0.1c5.1,0.1,10.1-0.6,15.2,0c0,3.5-4.1,1.8-6.2,2.9
		c-2.9,1.6-2.4,5.4-2.7,8.2c0,13-0.5,26-0.6,39c-0.5,9.3,0.1,18.8-0.8,28.1c-2.1,1.6-4.1-1-5.7-2.2c-13.2-13.1-26.4-26.3-39.5-39.5
		c-4.7-4.7-8.9-10-14-14.4c0.2,11,0.6,22,0.8,33c0.3,6.2-0.2,12.6,2.1,18.4c2.7,1.3,5.7,1.2,8.6,1.8l0.6,1c-1.6,2-4.4,1.1-6.6,1.3
		c-7.4-0.5-14.8,0.1-22.2-0.1c-0.2-0.5-0.5-1.5-0.6-2c2.7-0.7,6-0.1,8.1-2c1.8-3.8,1.1-8.1,1.5-12.2c0-16,0.5-32,0.7-48.1
		C-1-841.1-2-846.2-0.7-851.1z"/>
	<path fill="#1D598F" d="M184-848.1c0.3-1,0.4-3.2,2.1-2.7c1.5-0.4,2,1.2,2.6,2.2c9.4,18.9,18.4,38,28,56.8
		c9.4-19.1,18.5-38.5,27.9-57.6c0.6-2.2,3.7-1.7,3.9,0.4c3.6,22.3,6.6,44.6,10.1,66.9c0.5,3.2,1.7,7.1,5.5,7.5
		c2.4,1.1,6.7-0.8,7.3,2.7c-2.7,0.6-5.5,0.7-8.3,0.4c-6.3-0.4-12.6,0.4-18.8-0.9c-0.6-1.4,0.5-2.3,1.4-3.2c0.1-3.8-0.8-7.5-1.2-11.2
		c-1.6-11.7-3.2-23.5-4.9-35.2c-7.7,14.6-14.6,29.8-22,44.6c-1.1,1.9-1.8,4.3-3.5,5.8c-1.6,0.6-2.3-1.4-3.1-2.4
		c-8.3-15.4-15.7-31.3-23.5-47c-1.9,13.1-3.6,26.1-5.3,39.2c-0.1,2.5-1.1,6.8,2.6,7.1c1.9,0.9,6.3-0.6,5.9,2.4
		c-2.7,1.2-5.8,0.5-8.7,0.5c-5.5-0.4-11.1,0.4-16.6,0c-1.6-3.2,2.5-2.2,4.3-2.7c2.6-0.4,3.2-3.5,3.7-5.6
		C177.1-802.7,180.4-825.5,184-848.1z"/>
	<g>
		<path fill="#1D598F" d="M312.8-850.4c1.7-1.2,3.4,0.1,3.8,1.8c9.1,21.4,17.4,43.1,26.5,64.5c1.3,2.9,2.8,5.8,5.1,8
			c2.4,2.2,6,1.8,9,2.2c-0.1,0.5-0.4,1.4-0.6,1.8c-4.7,1-9.7,0.4-14.5,0.4c-4.3-0.3-8.6,0.3-12.9-0.6c-0.7-1.8,1.4-1.9,2.5-2.6
			c-2.5-7.7-5.8-15-8.5-22.6c-7.9-0.3-15.8-0.1-23.6-0.1c-1.9,4.9-3.8,9.8-5.8,14.7c-1,2.7-2.2,5.7-0.6,8.5c1.9,0.5,7.3-0.9,5.9,2.5
			c-5,0.7-10.1-0.2-15.2,0.1c-3.9-0.2-8,1-11.8-0.4c0-0.4,0.1-1.1,0.1-1.5c2.6-0.8,5.7-0.3,8.1-1.9c2.5-2,3.8-5.1,5-8
			c7.7-19.2,15.5-38.4,23.3-57.5C310-844.3,311.1-847.5,312.8-850.4z M308.2-820c-2,5.5-4.2,11-6.1,16.6c6.3-0.1,12.5,0,18.8-0.1
			c-3-8.3-6-16.6-9.1-24.9C310.1-825.8,309.3-822.8,308.2-820z"/>
	</g>
	<path fill="#1D598F" d="M83.3-848.8c3.4-1.2,7.2-0.2,10.8-0.4c5.7,0.3,11.4-0.6,17.1,0.1c1.3,2.7-3.4,1.8-3.5,4
		c0.4,1.6,1.2,3.2,2,4.7c5.2,9.3,10.6,18.6,15.9,27.9c4.9-7.7,8.9-15.8,13.4-23.7c1.4-3,3.7-6.1,2.8-9.6c-1.3-1.2-4.4-0.9-3.6-3.3
		c6.7-0.6,13.4,0.3,20.1-0.3c1.6,0.1,5.1-0.7,4.7,2c-2.8,0.8-6,0.9-8.3,2.8c-4.6,4-7.4,9.5-10.6,14.5c-4.1,6.9-8.4,13.7-12,20.9
		c-2.8,5.3-1.5,11.5-1.8,17.2c0.3,5.6-0.9,11.4,1.4,16.7c3.1,1,6.3,1.2,9.6,1.3c-0.1,0.6-0.2,1.8-0.3,2.4c-8.9,0.2-17.8-0.5-26.7,0
		c-2.2-0.2-5.5,0.9-6.7-1.5c2.2-2.2,7.2,0,8.2-3.8c1.3-6.2,0.8-12.7,0.9-19.1c0.1-4.7-0.4-9.5-2.8-13.6c-3.8-6.8-8-13.4-12.1-20
		c-3.4-5.1-6.1-10.9-10.9-14.9c-2-1.8-4.8-2-7.3-2.8C83.3-847.7,83.3-848.5,83.3-848.8z"/>
</g>
<g>
	<path fill="none" stroke="#25ABE2" stroke-width="2" stroke-miterlimit="10.43" d="M-109.7-817.6c16.3,10.3,32.4,21,48.7,31.4
		c4.9,3.2,9.9,6.2,14.6,9.7c0,0.3,0,0.9,0,1.2c-1.7,1.9-3.4,3.8-5,5.7c-15.3-10.4-31.1-20.2-46.6-30.4c-5.3-3.1-10.1-7.2-15.7-9.8
		C-113.2-812.8-111.1-815-109.7-817.6z"/>
</g>
<g>
	<path fill="none" stroke="#25AAE3" stroke-width="2" stroke-miterlimit="10.43" d="M-129.2-787.8c2.2,0.4,4,1.9,5.9,3.1
		c16.4,10.7,32.8,21.3,49.3,31.8c1.2,0.8,2.3,1.8,3.4,2.7c-2,2.2-4.4,3.9-6.9,5.5c-15-9.6-29.8-19.5-44.9-29.1
		c-2.7-1.9-5.7-3.3-8-5.6C-130.5-782.2-129.7-785-129.2-787.8z"/>
</g>
<g>
	<path fill="#040404" d="M-26.6-759.3c2.2,0,4.5-0.1,6.8,0.4c-0.5,0.1-1.5,0.4-2.1,0.5c0.1,5.8-0.7,11.7-0.5,17.5
		c-1-0.2-1.8-0.6-2.5-1.3c-3.8-3.7-7.5-7.5-11.5-11c0,3.7-0.2,7.4,0.5,11c0.6,0.3,1.8,0.8,2.4,1c-2.6,0.2-5.2,0.1-7.7-0.1
		c0.9-0.4,1.8-0.8,2.7-1.2c0-5.8,0.2-11.6,0.4-17.4c5,4,8.8,9.2,13.8,13.1c-0.2-3.8,0.6-7.8-0.5-11.6c-0.4-0.1-1.4-0.4-1.8-0.5
		C-26.6-758.9-26.6-759.1-26.6-759.3z"/>
	<path fill="#040404" d="M44.5-759.2c2.1,0,4.3,0,6.4,0c-3.5,1.5-5.1,5.3-6.9,8.4c-1.6,2.6-0.8,5.8-0.8,8.7c0.7,0.2,2.2,0.5,2.9,0.6
		c-3.1,0.6-6.2,0.6-9.2,0.1c4-0.1,2.5-4.9,2.3-7.5c-1.9-3.7-3.8-7.6-7.2-10.2c1.8-0.1,3.6-0.2,5.4-0.3c1.1,2.9,2.7,5.7,4.3,8.3
		c1.2-2.1,2.4-4.3,3.7-6.4C45.1-758,44.8-758.6,44.5-759.2z"/>
	<g>
		<path fill="#040404" d="M263.4-760c3.4,5.5,4.7,12.1,8,17.6c0.7,0.3,2.1,0.8,2.8,1.1c-2.3,0.2-4.6,0.3-6.8,0.3
			c-0.5-2.1-1.2-4.1-2.1-6.1c-1.7,0-3.4,0.1-5.1,0.1c-0.6,1.5-1.3,2.9-1.9,4.4c0.5,0.3,1.5,1,2,1.4c-2.5,0.1-5,0.1-7.5-0.3
			c0.7-0.2,2.2-0.6,2.9-0.8C258.5-748.1,260.4-754.3,263.4-760z M262.7-754c-0.6,1.9-1.2,3.7-1.7,5.6c1.3,0,2.6-0.1,3.9-0.1
			C264.2-750.3,263.5-752.1,262.7-754z"/>
	</g>
	<path fill="#040404" d="M-15.9-756.4c3.7,0,7.4,0.2,11-0.3c-0.2,1.2-0.3,2.5-0.5,3.7c-0.4-0.7-0.9-1.4-1.3-2c-1.4,0-2.7,0-4.1,0
		c0,1.7,0,3.4,0,5c1.8-0.1,3.7-0.2,5.5-0.4c-0.2,1.4-0.3,2.8-0.5,4.2c-0.5-0.8-1-1.6-1.4-2.4c-1.2,0-2.4-0.1-3.6-0.1c0,2,0,4,0,6
		c2.5,0.7,5,0.4,6.2-2.1c-0.1,1.2-0.1,2.5-0.2,3.8c-3.8,0-7.7,0-11.5-0.1c0.6-0.3,1.7-1,2.2-1.4c-0.2-4.3-0.1-8.6-0.1-12.9
		C-14.6-755.7-15.5-756.2-15.9-756.4z"/>
	<path fill="#040404" d="M-1.9-756.4c1.8,0,3.6,0,5.4-0.1c-0.2,3.6,1.5,7,2.7,10.3c1.4-3.6,2.7-7.2,4.2-10.7c2.8,3,3.5,7.2,5.3,10.7
		c0.9-3,1.9-6,2.8-9c-0.3-0.3-1-1-1.3-1.3c1.9,0.1,3.8,0.1,5.7,0c-0.7,0.4-1.4,0.8-2,1.2c-1.7,4.7-3.3,9.5-5,14.2
		c-0.3,0-1,0.1-1.4,0.1c-1.7-3-2.5-6.8-4.4-9.5c-1.8,2.8-2.5,6.5-4.2,9.5c-0.3,0-1-0.1-1.4-0.2c-1.7-4.6-3.3-9.3-4.9-14
		C-0.8-755.5-1.6-756.1-1.9-756.4z"/>
	<g>
		<path fill="#040404" d="M73-756.4c4.2,0.1,8.6-0.8,12.4,1.2c0.8,2.6-0.3,5-2.4,6.7c1.9,2.8,4.1,5.8,7.3,7.2
			c-1.6,0.1-3.4,0.6-4.9-0.1c-3-1.3-3.6-5.6-6.9-6.4c0.1,2.5-1.1,6.6,2.8,6.5c-2.8,0.3-5.6,0.4-8.4,0c0.5-0.2,1.6-0.7,2.2-0.9
			c0-4.4,0-8.8,0-13.2C74.4-755.7,73.7-756,73-756.4z M78.4-755.1c0,2.2,0,4.4,0.1,6.6c3.7,0.5,4.9-3.6,3.1-6.1
			C80.8-754.8,79.2-755,78.4-755.1z"/>
	</g>
	<path fill="#040404" d="M146.2-756.5c3.9,0.2,7.8,0.2,11.7-0.1c-0.3,1.2-0.5,2.4-0.8,3.6c-0.4-2.6-3.1-1.8-5-2.1
		c0,1.7,0,3.4-0.1,5.2c1.8-0.1,3.6-0.2,5.5-0.4c-0.1,1-0.3,2.9-0.4,3.9c-0.9-2.1-2.9-2.5-4.9-2.4c-0.1,2.1-0.1,4.3,0.2,6.4
		c2.4,0.3,4.8,0.2,5.8-2.3c0,0.9,0,2.7,0,3.6c-3.7,0.2-7.4,0-11.1,0.2c0.4-0.5,1.2-1.4,1.6-1.9c0.2-4.2,0-8.4,0-12.5
		C147.9-755.8,147-756.1,146.2-756.5z"/>
	<g>
		<path fill="#040404" d="M161.9-756.5c5.1,0.6,10.7-1.1,15.3,1.7c4.4,3,3.5,10.4-1.1,12.8c-4.4,2.2-9.4,0.8-14.1,0.9
			c0.5-0.3,1.5-0.8,1.9-1c0.4-4.4,0.2-8.9,0.1-13.3C163.5-755.8,162.4-756.3,161.9-756.5z M167.4-755c0.1,4.2-0.2,8.5,0.3,12.7
			c2.5,0,5.6,0.5,7.4-1.7c2.1-2.9,1.8-7.7-1.4-9.8C172-755.3,169.6-754.9,167.4-755z"/>
	</g>
	<path fill="#040404" d="M183.9-756.4c2.4,0,4.8,0,7.3,0c-0.7,0.3-1.3,0.7-2,1c0.1,4.3-0.2,8.6,0.2,12.9c0.5,0.3,1.4,1,1.8,1.4
		c-2.4,0-4.9,0-7.3,0.1c0.5-0.4,1.5-1.3,2-1.7c0.1-4.2,0-8.5,0-12.8C185.4-755.7,184.4-756.1,183.9-756.4z"/>
	<path fill="#040404" d="M200.1-756c3.3-1,7-0.8,10.3,0.1c0,1.5,0.1,3.1,0.2,4.6c-1-1-1.6-2.2-2.3-3.4c-2.6-0.9-5.9-1.5-8,0.8
		c-3.2,4-0.8,11.1,4.6,11.6c2.5,0.6,4.1-1.5,5.7-3c-0.2,1-0.7,2.9-1,3.8c-3.6,1-7.8,0.8-11.1-1.1C193.7-745.5,194.7-754.1,200.1-756
		z"/>
	<path fill="#040404" d="M300.1-754.9c3.6-2.6,8.4-1.8,12.5-1.1c-0.1,1.4-0.1,2.7-0.2,4.1c-0.9-0.6-1.6-1.6-2.1-2.5
		c-3-1.6-8.2-1.5-9.2,2.5c-2.1,5.1,2.8,11.1,8.3,9.8c0-1.8,0-3.6,0.1-5.4c-0.9-0.4-1.8-0.8-2.6-1.2c2.4-0.2,4.9-0.3,7.4-0.3
		c-0.4,0.4-1.3,1.3-1.7,1.7c0,1.9,0,3.8,0,5.7c-3.9,1.1-8.4,1.4-12.1-0.7C296.2-744.9,296-752.1,300.1-754.9z"/>
	<path fill="#040404" d="M333.2-756.5c2.6,0.1,5.3,0.2,7.9-0.2c-0.9,0.7-2.4,1.2-2,2.6c-0.1,3.9-0.1,7.8,0.2,11.7
		c2.6,0.4,5,0,6.3-2.5c-0.1,1.3-0.2,2.6-0.4,3.9c-3.8,0-7.5,0-11.2,0c0.4-0.5,1.2-1.3,1.6-1.8c0.2-4.2,0-8.4,0-12.6
		C334.8-755.8,334-756.1,333.2-756.5z"/>
</g>
<g>
	<path fill="#050505" d="M123.4-759.8c3.7,3.7,4.9,9.2,7.6,13.6c2.5-4.6,4.2-9.6,7.3-13.8c1.7,5.8,1.8,11.9,3.1,17.8
		c1.2,0.2,2.4,0.4,3.6,0.7c-2.4,0.4-4.9,0.6-7.4,0.5c0-3.7-0.8-7.3-1.2-11c-2.1,3.6-3.9,7.4-5.7,11.2c-3.3-2.7-4-7.3-6.3-10.7
		c-0.7,3-1.1,6.1-1.3,9.2c0.6,0.3,1.8,0.8,2.4,1c-2.1,0.1-4.2,0.2-6.3,0.2c0.4-0.5,1.1-1.4,1.5-1.8
		C121.7-748.4,122.3-754.2,123.4-759.8z"/>
	<path fill="#050505" d="M232-756.4c2.4,0,4.8,0,7.2,0c-0.5,0.2-1.5,0.7-1.9,0.9c0,4.3-0.2,8.7,0.2,13c2.6,0.6,5-0.1,6.7-2.2
		c-0.3,1.2-0.5,2.5-0.8,3.7c-3.9,0-7.7,0-11.6-0.2c0.5-0.3,1.6-0.9,2.1-1.2c0-4.3,0-8.7,0-13C233.3-755.7,232.6-756.1,232-756.4z"/>
</g>
<g>
	<g>
		<path fill="#020202" d="M57.5-756.3c3.7-0.7,8.2-0.6,10.6,2.7c2.7,4,1.2,10.4-3.5,12.1c-3.9,1.4-9.1,1.1-11.6-2.6
			C49.9-748.3,52.3-755.2,57.5-756.3z M57.4-754.6c-4.2,3.5-2.2,12.2,3.6,12.5c4.2,0.3,5.6-4.8,4.7-8
			C65.3-753.8,60.8-757.1,57.4-754.6z"/>
	</g>
</g>
<g>
	<path fill="#030303" d="M91.1-756.3c2.6-0.1,5.3-0.1,7.9-0.4c-2.7,1.1-1.8,4.2-1.6,6.5c1.5-2.1,4.1-3.6,4.5-6.2c1.7,0,3.5,0,5.2,0
		c-3.1,1.5-5.6,3.9-7.8,6.5c2.9,3.4,5.9,7,10,8.8c-2.3,0-5,0.5-6.9-1.2c-2-1.7-3.6-3.9-5.3-5.9c0,2,0,4,0,6c0.6,0.2,1.7,0.6,2.3,0.8
		c-2.5,0.3-5.1,0.3-7.6,0.3c0.5-0.4,1.5-1.2,2-1.6c-0.1-4.3,0-8.6-0.1-12.9C92.8-755.8,91.9-756,91.1-756.3z"/>
	<path fill="#030303" d="M287-756.7c2.3,0.3,4.6,0.3,6.9,0.2c-0.8,0.4-1.5,0.8-2.3,1.2c-0.2,4.8,0.1,9.7-0.5,14.4l-0.8,0.1
		c-3.9-3.2-7.4-6.9-11.1-10.4c0,2.9,0,5.8,0.1,8.7c0.5,0.3,1.5,1,2,1.3c-2.2,0.1-4.4,0.1-6.6-0.1c0.5-0.3,1.6-0.8,2.1-1.1
		c0.5-4.9-0.6-10.1,0.9-14.8c4,3.7,7.6,7.7,11.6,11.3C288.8-749.4,291.3-754.9,287-756.7z"/>
	<path fill="#030303" d="M317.9-756.3c3.9-0.1,7.7,0.1,11.6-0.2c-0.2,1.2-0.5,2.4-0.7,3.6c-0.9-2.5-3.3-2.1-5.4-2c0,1.6,0,3.2,0,4.9
		c1.9,0.1,3.9,0,5.8-0.3c-0.2,0.9-0.5,2.7-0.7,3.6c-0.6-0.6-1.2-1.2-1.7-1.8c-1.1,0-2.2,0-3.3,0c0,1.8-0.1,3.6,0.1,5.3
		c0.9,1.5,2.8,0.8,4.2,1c0.7-0.9,1.3-1.7,2-2.6c-0.1,1.3-0.2,2.6-0.3,3.9c-3.8,0-7.7,0-11.5-0.2c0.5-0.3,1.4-0.8,1.9-1.1
		c0.5-4.4,0.1-8.8,0.2-13.2C319.3-755.7,318.6-756,317.9-756.3z"/>
</g>
<g>
	<g>
		<path fill="#070707" d="M220.5-757.1c3.5,4.2,4.6,9.9,7.2,14.7c0.7,0.2,2.1,0.7,2.7,1c-2.1,0.4-4.2,0.5-6.4,0.5
			c-0.3-1.7-0.7-3.3-1.2-4.9c-1.7-0.1-3.3-0.1-5-0.2c-0.6,1.2-1.1,2.4-1.7,3.6c0.5,0.3,1.4,1,1.9,1.3c-2,0.1-4.1,0.2-6.1,0.3
			C216.5-745.2,217.3-751.9,220.5-757.1z M220.3-751.9c-0.7,1.5-1.4,3-2.1,4.5c1.2,0,2.5,0,3.7,0
			C221.4-748.9,220.9-750.4,220.3-751.9z"/>
	</g>
</g>
<g>
	<path fill="#010101" d="M349.7-753c0.7-4.3,6.1-3.8,9.3-3.3c0,0.9,0,2.7,0,3.6c-1.6-2.3-4.1-4-6.7-1.9c-0.3,3.1,3.1,3.7,5,5.2
		c2.5,1.5,2.9,5.4,0.6,7.2c-2.4,1.9-5.6,1.3-8.4,0.9c0-1.4,0-2.7,0-4.1c1.2,2.5,5.5,5,6.9,1.4C356.9-748.5,348.7-748,349.7-753z"/>
</g>
<g>
	<path fill="#FFFFFF" d="M1425.1-801.7c8.9,0,17.7,1.3,26.5,1.7c-1.9,2.8-4.7,4.8-7,7.1c-4.4,3.8-8.2,8.2-12.9,11.7
		c0.2-2.9,0.6-5.8,0.9-8.6c-3.3,1.6-5.7,4.6-8.6,6.7c-2.7,1.7-4.5,4.4-6.1,7.1c-0.8,1.4-1.8,2.7-2.7,4c-1.3,1.9-2.6,3.8-3.5,6
		c-0.8,2.3-1.6,4.7-2.4,7.1c-0.7,2.1-1.3,4.2-1.5,6.4c-0.1,2.2-0.2,4.5-0.4,6.7c0,0.3-0.1,0.8-0.1,1c0,0.2,0.1,0.7,0.1,0.9
		c0.3,9.9,3.9,19.3,6.6,28.8c1,4.3,2.3,8.5,4,12.7c5.3,15.9,7.5,33.5,2.5,49.7c-6.9,22.8-23.9,41.8-44.7,53.2
		c-4.2,2.2-8.1,4.9-12.6,6.3c0.7-0.9,1.4-1.7,2.3-2.3c2.5-1.6,5-3.3,6.9-5.5c1.7-2,3.8-3.5,5.9-5c2.5-1.9,4.7-4.3,6.7-6.8
		c2.1-2.6,4.4-5.1,6.7-7.6c1.7-1.9,3.3-3.8,5-5.7c0-0.3,0-0.9,0-1.2c1.7-2.6,3.3-5.3,5.1-7.9c1.6-2.3,3-4.7,3.6-7.4
		c1.1-3.5,2.2-7,3.4-10.5c1.1-2.8,1.7-5.8,1.7-8.8c0.2-3.1,0.3-6.2,0.2-9.3c-0.1-3.5-0.3-7-0.9-10.4c-1.3-5.7-2.9-11.3-4.2-17
		c-1-4.5-2.2-8.9-3.9-13.2c-4.5-13.1-7.5-27.3-4.4-41c2.5-10.9,8.3-21,16.1-29c5.4-5.3,11.9-9.3,18.7-12.6
		C1430.7-797.6,1427.2-799.1,1425.1-801.7z"/>
</g>
<g>
	<path fill="#FFFFFF" d="M1417.9-775.9c1.5-2.8,3.4-5.4,6.1-7.1c8,5.2,15.9,10.3,23.9,15.5c1,0.7,2.3,1.3,2.9,2.5
		c-0.3,3.2-1.1,6.2-1.9,9.3c-5.7-2.6-10.6-6.6-15.9-9.9C1428.1-769.2,1422.6-772,1417.9-775.9z"/>
</g>
<g>
	<path fill="#FFFFFF" d="M1411.8-765.9c0.8-2.2,2.1-4.1,3.5-6c11,6.2,21.2,13.8,32,20.4c-0.4,2.6-1.4,5-2.7,7.2
		C1433.6-751.6,1422.4-758.3,1411.8-765.9z"/>
	<path fill="#FFFFFF" d="M1369.4-706.2c10.7-2.2,21.6-4,32.4-5.7c1.7,4.2,2.9,8.7,3.9,13.2c-10.9,3.3-22.3,4.5-33.4,6.9
		c-16.5,4.2-33.2,10.2-46,21.9c-8.5,7.6-14.6,17.8-17.5,28.9c-2.1,7.2-2.3,14.7-2.9,22.2c-4.8-14.5-4-30.9,2.8-44.7
		c4.9-10.6,13.3-19.3,22.7-26.1C1342.9-697.5,1355.9-702.9,1369.4-706.2z"/>
	<path fill="#FFFFFF" d="M1345.2-672.3c0.7-3.2,4.2-8.1,7.8-5.4c16.3,10.8,32.9,21.2,49.2,32c1.1,0.7,2.3,1.3,3.5,1.9l-0.2,1.1
		c-0.6,2.7-2,5.1-3.6,7.4c-2.3-2.2-5.2-3.8-7.8-5.5C1377.8-651.3,1361.7-662.1,1345.2-672.3z"/>
</g>
<g>
	<path fill="#FFFFFF" d="M1448.6-739.8c5.1-8.6,6.6-18.6,9.1-28.2c2.2,13.7,0.6,28.6-6.8,40.6c-7.2,12.2-19.9,20.1-32.9,24.9
		c-1.7-4.1-3-8.4-4-12.7C1427.9-718.8,1441.9-726.5,1448.6-739.8z"/>
	<path fill="#FFFFFF" d="M1386.3-687.5c3-2.2,6.7-2.1,10.1-2.7c4.6,2.6,8.8,5.9,13.5,8.5c0.6,3.4,0.9,6.9,0.9,10.4
		c-6.2-2.8-11.5-7.2-17.3-10.7C1391.1-683.8,1387.9-684.8,1386.3-687.5z"/>
</g>
<g>
	<path fill="#FFFFFF" d="M1407.8-752.5c0.2-2.2,0.8-4.3,1.5-6.4c1.4,0.5,2.7,1,4,1.8c9.2,6,18.4,12.2,27.8,18
		c-0.8,2.2-3.2,6.3-5.8,4.1C1426.1-740.7,1417.3-747.1,1407.8-752.5z"/>
	<path fill="#FFFFFF" d="M1316.8-646.9c1-2.4,2-4.8,3.5-6.9c1.7,0.3,3.1,1.4,4.6,2.3c16.3,10.7,32.7,21.1,48.9,31.8
		c3.8,2.3,7.2,5.1,11.3,6.9c-2,2.4-4.2,4.8-6.7,6.8c-18.5-12.6-37.5-24.5-56.3-36.7C1320.4-644.1,1317.9-644.9,1316.8-646.9z"/>
</g>
<g>
	<path fill="#FFFFFF" d="M1407.4-745.8l0.5-1c7.2,4.9,14.5,9.7,21.8,14.4c0.9,0.7,2.1,1.2,2.6,2.4c-2.1,1.9-5.1,4.9-8.1,3.2
		c-4.8-2.8-9.4-6.1-14.1-9.1c-3-1.4-2.1-5.2-2.8-7.9c0-0.2-0.1-0.7-0.1-0.9C1407.4-745,1407.4-745.5,1407.4-745.8z"/>
	<path fill="#FFFFFF" d="M1364.7-683.4c3.4-1.3,7.7-3.6,11.1-1c11.7,7.4,23.2,15.1,34.8,22.4c-0.1,3-0.6,6-1.7,8.8
		c-14.9-9-29.2-19.2-44.2-28.2C1364.7-681.9,1364.7-682.9,1364.7-683.4z"/>
</g>
<g>
	<path fill="#FFFFFF" d="M1442.6-702c1.2,0.3,2.6,0.4,3.3,1.5c18.2,19.5,37.5,38,55.8,57.4c-0.6-16.1-0.5-32.2-1.2-48.3
		c0-2.9-1.5-6-4.8-6.1c-1.9-0.7-6.5,0.9-5.4-2.5c4.3-0.7,8.7-0.1,13-0.1c5.1,0.1,10.1-0.6,15.2,0c0,3.5-4.1,1.8-6.2,2.9
		c-2.9,1.6-2.4,5.4-2.7,8.2c0,13-0.5,26-0.6,39c-0.4,9.3,0.1,18.8-0.8,28.1c-2.1,1.6-4.1-1-5.7-2.2c-13.2-13.1-26.4-26.3-39.5-39.5
		c-4.7-4.7-8.9-10-14-14.4c0.2,11,0.6,22,0.8,33c0.3,6.2-0.2,12.6,2.1,18.4c2.7,1.3,5.7,1.2,8.6,1.8l0.6,1c-1.6,2-4.4,1.1-6.6,1.3
		c-7.4-0.6-14.8,0.1-22.2-0.1c-0.2-0.5-0.4-1.5-0.6-2c2.7-0.7,6-0.1,8.2-2c1.8-3.8,1.1-8.1,1.5-12.2c0-16,0.5-32.1,0.7-48.1
		C1442.2-692,1441.2-697.1,1442.6-702z"/>
	<path fill="#FFFFFF" d="M1627.3-699c0.3-1,0.4-3.2,2.1-2.7c1.5-0.4,2,1.2,2.6,2.2c9.4,18.9,18.4,38,28,56.8
		c9.5-19.1,18.5-38.5,28-57.6c0.6-2.2,3.7-1.7,3.9,0.4c3.6,22.3,6.6,44.6,10.1,66.9c0.5,3.2,1.7,7.1,5.5,7.5
		c2.4,1.1,6.7-0.8,7.3,2.7c-2.7,0.6-5.5,0.7-8.3,0.4c-6.3-0.4-12.6,0.4-18.8-0.9c-0.6-1.4,0.5-2.3,1.4-3.2c0.1-3.8-0.8-7.5-1.2-11.2
		c-1.6-11.7-3.2-23.5-4.8-35.2c-7.7,14.6-14.6,29.8-22,44.6c-1.1,2-1.8,4.3-3.5,5.8c-1.6,0.6-2.3-1.4-3.1-2.4
		c-8.3-15.4-15.7-31.3-23.5-47c-1.9,13.1-3.6,26.2-5.3,39.2c-0.1,2.5-1.1,6.8,2.6,7.1c1.8,0.9,6.3-0.6,5.9,2.4
		c-2.7,1.2-5.8,0.5-8.7,0.5c-5.5-0.4-11.1,0.4-16.6,0c-1.6-3.2,2.6-2.2,4.3-2.7c2.6-0.4,3.2-3.5,3.7-5.6
		C1620.3-653.6,1623.6-676.4,1627.3-699z"/>
	<g>
		<path fill="#FFFFFF" d="M1756-701.3c1.7-1.2,3.4,0.1,3.8,1.8c9.1,21.4,17.4,43.1,26.5,64.5c1.3,2.9,2.8,5.8,5.1,8
			c2.4,2.2,6,1.8,9,2.2c-0.1,0.5-0.4,1.4-0.6,1.8c-4.7,1-9.7,0.4-14.5,0.4c-4.3-0.3-8.6,0.3-12.9-0.6c-0.7-1.8,1.4-1.9,2.5-2.6
			c-2.5-7.7-5.8-15-8.5-22.6c-7.9-0.3-15.8-0.1-23.6-0.1c-1.9,4.9-3.8,9.8-5.8,14.7c-1,2.7-2.2,5.7-0.6,8.4c1.9,0.5,7.3-0.9,5.9,2.5
			c-5,0.7-10.1-0.2-15.2,0.1c-3.9-0.2-8,1-11.8-0.5c0-0.4,0.1-1.1,0.1-1.4c2.6-0.8,5.7-0.3,8.1-1.9c2.5-2,3.8-5.1,5-8
			c7.7-19.2,15.5-38.4,23.3-57.5C1753.3-695.2,1754.3-698.4,1756-701.3z M1751.4-670.9c-2,5.5-4.2,11-6.1,16.6
			c6.3-0.1,12.5,0,18.8-0.1c-3-8.3-6-16.6-9.1-24.9C1753.3-676.7,1752.5-673.7,1751.4-670.9z"/>
	</g>
	<path fill="#FFFFFF" d="M1526.5-699.7c3.4-1.2,7.2-0.2,10.8-0.4c5.7,0.3,11.4-0.6,17.1,0.1c1.3,2.7-3.4,1.8-3.5,4
		c0.4,1.6,1.2,3.2,2,4.7c5.2,9.4,10.6,18.6,15.9,27.9c4.8-7.7,8.9-15.8,13.4-23.7c1.4-3,3.7-6.1,2.8-9.6c-1.3-1.2-4.4-0.9-3.6-3.3
		c6.7-0.6,13.4,0.3,20.1-0.3c1.6,0.1,5.1-0.7,4.7,2c-2.8,0.8-6,0.9-8.3,2.8c-4.6,4-7.4,9.4-10.6,14.5c-4.1,6.9-8.4,13.7-12,20.9
		c-2.8,5.3-1.5,11.5-1.8,17.2c0.3,5.5-0.9,11.4,1.4,16.7c3.1,1,6.3,1.2,9.6,1.3c-0.1,0.6-0.2,1.8-0.3,2.4c-8.9,0.2-17.8-0.5-26.7,0
		c-2.2-0.2-5.5,0.9-6.7-1.4c2.2-2.2,7.2,0,8.2-3.9c1.3-6.2,0.8-12.7,0.9-19c0.1-4.7-0.4-9.5-2.8-13.6c-3.8-6.8-8-13.4-12.1-20
		c-3.4-5.1-6.1-10.9-10.9-14.9c-2-1.8-4.8-2-7.3-2.8C1526.6-698.6,1526.5-699.4,1526.5-699.7z"/>
</g>
<g>
	<path fill="#FFFFFF" d="M1333.6-668.5c16.3,10.3,32.4,21,48.7,31.4c4.9,3.2,9.9,6.2,14.6,9.7c0,0.3,0,0.9,0,1.2
		c-1.7,1.9-3.4,3.8-5,5.7c-15.3-10.4-31.1-20.2-46.6-30.4c-5.3-3.1-10.1-7.2-15.7-9.8C1330-663.7,1332.2-665.9,1333.6-668.5z"/>
</g>
<g>
	<path fill="#FFFFFF" d="M1314-638.7c2.2,0.4,4,1.9,5.9,3.1c16.4,10.7,32.8,21.3,49.3,31.8c1.2,0.8,2.3,1.8,3.4,2.7
		c-2,2.2-4.4,3.9-6.9,5.5c-15-9.6-29.8-19.5-44.9-29.1c-2.7-1.9-5.7-3.3-8-5.6C1312.7-633.1,1313.5-635.9,1314-638.7z"/>
</g>
<g>
	<path fill="#FFFFFF" d="M1416.7-610.2c2.2,0,4.5-0.1,6.8,0.4c-0.5,0.1-1.5,0.4-2.1,0.5c0.1,5.8-0.7,11.7-0.5,17.5
		c-1-0.2-1.8-0.6-2.5-1.3c-3.8-3.7-7.5-7.5-11.5-11c-0.1,3.7-0.2,7.4,0.5,11c0.6,0.3,1.8,0.8,2.4,1c-2.6,0.2-5.2,0.1-7.7-0.1
		c0.9-0.4,1.8-0.8,2.7-1.2c0-5.8,0.2-11.6,0.4-17.4c5,4,8.8,9.2,13.8,13.1c-0.2-3.8,0.6-7.8-0.5-11.6c-0.4-0.1-1.3-0.4-1.8-0.5
		C1416.6-609.8,1416.6-610,1416.7-610.2z"/>
	<path fill="#FFFFFF" d="M1487.8-610.1c2.1,0,4.3,0,6.4,0c-3.5,1.5-5.1,5.3-6.9,8.4c-1.6,2.6-0.8,5.8-0.8,8.7
		c0.7,0.2,2.2,0.5,2.9,0.6c-3.1,0.6-6.2,0.6-9.2,0.1c4-0.1,2.5-4.9,2.3-7.5c-1.9-3.7-3.8-7.6-7.2-10.2c1.8-0.1,3.6-0.2,5.4-0.3
		c1.1,2.9,2.7,5.7,4.3,8.3c1.2-2.1,2.4-4.3,3.7-6.4C1488.3-608.9,1488-609.5,1487.8-610.1z"/>
	<g>
		<path fill="#FFFFFF" d="M1706.6-610.9c3.4,5.5,4.7,12.1,8,17.6c0.7,0.3,2.1,0.8,2.8,1.1c-2.3,0.2-4.6,0.3-6.8,0.3
			c-0.5-2.1-1.2-4.1-2-6.1c-1.7,0-3.4,0.1-5.1,0.1c-0.6,1.5-1.3,2.9-1.9,4.4c0.5,0.4,1.5,1,1.9,1.4c-2.5,0.2-5,0.1-7.5-0.3
			c0.7-0.2,2.2-0.6,2.9-0.8C1701.7-599,1703.7-605.2,1706.6-610.9z M1705.9-604.9c-0.6,1.9-1.2,3.7-1.7,5.6c1.3,0,2.6-0.1,3.9-0.1
			C1707.4-601.2,1706.7-603,1705.9-604.9z"/>
	</g>
	<path fill="#FFFFFF" d="M1427.3-607.3c3.7,0,7.4,0.2,11-0.3c-0.2,1.2-0.3,2.5-0.5,3.7c-0.4-0.7-0.9-1.4-1.3-2c-1.4,0-2.7,0-4.1,0
		c0,1.7,0,3.3,0,5c1.8-0.1,3.7-0.2,5.5-0.4c-0.2,1.4-0.3,2.8-0.5,4.2c-0.5-0.8-1-1.6-1.4-2.4c-1.2-0.1-2.4-0.1-3.6-0.1c0,2,0,4,0,6
		c2.5,0.7,5,0.4,6.2-2.1c-0.1,1.2-0.1,2.5-0.2,3.8c-3.8,0-7.7,0-11.5-0.1c0.6-0.4,1.7-1,2.2-1.4c-0.2-4.3-0.1-8.6-0.1-12.9
		C1428.7-606.6,1427.8-607.1,1427.3-607.3z"/>
	<path fill="#FFFFFF" d="M1441.3-607.3c1.8,0,3.6,0,5.4-0.1c-0.2,3.6,1.5,7,2.6,10.3c1.4-3.6,2.7-7.2,4.2-10.7
		c2.8,3,3.5,7.2,5.3,10.7c0.9-3,1.9-6,2.8-9c-0.3-0.3-1-1-1.3-1.3c1.9,0.1,3.8,0.1,5.7,0c-0.7,0.4-1.4,0.8-2,1.2
		c-1.7,4.7-3.3,9.5-5,14.2c-0.3,0-1,0.1-1.4,0.1c-1.7-3-2.5-6.8-4.4-9.5c-1.8,2.8-2.5,6.5-4.2,9.5c-0.3,0-1-0.1-1.4-0.2
		c-1.7-4.6-3.3-9.3-4.9-14C1442.4-606.4,1441.7-607,1441.3-607.3z"/>
	<g>
		<path fill="#FFFFFF" d="M1516.2-607.3c4.2,0.1,8.6-0.8,12.4,1.2c0.8,2.6-0.3,5-2.4,6.6c1.9,2.9,4.1,5.8,7.3,7.2
			c-1.6,0.1-3.4,0.6-4.9-0.1c-3-1.3-3.6-5.6-6.9-6.4c0.1,2.5-1.1,6.6,2.8,6.4c-2.8,0.3-5.6,0.4-8.4,0c0.5-0.2,1.6-0.7,2.2-0.9
			c0-4.4,0-8.8,0-13.2C1517.6-606.6,1516.9-606.9,1516.2-607.3z M1521.6-606c0,2.2,0,4.4,0.1,6.6c3.7,0.5,4.9-3.6,3.1-6.1
			C1524.1-605.7,1522.5-605.9,1521.6-606z"/>
	</g>
	<path fill="#FFFFFF" d="M1589.4-607.4c3.9,0.2,7.8,0.2,11.7,0c-0.3,1.2-0.5,2.4-0.8,3.5c-0.4-2.6-3.1-1.8-5-2.1
		c0,1.7,0,3.4-0.1,5.2c1.8-0.1,3.6-0.2,5.5-0.4c-0.1,1-0.3,2.9-0.4,3.9c-0.9-2.1-2.9-2.5-4.9-2.4c-0.1,2.1-0.1,4.3,0.2,6.4
		c2.4,0.3,4.8,0.1,5.8-2.4c0,0.9,0,2.7,0,3.7c-3.7,0.2-7.4,0-11.1,0.2c0.4-0.5,1.2-1.4,1.6-1.9c0.2-4.2,0-8.4,0-12.5
		C1591.1-606.7,1590.2-607,1589.4-607.4z"/>
	<g>
		<path fill="#FFFFFF" d="M1605.1-607.4c5,0.6,10.7-1.1,15.3,1.7c4.4,3,3.5,10.4-1.1,12.8c-4.4,2.2-9.4,0.8-14.1,0.9
			c0.5-0.3,1.5-0.8,1.9-1c0.4-4.4,0.2-8.9,0.1-13.3C1606.7-606.7,1605.6-607.2,1605.1-607.4z M1610.7-605.9
			c0.1,4.2-0.2,8.5,0.3,12.7c2.5,0,5.6,0.5,7.4-1.7c2.1-2.9,1.8-7.7-1.4-9.8C1615.2-606.2,1612.8-605.8,1610.7-605.9z"/>
	</g>
	<path fill="#FFFFFF" d="M1627.2-607.3c2.4,0,4.8,0,7.3,0c-0.7,0.3-1.3,0.7-2,1c0.1,4.3-0.2,8.6,0.2,12.9c0.5,0.3,1.4,1,1.8,1.4
		c-2.4,0-4.9,0-7.3,0.1c0.5-0.4,1.5-1.3,2-1.7c0.1-4.2,0-8.5,0-12.8C1628.6-606.6,1627.6-607,1627.2-607.3z"/>
	<path fill="#FFFFFF" d="M1643.4-606.9c3.3-1,7-0.8,10.3,0.2c0,1.5,0.1,3.1,0.2,4.6c-1-1-1.6-2.2-2.3-3.4c-2.6-0.9-5.9-1.4-8,0.8
		c-3.2,4-0.8,11.1,4.6,11.6c2.5,0.7,4.1-1.5,5.7-3c-0.2,1-0.7,2.8-1,3.8c-3.6,1-7.8,0.8-11.1-1.1
		C1636.9-596.4,1637.9-605,1643.4-606.9z"/>
	<path fill="#FFFFFF" d="M1743.3-605.8c3.6-2.6,8.4-1.8,12.5-1.1c-0.1,1.4-0.1,2.7-0.2,4.1c-0.9-0.6-1.6-1.6-2.1-2.5
		c-3-1.6-8.2-1.5-9.2,2.5c-2.1,5.1,2.8,11.1,8.3,9.8c0-1.8,0-3.6,0.1-5.4c-0.9-0.4-1.8-0.8-2.6-1.1c2.5-0.2,4.9-0.3,7.4-0.3
		c-0.4,0.4-1.3,1.3-1.7,1.7c0,1.9,0,3.8,0,5.7c-3.9,1.1-8.4,1.4-12.1-0.7C1739.4-595.8,1739.2-603,1743.3-605.8z"/>
	<path fill="#FFFFFF" d="M1776.4-607.4c2.6,0.1,5.3,0.2,7.9-0.2c-0.9,0.7-2.4,1.2-2,2.6c-0.1,3.9-0.1,7.8,0.2,11.7
		c2.6,0.4,5,0,6.3-2.5c-0.1,1.3-0.2,2.6-0.4,3.9c-3.8,0-7.5,0-11.2,0c0.4-0.5,1.2-1.3,1.6-1.8c0.2-4.2,0-8.4,0-12.6
		C1778.1-606.7,1777.2-607,1776.4-607.4z"/>
</g>
<g>
	<path fill="#FFFFFF" d="M1566.6-610.7c3.7,3.6,4.9,9.2,7.6,13.6c2.5-4.6,4.2-9.6,7.3-13.8c1.7,5.8,1.8,11.9,3.1,17.8
		c1.2,0.2,2.4,0.5,3.6,0.7c-2.4,0.4-4.9,0.5-7.3,0.5c0-3.7-0.8-7.3-1.2-11c-2.1,3.6-3.9,7.4-5.7,11.2c-3.3-2.7-3.9-7.3-6.3-10.7
		c-0.7,3-1.1,6.1-1.3,9.2c0.6,0.3,1.8,0.8,2.4,1c-2.1,0.1-4.2,0.2-6.3,0.2c0.4-0.5,1.1-1.4,1.5-1.8
		C1564.9-599.3,1565.5-605.1,1566.6-610.7z"/>
	<path fill="#FFFFFF" d="M1675.2-607.3c2.4,0,4.8,0,7.2,0c-0.5,0.2-1.5,0.7-2,0.9c0,4.3-0.2,8.7,0.2,13c2.6,0.6,5-0.1,6.7-2.2
		c-0.3,1.2-0.5,2.5-0.8,3.7c-3.8,0-7.7,0-11.6-0.2c0.5-0.3,1.6-0.9,2.1-1.2c0-4.3,0-8.7,0-13C1676.5-606.6,1675.9-607,1675.2-607.3z
		"/>
</g>
<g>
	<g>
		<path fill="#FFFFFF" d="M1500.7-607.2c3.7-0.7,8.2-0.6,10.7,2.7c2.7,4,1.2,10.4-3.5,12.1c-3.9,1.4-9,1.1-11.6-2.6
			C1493.2-599.2,1495.5-606.1,1500.7-607.2z M1500.6-605.5c-4.2,3.4-2.2,12.2,3.6,12.4c4.2,0.4,5.6-4.8,4.8-8
			C1508.5-604.7,1504-608,1500.6-605.5z"/>
	</g>
</g>
<g>
	<path fill="#FFFFFF" d="M1534.3-607.2c2.6-0.1,5.3-0.1,7.9-0.4c-2.7,1.1-1.8,4.2-1.6,6.5c1.5-2,4.1-3.6,4.5-6.2c1.7,0,3.5,0,5.2,0
		c-3.1,1.5-5.6,3.9-7.8,6.5c2.9,3.4,5.9,7,10,8.9c-2.3,0-5,0.5-6.9-1.2c-2-1.7-3.6-3.9-5.3-5.8c0,2,0,4,0,6c0.6,0.2,1.7,0.6,2.3,0.8
		c-2.5,0.3-5,0.3-7.6,0.3c0.5-0.4,1.5-1.2,2-1.6c-0.1-4.3,0-8.6-0.1-12.9C1536-606.7,1535.2-606.9,1534.3-607.2z"/>
	<path fill="#FFFFFF" d="M1730.2-607.6c2.3,0.3,4.6,0.3,6.9,0.2c-0.8,0.4-1.5,0.8-2.3,1.2c-0.2,4.8,0.1,9.7-0.5,14.4l-0.8,0.1
		c-3.9-3.2-7.4-6.9-11.1-10.4c0,2.9,0,5.8,0.1,8.7c0.5,0.3,1.5,1,2,1.3c-2.2,0.1-4.4,0.1-6.6-0.1c0.5-0.3,1.6-0.8,2.1-1.1
		c0.5-4.9-0.6-10.1,0.9-14.8c4,3.7,7.6,7.7,11.6,11.3C1732.1-600.3,1734.6-605.8,1730.2-607.6z"/>
	<path fill="#FFFFFF" d="M1761.1-607.2c3.9-0.1,7.7,0.1,11.6-0.2c-0.2,1.2-0.5,2.4-0.7,3.6c-0.8-2.5-3.3-2.1-5.4-2
		c0,1.6,0,3.2,0,4.9c1.9,0.1,3.9,0,5.8-0.3c-0.2,0.9-0.5,2.7-0.7,3.6c-0.6-0.6-1.2-1.2-1.7-1.8c-1.1,0-2.2,0-3.3,0
		c0,1.8-0.1,3.6,0.1,5.3c0.9,1.5,2.8,0.8,4.2,1c0.7-0.9,1.3-1.7,2-2.6c-0.1,1.3-0.2,2.6-0.3,3.9c-3.8,0-7.7,0-11.5-0.2
		c0.5-0.3,1.4-0.8,1.9-1.1c0.5-4.4,0.1-8.8,0.2-13.2C1762.6-606.6,1761.8-606.9,1761.1-607.2z"/>
</g>
<g>
	<g>
		<path fill="#FFFFFF" d="M1663.7-608c3.5,4.2,4.7,9.9,7.2,14.6c0.7,0.2,2.1,0.7,2.7,1c-2.1,0.4-4.2,0.5-6.4,0.5
			c-0.3-1.7-0.7-3.3-1.2-4.9c-1.7-0.1-3.4-0.1-5-0.2c-0.6,1.2-1.1,2.4-1.7,3.6c0.5,0.3,1.4,1,1.9,1.3c-2,0.1-4.1,0.2-6.1,0.3
			C1659.7-596.1,1660.6-602.8,1663.7-608z M1663.6-602.8c-0.7,1.5-1.4,3-2.1,4.5c1.2,0,2.5,0,3.7,0
			C1664.7-599.8,1664.1-601.3,1663.6-602.8z"/>
	</g>
</g>
<g>
	<path fill="#FFFFFF" d="M1793-603.9c0.7-4.3,6.1-3.8,9.3-3.3c0,0.9,0,2.7,0,3.6c-1.6-2.3-4.1-4-6.7-1.9c-0.3,3.1,3.1,3.7,5,5.2
		c2.5,1.5,2.8,5.4,0.6,7.2c-2.4,1.9-5.6,1.3-8.4,0.9c0-1.4,0-2.7,0-4.1c1.2,2.5,5.5,5,6.9,1.4C1800.2-599.4,1791.9-598.9,1793-603.9
		z"/>
</g>
<g>
	<path fill="none" stroke="#377EC0" stroke-width="2" stroke-miterlimit="10.43" d="M-18.1-950.8c8.9,0,17.7,1.4,26.5,1.7
		c-1.9,2.8-4.7,4.8-7,7.1c-4.4,3.8-8.2,8.2-12.9,11.7c0.2-2.9,0.6-5.8,0.9-8.6c-3.3,1.6-5.7,4.6-8.6,6.7c-2.7,1.7-4.6,4.4-6.1,7.2
		c-0.8,1.4-1.8,2.7-2.7,4c-1.4,1.9-2.6,3.9-3.5,6c-0.8,2.3-1.6,4.7-2.4,7c-0.7,2.1-1.3,4.2-1.5,6.4c-0.1,2.2-0.2,4.5-0.4,6.7
		c0,0.3-0.1,0.8-0.1,1c0,0.2,0.1,0.7,0.1,0.9c0.3,9.9,3.9,19.3,6.6,28.8c1,4.3,2.3,8.6,4,12.7c5.3,15.9,7.5,33.5,2.5,49.7
		c-6.9,22.8-23.9,41.8-44.6,53.2c-4.2,2.2-8.1,4.9-12.6,6.3c0.7-0.9,1.4-1.7,2.3-2.3c2.5-1.6,4.9-3.3,6.9-5.5c1.7-2,3.8-3.5,5.9-5
		c2.5-1.9,4.7-4.3,6.7-6.8c2.1-2.6,4.4-5.1,6.7-7.6c1.7-1.9,3.3-3.8,5-5.7c0-0.3,0-0.9,0-1.2c1.7-2.6,3.3-5.3,5.1-7.9
		c1.6-2.3,3-4.7,3.6-7.4c1.1-3.5,2.2-7,3.4-10.5c1.1-2.8,1.7-5.8,1.7-8.8c0.1-3.1,0.3-6.2,0.2-9.3c-0.1-3.5-0.3-7-0.9-10.4
		c-1.3-5.7-2.9-11.3-4.2-17c-1-4.5-2.2-8.9-3.9-13.2c-4.5-13.1-7.5-27.3-4.4-41c2.5-10.9,8.3-21,16.1-29c5.4-5.3,11.9-9.3,18.7-12.6
		C-12.5-946.7-16.1-948.2-18.1-950.8z"/>
</g>
<g>
	<g>
		<path fill="#FFFFFF" d="M-0.7-605.8c1.2,0.3,2.5,0.4,3.3,1.5c18.2,19.5,37.4,38,55.8,57.4c-0.6-16.1-0.5-32.2-1.2-48.3
			c0-2.9-1.5-6-4.8-6.1c-1.9-0.7-6.5,0.9-5.4-2.5c4.3-0.7,8.7-0.1,13-0.1c5.1,0.1,10.1-0.6,15.2,0c0,3.5-4.1,1.8-6.2,2.9
			c-2.9,1.6-2.4,5.4-2.7,8.2c0,13-0.5,26-0.6,39c-0.5,9.4,0.1,18.8-0.8,28.1c-2.1,1.6-4.1-1-5.7-2.2c-13.2-13.1-26.4-26.3-39.5-39.5
			c-4.7-4.7-8.9-10.1-14-14.4c0.2,11,0.6,22,0.8,33c0.3,6.2-0.2,12.6,2.1,18.4c2.7,1.4,5.7,1.2,8.6,1.8l0.6,1
			c-1.6,2-4.4,1.1-6.6,1.3c-7.4-0.5-14.8,0.1-22.2-0.1c-0.2-0.5-0.5-1.5-0.6-2c2.7-0.7,6-0.1,8.1-2c1.8-3.8,1.1-8.1,1.5-12.2
			c0-16,0.5-32,0.7-48.1C-1-595.7-2-600.9-0.7-605.8z"/>
		<path fill="#FFFFFF" d="M184-602.8c0.3-1,0.4-3.2,2.1-2.7c1.5-0.4,2,1.2,2.6,2.2c9.4,18.9,18.4,38,28,56.8
			c9.4-19.1,18.5-38.5,27.9-57.6c0.6-2.2,3.7-1.7,3.9,0.4c3.6,22.3,6.6,44.6,10.1,66.9c0.5,3.2,1.7,7.1,5.5,7.5
			c2.4,1.1,6.7-0.8,7.3,2.7c-2.7,0.6-5.5,0.7-8.3,0.4c-6.3-0.4-12.6,0.4-18.8-0.9c-0.6-1.4,0.5-2.3,1.4-3.2
			c0.1-3.8-0.8-7.5-1.2-11.2c-1.6-11.7-3.2-23.4-4.9-35.2c-7.7,14.6-14.6,29.8-22,44.6c-1.1,2-1.8,4.3-3.5,5.8
			c-1.6,0.6-2.3-1.4-3.1-2.4c-8.3-15.4-15.7-31.3-23.5-47c-1.9,13.1-3.6,26.1-5.3,39.2c-0.1,2.5-1.1,6.8,2.6,7.1
			c1.9,0.9,6.3-0.6,5.9,2.4c-2.7,1.2-5.8,0.5-8.7,0.5c-5.5-0.4-11.1,0.4-16.6,0c-1.6-3.2,2.5-2.2,4.3-2.7c2.6-0.4,3.2-3.5,3.7-5.6
			C177.1-557.4,180.4-580.1,184-602.8z"/>
		<g>
			<path fill="#FFFFFF" d="M312.8-605.1c1.7-1.2,3.4,0.1,3.8,1.8c9.1,21.4,17.4,43.1,26.5,64.5c1.3,2.9,2.8,5.8,5.1,7.9
				c2.4,2.2,6,1.8,9,2.2c-0.1,0.5-0.4,1.4-0.6,1.8c-4.7,1-9.7,0.4-14.5,0.4c-4.3-0.3-8.6,0.3-12.9-0.6c-0.7-1.8,1.4-1.9,2.5-2.6
				c-2.5-7.7-5.8-15-8.5-22.6c-7.9-0.3-15.8-0.1-23.6-0.1c-1.9,4.9-3.8,9.8-5.8,14.7c-1,2.7-2.2,5.7-0.6,8.5
				c1.9,0.5,7.3-0.9,5.9,2.5c-5,0.7-10.1-0.2-15.2,0.1c-3.9-0.2-8,1-11.8-0.5c0-0.4,0.1-1.1,0.1-1.5c2.6-0.8,5.7-0.3,8.1-1.9
				c2.5-2,3.8-5.1,5-8c7.7-19.2,15.5-38.4,23.3-57.5C310-599,311.1-602.2,312.8-605.1z M308.2-574.7c-2,5.5-4.2,11-6.1,16.6
				c6.3-0.1,12.5,0,18.8-0.1c-3-8.3-6-16.6-9.1-24.9C310.1-580.5,309.3-577.5,308.2-574.7z"/>
		</g>
		<path fill="#FFFFFF" d="M83.3-603.5c3.4-1.2,7.2-0.2,10.8-0.4c5.7,0.3,11.4-0.6,17.1,0.1c1.3,2.7-3.4,1.8-3.5,4
			c0.4,1.7,1.2,3.2,2,4.7c5.2,9.3,10.6,18.6,15.9,27.9c4.9-7.7,8.9-15.8,13.4-23.7c1.4-3,3.7-6.1,2.8-9.6c-1.3-1.2-4.4-0.9-3.6-3.3
			c6.7-0.6,13.4,0.3,20.1-0.3c1.6,0.1,5.1-0.7,4.7,1.9c-2.8,0.8-6,0.9-8.3,2.8c-4.6,4-7.4,9.5-10.6,14.5c-4.1,6.9-8.4,13.7-12,20.9
			c-2.8,5.3-1.5,11.5-1.8,17.2c0.3,5.5-0.9,11.4,1.4,16.7c3.1,1,6.3,1.2,9.6,1.3c-0.1,0.6-0.2,1.8-0.3,2.4c-8.9,0.2-17.8-0.5-26.7,0
			c-2.2-0.2-5.5,0.9-6.7-1.5c2.2-2.2,7.2,0,8.2-3.8c1.3-6.2,0.8-12.7,0.9-19c0.1-4.7-0.4-9.5-2.8-13.6c-3.8-6.8-8-13.4-12.1-20
			c-3.4-5.1-6.1-10.9-10.9-14.9c-2-1.8-4.8-2-7.3-2.8C83.3-602.4,83.3-603.1,83.3-603.5z"/>
	</g>
	<g>
		<path fill="#FFFFFF" d="M-26.6-513.9c2.2,0,4.5-0.1,6.8,0.4c-0.5,0.1-1.5,0.4-2.1,0.5c0.1,5.9-0.7,11.7-0.5,17.5
			c-1-0.2-1.8-0.6-2.5-1.3c-3.8-3.7-7.5-7.5-11.5-11c0,3.6-0.2,7.4,0.5,11c0.6,0.3,1.8,0.8,2.4,1.1c-2.6,0.2-5.2,0.1-7.7-0.1
			c0.9-0.4,1.8-0.8,2.7-1.2c0-5.8,0.2-11.6,0.4-17.4c5,4,8.8,9.2,13.8,13.1c-0.2-3.8,0.6-7.8-0.5-11.6c-0.4-0.1-1.4-0.4-1.8-0.5
			C-26.6-513.6-26.6-513.8-26.6-513.9z"/>
		<path fill="#FFFFFF" d="M44.5-513.9c2.1,0,4.3,0,6.4,0c-3.5,1.5-5.1,5.3-6.9,8.4c-1.6,2.6-0.8,5.8-0.8,8.7
			c0.7,0.2,2.2,0.5,2.9,0.6c-3.1,0.6-6.2,0.6-9.2,0.1c4-0.1,2.5-4.9,2.3-7.5c-1.9-3.7-3.8-7.6-7.2-10.2c1.8-0.1,3.6-0.2,5.4-0.3
			c1.1,2.9,2.7,5.7,4.3,8.3c1.2-2.1,2.4-4.3,3.7-6.4C45.1-512.7,44.8-513.3,44.5-513.9z"/>
		<g>
			<path fill="#FFFFFF" d="M263.4-514.7c3.4,5.5,4.7,12.1,8,17.6c0.7,0.3,2.1,0.8,2.8,1.1c-2.3,0.2-4.6,0.3-6.8,0.3
				c-0.5-2.1-1.2-4.1-2.1-6.1c-1.7,0-3.4,0.1-5.1,0.1c-0.6,1.5-1.3,2.9-1.9,4.4c0.5,0.4,1.5,1,2,1.4c-2.5,0.1-5,0.1-7.5-0.3
				c0.7-0.2,2.2-0.6,2.9-0.8C258.5-502.8,260.4-509,263.4-514.7z M262.7-508.6c-0.6,1.9-1.2,3.7-1.7,5.6c1.3,0,2.6-0.1,3.9-0.1
				C264.2-505,263.5-506.8,262.7-508.6z"/>
		</g>
		<path fill="#FFFFFF" d="M-15.9-511.1c3.7,0,7.4,0.2,11-0.3c-0.2,1.2-0.3,2.5-0.5,3.7c-0.4-0.7-0.9-1.4-1.3-2c-1.4,0-2.7,0-4.1,0
			c0,1.7,0,3.4,0,5c1.8-0.1,3.7-0.2,5.5-0.4c-0.2,1.4-0.3,2.8-0.5,4.2c-0.5-0.8-1-1.6-1.4-2.4c-1.2,0-2.4-0.1-3.6-0.1c0,2,0,4,0,6
			c2.5,0.7,5,0.4,6.2-2.1c-0.1,1.2-0.1,2.5-0.2,3.8c-3.8,0.1-7.7,0.1-11.5-0.1c0.6-0.4,1.7-1,2.2-1.4c-0.2-4.3-0.1-8.6-0.1-12.9
			C-14.6-510.4-15.5-510.8-15.9-511.1z"/>
		<path fill="#FFFFFF" d="M-1.9-511.1c1.8,0,3.6,0,5.4-0.1c-0.2,3.6,1.5,7,2.7,10.3c1.4-3.6,2.7-7.2,4.2-10.7
			c2.8,3,3.5,7.2,5.3,10.7c0.9-3,1.9-6,2.8-9c-0.3-0.3-1-1-1.3-1.3c1.9,0.1,3.8,0.1,5.7,0c-0.7,0.4-1.4,0.8-2,1.2
			c-1.7,4.7-3.3,9.5-5,14.2c-0.3,0-1,0.1-1.4,0.1c-1.7-3-2.5-6.9-4.4-9.5c-1.8,2.8-2.5,6.5-4.2,9.5c-0.3,0-1-0.1-1.4-0.2
			c-1.7-4.6-3.3-9.3-4.9-14C-0.8-510.2-1.6-510.8-1.9-511.1z"/>
		<g>
			<path fill="#FFFFFF" d="M73-511c4.2,0.1,8.6-0.8,12.4,1.2c0.8,2.6-0.3,5-2.4,6.6c1.9,2.9,4.1,5.8,7.3,7.2
				c-1.6,0.1-3.4,0.6-4.9-0.1c-3-1.3-3.6-5.6-6.9-6.4c0.1,2.5-1.1,6.6,2.8,6.5c-2.8,0.3-5.6,0.4-8.4,0c0.5-0.2,1.6-0.7,2.2-0.9
				c0-4.4,0-8.8,0-13.2C74.4-510.4,73.7-510.7,73-511z M78.4-509.8c0,2.2,0,4.4,0.1,6.6c3.7,0.5,4.9-3.6,3.1-6.1
				C80.8-509.4,79.2-509.7,78.4-509.8z"/>
		</g>
		<path fill="#FFFFFF" d="M146.2-511.2c3.9,0.2,7.8,0.2,11.7-0.1c-0.3,1.2-0.5,2.4-0.8,3.6c-0.4-2.6-3.1-1.8-5-2.1
			c0,1.7,0,3.4-0.1,5.2c1.8-0.1,3.6-0.2,5.5-0.4c-0.1,1-0.3,2.9-0.4,3.9c-0.9-2.1-2.9-2.5-4.9-2.4c-0.1,2.1-0.1,4.3,0.2,6.4
			c2.4,0.3,4.8,0.1,5.8-2.4c0,0.9,0,2.7,0,3.6c-3.7,0.2-7.4,0-11.1,0.1c0.4-0.5,1.2-1.4,1.6-1.9c0.2-4.2,0-8.4,0-12.5
			C147.9-510.4,147-510.8,146.2-511.2z"/>
		<g>
			<path fill="#FFFFFF" d="M161.9-511.2c5.1,0.6,10.7-1.1,15.3,1.7c4.4,3,3.5,10.4-1.1,12.8c-4.4,2.2-9.4,0.8-14.1,0.9
				c0.5-0.3,1.5-0.8,1.9-1c0.4-4.4,0.2-8.9,0.1-13.3C163.5-510.5,162.4-510.9,161.9-511.2z M167.4-509.7c0.1,4.2-0.2,8.5,0.3,12.7
				c2.5,0,5.6,0.5,7.4-1.7c2.1-2.9,1.8-7.7-1.4-9.8C172-510,169.6-509.6,167.4-509.7z"/>
		</g>
		<path fill="#FFFFFF" d="M183.9-511c2.4-0.1,4.8-0.1,7.3,0c-0.7,0.3-1.3,0.7-2,1c0.1,4.3-0.2,8.6,0.2,12.9c0.5,0.3,1.4,1,1.8,1.4
			c-2.4,0-4.9,0-7.3,0.1c0.5-0.4,1.5-1.3,2-1.7c0.1-4.2,0-8.5,0-12.8C185.4-510.4,184.4-510.8,183.9-511z"/>
		<path fill="#FFFFFF" d="M200.1-510.7c3.3-1,7-0.8,10.3,0.1c0,1.5,0.1,3.1,0.2,4.6c-1-1-1.6-2.2-2.3-3.4c-2.6-0.9-5.9-1.5-8,0.8
			c-3.2,4-0.8,11.1,4.6,11.6c2.5,0.6,4.1-1.5,5.7-3c-0.2,0.9-0.7,2.9-1,3.8c-3.6,1-7.8,0.8-11.1-1.1
			C193.7-500.2,194.7-508.8,200.1-510.7z"/>
		<path fill="#FFFFFF" d="M300.1-509.6c3.6-2.6,8.4-1.8,12.5-1.1c-0.1,1.4-0.1,2.7-0.2,4.1c-0.9-0.6-1.6-1.6-2.1-2.5
			c-3-1.6-8.2-1.5-9.2,2.5c-2.1,5.1,2.8,11.1,8.3,9.8c0-1.8,0-3.6,0.1-5.4c-0.9-0.4-1.8-0.8-2.6-1.2c2.4-0.2,4.9-0.3,7.4-0.3
			c-0.4,0.4-1.3,1.3-1.7,1.7c0,1.9,0,3.8,0,5.7c-3.9,1.1-8.4,1.4-12.1-0.7C296.2-499.6,296-506.7,300.1-509.6z"/>
		<path fill="#FFFFFF" d="M333.2-511.1c2.6,0.1,5.3,0.2,7.9-0.2c-0.9,0.7-2.4,1.2-2,2.6c-0.1,3.9-0.1,7.8,0.2,11.7
			c2.6,0.4,5,0,6.3-2.5c-0.1,1.3-0.2,2.6-0.4,3.9c-3.8,0-7.5,0-11.2,0c0.4-0.5,1.2-1.4,1.6-1.8c0.2-4.2,0-8.4,0-12.6
			C334.8-510.4,334-510.8,333.2-511.1z"/>
	</g>
	<g>
		<path fill="#FFFFFF" d="M123.4-514.5c3.7,3.7,4.9,9.2,7.6,13.6c2.5-4.6,4.2-9.6,7.3-13.8c1.7,5.8,1.8,11.9,3.1,17.8
			c1.2,0.2,2.4,0.4,3.6,0.7c-2.4,0.4-4.9,0.6-7.4,0.5c0-3.7-0.8-7.3-1.2-11c-2.1,3.6-3.9,7.4-5.7,11.2c-3.3-2.7-4-7.3-6.3-10.6
			c-0.7,3-1.1,6.1-1.3,9.2c0.6,0.3,1.8,0.8,2.4,1c-2.1,0.1-4.2,0.2-6.3,0.2c0.4-0.4,1.1-1.4,1.5-1.8
			C121.7-503.1,122.3-508.8,123.4-514.5z"/>
		<path fill="#FFFFFF" d="M232-511.1c2.4,0,4.8,0,7.2,0c-0.5,0.2-1.5,0.7-1.9,0.9c0,4.3-0.2,8.7,0.2,13c2.6,0.6,5-0.1,6.7-2.2
			c-0.3,1.2-0.5,2.5-0.8,3.7c-3.9-0.1-7.7,0-11.6-0.2c0.5-0.3,1.6-0.9,2.1-1.1c0-4.3,0-8.7,0-13C233.3-510.4,232.6-510.7,232-511.1z
			"/>
	</g>
	<g>
		<g>
			<path fill="#FFFFFF" d="M57.5-511c3.7-0.7,8.2-0.6,10.6,2.7c2.7,4,1.2,10.4-3.5,12.1c-3.9,1.4-9.1,1.1-11.6-2.6
				C49.9-503,52.3-509.9,57.5-511z M57.4-509.3c-4.2,3.5-2.2,12.2,3.6,12.5c4.2,0.4,5.6-4.8,4.7-8C65.3-508.5,60.8-511.7,57.4-509.3
				z"/>
		</g>
	</g>
	<g>
		<path fill="#FFFFFF" d="M91.1-510.9c2.6-0.1,5.3-0.1,7.9-0.4c-2.7,1.1-1.8,4.2-1.6,6.5c1.5-2.1,4.1-3.6,4.5-6.2c1.7,0,3.5,0,5.2,0
			c-3.1,1.5-5.6,3.9-7.8,6.5c2.9,3.4,5.9,7,10,8.8c-2.3,0-5,0.5-6.9-1.2c-2-1.7-3.6-3.9-5.3-5.9c0,2,0,4,0,6
			c0.6,0.2,1.7,0.6,2.3,0.8c-2.5,0.3-5.1,0.3-7.6,0.3c0.5-0.4,1.5-1.2,2-1.6c-0.1-4.3,0-8.6-0.1-12.9
			C92.8-510.5,91.9-510.7,91.1-510.9z"/>
		<path fill="#FFFFFF" d="M287-511.3c2.3,0.3,4.6,0.3,6.9,0.2c-0.8,0.4-1.5,0.8-2.3,1.2c-0.2,4.8,0.1,9.7-0.5,14.4l-0.8,0.1
			c-3.9-3.2-7.4-6.9-11.1-10.4c0,2.9,0,5.8,0.1,8.7c0.5,0.3,1.5,1,2,1.4c-2.2,0.1-4.4,0.1-6.6-0.1c0.5-0.3,1.6-0.8,2.1-1.1
			c0.5-4.9-0.6-10.1,0.9-14.8c4,3.7,7.6,7.7,11.6,11.3C288.8-504,291.3-509.6,287-511.3z"/>
		<path fill="#FFFFFF" d="M317.9-511c3.9-0.1,7.7,0.1,11.6-0.2c-0.2,1.2-0.5,2.4-0.7,3.6c-0.9-2.5-3.3-2.1-5.4-2c0,1.6,0,3.2,0,4.9
			c1.9,0.1,3.9,0,5.8-0.3c-0.2,0.9-0.5,2.7-0.7,3.6c-0.6-0.6-1.2-1.2-1.7-1.9c-1.1,0-2.2,0-3.3,0c0,1.8-0.1,3.6,0.1,5.3
			c0.9,1.5,2.8,0.8,4.2,1c0.7-0.9,1.3-1.7,2-2.6c-0.1,1.3-0.2,2.6-0.3,3.9c-3.8,0-7.7,0-11.5-0.2c0.5-0.3,1.4-0.8,1.9-1.1
			c0.5-4.4,0.1-8.8,0.2-13.1C319.3-510.4,318.6-510.7,317.9-511z"/>
	</g>
	<g>
		<g>
			<path fill="#FFFFFF" d="M220.5-511.8c3.5,4.2,4.6,9.9,7.2,14.7c0.7,0.2,2.1,0.7,2.7,1c-2.1,0.4-4.2,0.5-6.4,0.5
				c-0.3-1.7-0.7-3.3-1.2-4.9c-1.7-0.1-3.3-0.1-5-0.2c-0.6,1.2-1.1,2.4-1.7,3.6c0.5,0.3,1.4,1,1.9,1.3c-2,0.1-4.1,0.2-6.1,0.3
				C216.5-499.9,217.3-506.6,220.5-511.8z M220.3-506.6c-0.7,1.5-1.4,3-2.1,4.5c1.2,0,2.5,0,3.7,0
				C221.4-503.6,220.9-505.1,220.3-506.6z"/>
		</g>
	</g>
	<g>
		<path fill="#FFFFFF" d="M349.7-507.7c0.7-4.3,6.1-3.8,9.3-3.3c0,0.9,0,2.7,0,3.6c-1.6-2.3-4.1-4-6.7-1.9c-0.3,3.1,3.1,3.7,5,5.2
			c2.5,1.5,2.9,5.4,0.6,7.2c-2.4,1.9-5.6,1.3-8.4,0.9c0-1.4,0-2.7,0-4.1c1.2,2.5,5.5,5,6.9,1.4C356.9-503.1,348.7-502.6,349.7-507.7
			z"/>
	</g>
	<g>
		<g>
			<path fill="none" stroke="#FFFFFF" stroke-width="2" stroke-miterlimit="10.43" d="M-25.3-679.7c1.5-2.8,3.4-5.4,6.1-7.2
				c8,5.2,15.9,10.3,23.9,15.5c1,0.7,2.3,1.3,2.9,2.5c-0.3,3.2-1.1,6.2-1.9,9.3c-5.7-2.6-10.6-6.6-15.9-9.9
				C-15.2-673-20.6-675.8-25.3-679.7z"/>
		</g>
		<g>
			<path fill="none" stroke="#FFFFFF" stroke-width="2" stroke-miterlimit="10.43" d="M-31.4-669.6c0.8-2.2,2.1-4.2,3.5-6
				c11,6.2,21.2,13.8,32,20.4c-0.4,2.6-1.4,5-2.7,7.2C-9.6-655.3-20.8-662-31.4-669.6z"/>
			<path fill="none" stroke="#FFFFFF" stroke-width="2" stroke-miterlimit="10.43" d="M-73.8-610c10.7-2.2,21.5-3.9,32.4-5.7
				c1.7,4.2,2.9,8.7,3.9,13.2c-10.9,3.3-22.3,4.5-33.4,6.9c-16.5,4.2-33.2,10.2-46,21.9c-8.5,7.6-14.6,17.8-17.5,28.9
				c-2.1,7.2-2.3,14.7-2.9,22.2c-4.8-14.6-4-30.9,2.8-44.7c4.9-10.7,13.3-19.3,22.7-26.1C-100.4-601.3-87.3-606.7-73.8-610z"/>
			<path fill="none" stroke="#FFFFFF" stroke-width="2" stroke-miterlimit="10.43" d="M-98-576.1c0.7-3.2,4.2-8.1,7.8-5.4
				c16.3,10.8,32.9,21.2,49.2,32c1.1,0.7,2.3,1.3,3.5,1.9l-0.2,1.1c-0.6,2.7-2,5.2-3.6,7.4c-2.3-2.2-5.1-3.8-7.8-5.5
				C-65.4-555.1-81.5-565.9-98-576.1z"/>
		</g>
		<g>
			<path fill="none" stroke="#FFFFFF" stroke-width="2" stroke-miterlimit="10.43" d="M5.4-643.5c5.1-8.6,6.6-18.6,9.1-28.2
				c2.2,13.7,0.6,28.6-6.8,40.6c-7.2,12.2-19.9,20.1-32.9,24.9c-1.7-4.1-3-8.3-4-12.6C-15.3-622.5-1.4-630.2,5.4-643.5z"/>
			<path fill="none" stroke="#FFFFFF" stroke-width="2" stroke-miterlimit="10.43" d="M-57-591.2c3-2.1,6.7-2.1,10.1-2.7
				c4.6,2.7,8.8,5.9,13.5,8.5c0.6,3.4,0.9,6.9,0.9,10.4c-6.2-2.8-11.5-7.2-17.3-10.7C-52.1-587.6-55.3-588.6-57-591.2z"/>
		</g>
		<g>
			<path fill="none" stroke="#FFFFFF" stroke-width="2" stroke-miterlimit="10.43" d="M-35.4-656.2c0.2-2.2,0.8-4.3,1.5-6.4
				c1.4,0.5,2.7,1,4,1.8c9.2,6,18.4,12.2,27.8,18c-0.8,2.2-3.2,6.3-5.8,4.1C-17.1-644.5-26-650.9-35.4-656.2z"/>
			<path fill="none" stroke="#FFFFFF" stroke-width="2" stroke-miterlimit="10.43" d="M-126.4-550.7c1-2.4,2-4.8,3.5-6.9
				c1.7,0.3,3.1,1.4,4.6,2.3c16.3,10.7,32.7,21.1,48.9,31.8c3.8,2.3,7.2,5.1,11.3,6.9c-2,2.4-4.2,4.8-6.7,6.8
				c-18.5-12.6-37.5-24.5-56.3-36.7C-122.9-547.9-125.3-548.7-126.4-550.7z"/>
		</g>
		<g>
			<path fill="none" stroke="#FFFFFF" stroke-width="2" stroke-miterlimit="10.43" d="M-35.8-649.5l0.5-1
				c7.2,4.9,14.5,9.7,21.8,14.3c0.9,0.7,2.1,1.2,2.6,2.4c-2.1,1.9-5.1,5-8.1,3.2c-4.8-2.8-9.4-6.1-14.1-9.1c-3-1.4-2.1-5.2-2.8-7.9
				c0-0.2-0.1-0.7-0.1-0.9C-35.8-648.7-35.8-649.3-35.8-649.5z"/>
			<path fill="none" stroke="#FFFFFF" stroke-width="2" stroke-miterlimit="10.43" d="M-78.6-587.2c3.4-1.3,7.7-3.6,11.1-1
				c11.7,7.4,23.2,15.1,34.8,22.4c-0.1,3-0.6,6-1.7,8.8c-14.9-9.1-29.2-19.2-44.2-28.2C-78.5-585.7-78.5-586.7-78.6-587.2z"/>
		</g>
		<g>
			<path fill="none" stroke="#FFFFFF" stroke-width="2" stroke-miterlimit="10.43" d="M-109.7-572.3c16.3,10.3,32.4,21,48.7,31.4
				c4.9,3.2,9.9,6.2,14.6,9.7c0,0.3,0,0.9,0,1.2c-1.7,1.9-3.4,3.8-5,5.7c-15.3-10.4-31.1-20.2-46.6-30.4c-5.3-3.1-10.1-7.2-15.7-9.8
				C-113.2-567.4-111.1-569.7-109.7-572.3z"/>
		</g>
		<g>
			<path fill="none" stroke="#FFFFFF" stroke-width="2" stroke-miterlimit="10.43" d="M-129.2-542.4c2.2,0.4,4,1.9,5.9,3.1
				c16.4,10.7,32.8,21.3,49.3,31.8c1.2,0.8,2.3,1.8,3.4,2.7c-2,2.2-4.4,3.9-6.9,5.6c-15-9.6-29.8-19.5-44.9-29.1
				c-2.7-1.9-5.7-3.3-8-5.6C-130.5-536.9-129.7-539.6-129.2-542.4z"/>
		</g>
		<g>
			<path fill="none" stroke="#FFFFFF" stroke-width="2" stroke-miterlimit="10.43" d="M-18.1-705.5c8.9,0,17.7,1.4,26.5,1.7
				c-1.9,2.8-4.7,4.8-7,7.1c-4.4,3.8-8.2,8.2-12.9,11.7c0.2-2.9,0.6-5.8,0.9-8.6c-3.3,1.6-5.7,4.6-8.6,6.7c-2.7,1.7-4.6,4.4-6.1,7.2
				c-0.8,1.4-1.8,2.7-2.7,4c-1.4,1.9-2.6,3.8-3.5,6c-0.8,2.3-1.6,4.7-2.4,7c-0.7,2.1-1.3,4.2-1.5,6.4c-0.1,2.2-0.2,4.5-0.4,6.7
				c0,0.3-0.1,0.8-0.1,1.1c0,0.2,0.1,0.7,0.1,0.9c0.3,9.9,3.9,19.3,6.6,28.8c1,4.3,2.3,8.5,4,12.6c5.3,15.9,7.5,33.5,2.5,49.7
				c-6.9,22.8-23.9,41.8-44.6,53.2c-4.2,2.2-8.1,4.9-12.6,6.3c0.7-0.9,1.4-1.7,2.3-2.3c2.5-1.6,4.9-3.3,6.9-5.6c1.7-2,3.8-3.5,5.9-5
				c2.5-1.9,4.7-4.3,6.7-6.8c2.1-2.6,4.4-5.1,6.7-7.6c1.7-1.9,3.3-3.8,5-5.7c0-0.3,0-0.9,0-1.2c1.7-2.6,3.3-5.3,5.1-7.9
				c1.6-2.3,3-4.7,3.6-7.4c1.1-3.5,2.2-7,3.4-10.4c1.1-2.8,1.7-5.8,1.7-8.8c0.1-3.1,0.3-6.2,0.2-9.4c-0.1-3.5-0.3-7-0.9-10.4
				c-1.3-5.7-2.9-11.3-4.2-17c-1-4.5-2.2-8.9-3.9-13.2c-4.5-13.1-7.5-27.3-4.4-41c2.5-10.9,8.3-21,16.1-29
				c5.4-5.3,11.9-9.3,18.7-12.6C-12.5-701.3-16.1-702.8-18.1-705.5z"/>
		</g>
	</g>
</g>
<g>
	<g>
		<path fill="#FFFFFF" d="M-0.7-173.8c1.2,0.3,2.5,0.4,3.3,1.5c18.2,19.5,37.4,38,55.8,57.4c-0.6-16.1-0.5-32.2-1.2-48.3
			c0-2.9-1.5-6-4.8-6.1c-1.9-0.7-6.5,0.9-5.4-2.5c4.3-0.7,8.7-0.1,13-0.1c5.1,0.1,10.1-0.6,15.2,0c0,3.5-4.1,1.8-6.2,2.9
			c-2.9,1.6-2.4,5.4-2.7,8.2c0,13-0.5,26-0.6,39c-0.5,9.4,0.1,18.8-0.8,28.1c-2.1,1.6-4.1-1-5.7-2.2c-13.2-13.1-26.4-26.3-39.5-39.5
			c-4.7-4.7-8.9-10.1-14-14.4c0.2,11,0.6,22,0.8,33c0.3,6.2-0.2,12.6,2.1,18.4c2.7,1.3,5.7,1.2,8.6,1.8l0.6,1
			c-1.6,2-4.4,1.1-6.6,1.3c-7.4-0.6-14.8,0.1-22.2-0.1c-0.1-0.5-0.4-1.5-0.6-2.1c2.7-0.7,6-0.1,8.1-2c1.8-3.8,1.1-8.1,1.5-12.2
			c0-16,0.5-32,0.7-48.1C-1-163.7-2-168.9-0.7-173.8z"/>
		<path fill="#FFFFFF" d="M184-170.8c0.3-1,0.4-3.2,2.1-2.7c1.5-0.4,2,1.2,2.6,2.2c9.4,18.9,18.4,38,28,56.8
			c9.4-19.1,18.5-38.5,27.9-57.6c0.6-2.2,3.7-1.7,3.9,0.4c3.6,22.3,6.6,44.6,10.1,66.9c0.5,3.2,1.7,7.1,5.5,7.5
			c2.4,1.1,6.7-0.8,7.3,2.7c-2.7,0.6-5.5,0.7-8.3,0.4c-6.3-0.4-12.6,0.4-18.8-0.9c-0.6-1.4,0.5-2.3,1.4-3.2
			c0.1-3.8-0.8-7.5-1.2-11.2c-1.6-11.7-3.2-23.5-4.9-35.2c-7.7,14.6-14.6,29.8-22,44.6c-1.1,1.9-1.8,4.3-3.5,5.8
			c-1.6,0.6-2.3-1.4-3.1-2.4c-8.3-15.4-15.7-31.3-23.5-47c-1.9,13.1-3.6,26.1-5.3,39.2c-0.1,2.5-1.1,6.8,2.6,7.1
			c1.9,0.9,6.3-0.6,5.9,2.4c-2.7,1.2-5.8,0.5-8.7,0.5c-5.5-0.4-11.1,0.4-16.6,0c-1.6-3.2,2.5-2.2,4.3-2.7c2.6-0.4,3.2-3.5,3.7-5.6
			C177.1-125.4,180.4-148.1,184-170.8z"/>
		<g>
			<path fill="#FFFFFF" d="M312.8-173.1c1.7-1.2,3.4,0.1,3.8,1.8c9.1,21.4,17.4,43.1,26.5,64.5c1.3,2.9,2.8,5.8,5.1,7.9
				c2.4,2.2,6,1.8,9,2.2c-0.1,0.5-0.4,1.4-0.6,1.8c-4.7,1-9.7,0.4-14.5,0.4c-4.3-0.3-8.6,0.3-12.9-0.6c-0.7-1.8,1.4-1.9,2.5-2.6
				c-2.5-7.7-5.8-15-8.5-22.6c-7.9-0.3-15.8-0.1-23.6-0.1c-1.9,4.9-3.8,9.8-5.8,14.7c-1,2.7-2.2,5.7-0.6,8.5
				c1.9,0.5,7.3-0.9,5.9,2.5c-5,0.7-10.1-0.2-15.2,0.1c-3.9-0.2-8,1-11.8-0.4c0-0.4,0.1-1.1,0.1-1.5c2.6-0.8,5.7-0.3,8.1-1.9
				c2.5-2,3.8-5.1,5-8c7.7-19.2,15.5-38.4,23.3-57.6C310-167,311.1-170.2,312.8-173.1z M308.2-142.7c-2,5.5-4.2,11-6.1,16.6
				c6.3-0.1,12.5,0,18.8-0.1c-3-8.3-6-16.6-9.1-24.9C310.1-148.5,309.3-145.5,308.2-142.7z"/>
		</g>
		<path fill="#FFFFFF" d="M83.3-171.5c3.4-1.2,7.2-0.2,10.8-0.4c5.7,0.3,11.4-0.6,17.1,0.1c1.3,2.7-3.4,1.8-3.5,4
			c0.4,1.6,1.2,3.2,2,4.7c5.2,9.4,10.6,18.6,15.9,27.9c4.9-7.7,8.9-15.8,13.4-23.7c1.4-3,3.7-6.1,2.8-9.6c-1.3-1.1-4.4-0.9-3.6-3.3
			c6.7-0.6,13.4,0.3,20.1-0.3c1.6,0.1,5.1-0.7,4.7,1.9c-2.8,0.8-6,0.9-8.3,2.8c-4.6,4-7.4,9.4-10.6,14.5c-4.1,6.9-8.4,13.7-12,20.9
			c-2.8,5.3-1.5,11.5-1.8,17.2c0.3,5.6-0.9,11.4,1.4,16.7c3.1,1,6.3,1.2,9.6,1.3c-0.1,0.6-0.2,1.8-0.3,2.4c-8.9,0.2-17.8-0.5-26.7,0
			c-2.2-0.2-5.5,0.9-6.7-1.4c2.2-2.2,7.2,0,8.2-3.8c1.3-6.2,0.8-12.7,0.9-19.1c0.1-4.7-0.4-9.5-2.8-13.6c-3.8-6.8-8-13.4-12.1-20
			c-3.4-5.1-6.1-10.9-10.9-14.9c-2-1.8-4.8-2-7.3-2.8C83.3-170.4,83.3-171.1,83.3-171.5z"/>
	</g>
	<g>
		<path fill="#FFFFFF" d="M-26.6-81.9c2.2,0,4.5-0.1,6.8,0.4c-0.5,0.1-1.5,0.4-2.1,0.5c0.1,5.8-0.7,11.7-0.4,17.5
			c-1-0.2-1.8-0.6-2.5-1.3c-3.8-3.7-7.5-7.5-11.5-11c0,3.7-0.2,7.4,0.5,11c0.6,0.3,1.8,0.8,2.4,1.1c-2.6,0.2-5.2,0.1-7.7-0.1
			c0.9-0.4,1.8-0.8,2.7-1.2c0-5.8,0.2-11.6,0.4-17.4c5,4,8.8,9.2,13.8,13.1c-0.2-3.8,0.6-7.8-0.5-11.6c-0.5-0.1-1.4-0.4-1.8-0.5
			C-26.6-81.6-26.6-81.8-26.6-81.9z"/>
		<path fill="#FFFFFF" d="M44.5-81.9c2.1,0,4.3,0,6.4,0c-3.5,1.5-5.1,5.3-6.9,8.4c-1.6,2.6-0.8,5.8-0.8,8.7c0.7,0.2,2.2,0.5,2.9,0.6
			c-3.1,0.6-6.2,0.6-9.2,0.1c4-0.1,2.5-4.9,2.3-7.5c-1.9-3.7-3.9-7.6-7.2-10.2c1.8-0.1,3.6-0.2,5.4-0.3c1.1,2.9,2.7,5.7,4.3,8.3
			c1.2-2.1,2.4-4.3,3.7-6.4C45.1-80.7,44.8-81.3,44.5-81.9z"/>
		<g>
			<path fill="#FFFFFF" d="M263.4-82.7c3.4,5.5,4.7,12.1,8,17.6c0.7,0.3,2.1,0.8,2.8,1.1c-2.3,0.2-4.6,0.3-6.8,0.3
				c-0.5-2.1-1.2-4.1-2.1-6.1c-1.7,0-3.4,0.1-5.1,0.1c-0.6,1.5-1.3,2.9-1.9,4.4c0.5,0.3,1.5,1,2,1.4c-2.5,0.1-5,0.1-7.5-0.3
				c0.7-0.2,2.2-0.6,2.9-0.8C258.5-70.8,260.4-77,263.4-82.7z M262.7-76.6c-0.6,1.9-1.2,3.7-1.7,5.6c1.3,0,2.6-0.1,3.9-0.1
				C264.2-73,263.5-74.8,262.7-76.6z"/>
		</g>
		<path fill="#FFFFFF" d="M-15.9-79.1c3.7,0,7.4,0.2,11-0.3c-0.2,1.2-0.4,2.5-0.5,3.7c-0.4-0.7-0.9-1.4-1.3-2c-1.4,0-2.7,0-4.1,0
			c0,1.7,0,3.3,0,5c1.8-0.1,3.7-0.2,5.5-0.4c-0.2,1.4-0.3,2.8-0.5,4.2c-0.5-0.8-1-1.6-1.4-2.4c-1.2-0.1-2.4-0.1-3.6-0.1c0,2,0,4,0,6
			c2.4,0.7,5,0.4,6.2-2.1c-0.1,1.2-0.1,2.5-0.2,3.8c-3.8,0-7.7,0-11.5-0.1c0.6-0.3,1.7-1,2.2-1.4c-0.2-4.3-0.1-8.6-0.1-12.9
			C-14.6-78.4-15.5-78.8-15.9-79.1z"/>
		<path fill="#FFFFFF" d="M-1.9-79.1c1.8,0,3.6,0,5.4-0.1c-0.2,3.6,1.5,7,2.6,10.3c1.4-3.6,2.7-7.2,4.2-10.7c2.8,3,3.5,7.2,5.3,10.7
			c0.9-3,1.9-6,2.8-9c-0.3-0.3-1-1-1.3-1.3c1.9,0.1,3.8,0.1,5.7,0c-0.7,0.4-1.4,0.8-2,1.2c-1.7,4.7-3.3,9.5-5,14.2
			c-0.3,0-1,0.1-1.4,0.1c-1.6-3-2.5-6.9-4.4-9.5c-1.8,2.8-2.5,6.5-4.2,9.5c-0.4,0-1-0.1-1.4-0.2c-1.7-4.6-3.3-9.3-4.9-14
			C-0.8-78.2-1.6-78.8-1.9-79.1z"/>
		<g>
			<path fill="#FFFFFF" d="M73-79c4.2,0.1,8.6-0.8,12.4,1.2c0.8,2.6-0.3,5-2.4,6.7c1.9,2.8,4.1,5.8,7.3,7.2
				c-1.6,0.1-3.4,0.6-4.9-0.1c-3-1.3-3.6-5.6-6.9-6.4c0.1,2.5-1.1,6.6,2.8,6.4c-2.8,0.3-5.6,0.4-8.4,0c0.5-0.2,1.6-0.7,2.2-0.9
				c0-4.4,0-8.8,0-13.2C74.4-78.4,73.7-78.7,73-79z M78.4-77.8c0,2.2,0,4.4,0.1,6.6c3.7,0.5,4.9-3.6,3.1-6.1
				C80.8-77.4,79.2-77.7,78.4-77.8z"/>
		</g>
		<path fill="#FFFFFF" d="M146.2-79.2c3.9,0.2,7.8,0.2,11.7-0.1c-0.3,1.2-0.5,2.4-0.8,3.6c-0.4-2.6-3.1-1.8-5-2.1
			c0,1.7,0,3.4-0.1,5.2c1.8-0.1,3.6-0.2,5.5-0.4c-0.1,1-0.3,2.9-0.4,3.9c-0.9-2.1-2.9-2.5-4.9-2.4c-0.1,2.1-0.1,4.3,0.2,6.4
			c2.4,0.3,4.8,0.2,5.8-2.3c0,0.9,0,2.7,0,3.6c-3.7,0.2-7.4,0-11.1,0.1c0.4-0.5,1.2-1.4,1.6-1.9c0.2-4.2,0-8.4,0-12.5
			C147.9-78.4,147-78.8,146.2-79.2z"/>
		<g>
			<path fill="#FFFFFF" d="M161.9-79.2c5.1,0.6,10.7-1.1,15.3,1.7c4.4,3,3.5,10.4-1.1,12.8c-4.4,2.2-9.4,0.8-14.1,0.9
				c0.5-0.3,1.5-0.8,1.9-1c0.4-4.4,0.2-8.9,0.1-13.3C163.5-78.5,162.4-78.9,161.9-79.2z M167.4-77.7c0.1,4.2-0.2,8.5,0.3,12.7
				c2.5,0.1,5.6,0.6,7.4-1.7c2.1-2.9,1.8-7.7-1.4-9.8C172-78,169.6-77.6,167.4-77.7z"/>
		</g>
		<path fill="#FFFFFF" d="M183.9-79c2.4-0.1,4.8-0.1,7.3,0c-0.7,0.3-1.3,0.7-2,1c0.1,4.3-0.2,8.6,0.2,12.9c0.5,0.3,1.4,1,1.8,1.4
			c-2.4,0-4.9,0-7.3,0.1c0.5-0.4,1.5-1.3,2-1.7c0.1-4.2,0-8.5,0-12.8C185.4-78.4,184.4-78.8,183.9-79z"/>
		<path fill="#FFFFFF" d="M200.1-78.7c3.3-1,7-0.8,10.3,0.1c0,1.5,0.1,3.1,0.2,4.6c-1-1-1.6-2.2-2.3-3.4c-2.6-0.9-5.9-1.4-8,0.8
			c-3.2,4-0.8,11.1,4.6,11.6c2.5,0.6,4.1-1.5,5.7-3c-0.2,0.9-0.7,2.8-1,3.8c-3.6,1-7.8,0.8-11.1-1.1
			C193.7-68.2,194.7-76.8,200.1-78.7z"/>
		<path fill="#FFFFFF" d="M300.1-77.6c3.6-2.6,8.4-1.8,12.5-1.1c-0.1,1.3-0.1,2.7-0.2,4.1c-0.9-0.6-1.6-1.6-2.1-2.5
			c-3-1.6-8.2-1.5-9.2,2.5c-2.1,5.1,2.8,11.1,8.3,9.8c0-1.8,0-3.6,0.1-5.4c-0.9-0.4-1.8-0.8-2.6-1.2c2.4-0.2,4.9-0.3,7.4-0.3
			c-0.4,0.4-1.3,1.3-1.7,1.7c0,1.9,0,3.8,0,5.7c-3.9,1.1-8.4,1.4-12.1-0.7C296.2-67.6,296-74.7,300.1-77.6z"/>
		<path fill="#FFFFFF" d="M333.2-79.1c2.6,0.1,5.3,0.2,7.9-0.2c-0.9,0.7-2.4,1.2-2,2.6c-0.1,3.9-0.1,7.8,0.2,11.7
			c2.6,0.4,5,0,6.3-2.5c-0.1,1.3-0.2,2.6-0.4,3.9c-3.8,0-7.5,0-11.2,0c0.4-0.5,1.2-1.3,1.6-1.8c0.2-4.2,0-8.4,0-12.6
			C334.8-78.4,334-78.8,333.2-79.1z"/>
	</g>
	<g>
		<path fill="#FFFFFF" d="M123.4-82.5c3.7,3.7,4.9,9.2,7.6,13.6c2.5-4.6,4.2-9.6,7.3-13.8c1.7,5.8,1.8,11.9,3.1,17.8
			c1.2,0.2,2.4,0.4,3.6,0.7c-2.4,0.4-4.9,0.6-7.4,0.5c0-3.7-0.8-7.3-1.2-11c-2.1,3.6-3.9,7.4-5.7,11.2c-3.3-2.7-4-7.3-6.3-10.7
			c-0.7,3-1.1,6.1-1.3,9.2c0.6,0.3,1.8,0.8,2.4,1c-2.1,0.1-4.2,0.2-6.3,0.2c0.4-0.4,1.1-1.4,1.5-1.8
			C121.7-71.1,122.3-76.8,123.4-82.5z"/>
		<path fill="#FFFFFF" d="M232-79.1c2.4,0,4.8,0,7.2,0c-0.5,0.2-1.5,0.7-1.9,0.9c0,4.3-0.2,8.7,0.2,13c2.6,0.6,5-0.1,6.7-2.2
			c-0.3,1.2-0.5,2.5-0.8,3.7c-3.9,0-7.7,0.1-11.6-0.2c0.5-0.3,1.6-0.9,2.1-1.1c0-4.3,0-8.7,0-13C233.3-78.4,232.6-78.7,232-79.1z"/>
	</g>
	<g>
		<g>
			<path fill="#FFFFFF" d="M57.5-79c3.7-0.7,8.2-0.6,10.6,2.7c2.7,4,1.2,10.4-3.5,12.1c-3.9,1.4-9.1,1.1-11.6-2.6
				C49.9-71,52.3-77.9,57.5-79z M57.4-77.3c-4.2,3.4-2.2,12.2,3.6,12.4c4.2,0.3,5.6-4.8,4.7-8C65.3-76.5,60.8-79.7,57.4-77.3z"/>
		</g>
	</g>
	<g>
		<path fill="#FFFFFF" d="M91.1-78.9c2.6-0.1,5.3-0.1,7.9-0.4c-2.7,1.1-1.8,4.2-1.6,6.5c1.5-2.1,4.1-3.6,4.5-6.2c1.7,0,3.5,0,5.2,0
			c-3.1,1.5-5.6,3.9-7.8,6.5c2.9,3.4,5.9,7,10,8.8c-2.3,0-5,0.5-6.9-1.2c-2-1.7-3.6-3.9-5.3-5.9c0,2,0,4,0,6
			c0.6,0.2,1.7,0.6,2.3,0.8c-2.5,0.3-5.1,0.3-7.6,0.3c0.5-0.4,1.5-1.2,2-1.6c-0.1-4.3,0-8.6-0.1-12.9C92.8-78.5,91.9-78.7,91.1-78.9
			z"/>
		<path fill="#FFFFFF" d="M287-79.3c2.3,0.3,4.6,0.3,6.9,0.2c-0.8,0.4-1.5,0.8-2.3,1.2c-0.2,4.8,0.1,9.7-0.5,14.4l-0.8,0.1
			c-3.9-3.2-7.4-6.9-11.1-10.4c0,2.9,0,5.8,0.1,8.7c0.5,0.3,1.5,1,2,1.4c-2.2,0.1-4.4,0.1-6.6-0.1c0.5-0.3,1.6-0.8,2.1-1.1
			c0.5-4.9-0.6-10.1,0.9-14.8c4,3.7,7.6,7.7,11.6,11.3C288.8-72,291.3-77.6,287-79.3z"/>
		<path fill="#FFFFFF" d="M317.9-79c3.9-0.1,7.7,0.1,11.6-0.2c-0.2,1.2-0.5,2.4-0.7,3.6c-0.9-2.5-3.3-2.1-5.4-2c0,1.6,0,3.2,0,4.9
			c1.9,0.1,3.9,0,5.8-0.3c-0.2,0.9-0.5,2.7-0.7,3.6c-0.6-0.6-1.2-1.2-1.7-1.9c-1.1,0-2.2,0-3.3,0c0,1.8-0.1,3.6,0.1,5.3
			c0.9,1.4,2.8,0.8,4.2,1c0.7-0.9,1.3-1.7,2-2.6c-0.1,1.3-0.2,2.6-0.3,3.9c-3.8,0-7.7,0-11.5-0.2c0.5-0.3,1.4-0.8,1.9-1.1
			c0.5-4.4,0.1-8.8,0.2-13.2C319.3-78.4,318.6-78.7,317.9-79z"/>
	</g>
	<g>
		<g>
			<path fill="#FFFFFF" d="M220.5-79.8c3.5,4.2,4.6,9.9,7.2,14.7c0.7,0.2,2.1,0.7,2.7,1c-2.1,0.4-4.2,0.5-6.4,0.5
				c-0.3-1.7-0.7-3.3-1.2-4.9c-1.7-0.1-3.3-0.2-5-0.2c-0.6,1.2-1.1,2.4-1.7,3.6c0.5,0.3,1.4,0.9,1.9,1.3c-2,0.1-4.1,0.2-6.1,0.3
				C216.5-67.9,217.3-74.6,220.5-79.8z M220.3-74.6c-0.7,1.5-1.4,3-2.1,4.5c1.2,0,2.5,0,3.7,0C221.4-71.6,220.9-73.1,220.3-74.6z"/>
		</g>
	</g>
	<g>
		<path fill="#FFFFFF" d="M349.7-75.7c0.7-4.3,6.1-3.8,9.3-3.3c0,0.9,0,2.7,0,3.6c-1.6-2.3-4.1-4-6.7-1.9c-0.3,3.1,3.1,3.7,5,5.2
			c2.5,1.5,2.9,5.4,0.6,7.2c-2.4,1.9-5.6,1.3-8.4,0.9c0-1.4,0-2.7,0-4.1c1.2,2.5,5.5,4.9,6.9,1.4C356.9-71.1,348.7-70.6,349.7-75.7z
			"/>
	</g>
	<g>
		<g>
			<path fill="none" stroke="#FFFFFF" stroke-width="2" stroke-miterlimit="10.43" d="M-25.3-247.7c1.5-2.8,3.4-5.4,6.1-7.2
				c8,5.2,15.9,10.3,23.9,15.5c1,0.7,2.3,1.3,3,2.4c-0.3,3.2-1.1,6.2-1.9,9.3c-5.7-2.6-10.6-6.6-15.9-9.9
				C-15.2-241-20.6-243.8-25.3-247.7z"/>
		</g>
		<g>
			<path fill="none" stroke="#FFFFFF" stroke-width="2" stroke-miterlimit="10.43" d="M-31.4-237.6c0.8-2.2,2.1-4.1,3.5-6
				c11,6.2,21.2,13.8,32,20.4c-0.4,2.6-1.4,5-2.7,7.2C-9.6-223.3-20.8-230-31.4-237.6z"/>
			<path fill="none" stroke="#FFFFFF" stroke-width="2" stroke-miterlimit="10.43" d="M-73.8-178c10.7-2.2,21.5-4,32.4-5.7
				c1.7,4.2,2.9,8.7,3.9,13.2c-10.9,3.3-22.3,4.5-33.4,6.9c-16.5,4.2-33.2,10.2-46,21.9c-8.5,7.6-14.6,17.8-17.5,28.9
				c-2.1,7.2-2.3,14.7-2.9,22.2c-4.8-14.5-4-30.9,2.8-44.7c4.9-10.6,13.3-19.3,22.7-26.1C-100.4-169.3-87.3-174.7-73.8-178z"/>
			<path fill="none" stroke="#FFFFFF" stroke-width="2" stroke-miterlimit="10.43" d="M-98-144.1c0.7-3.2,4.2-8.1,7.8-5.4
				c16.3,10.8,32.9,21.2,49.2,32c1.1,0.7,2.3,1.3,3.5,1.9l-0.2,1.1c-0.6,2.7-2,5.2-3.6,7.4c-2.3-2.2-5.1-3.8-7.8-5.5
				C-65.4-123.1-81.5-133.9-98-144.1z"/>
		</g>
		<g>
			<path fill="none" stroke="#FFFFFF" stroke-width="2" stroke-miterlimit="10.43" d="M5.4-211.5c5.1-8.6,6.6-18.6,9.1-28.2
				c2.2,13.7,0.6,28.6-6.8,40.6c-7.2,12.2-19.9,20.1-32.9,24.9c-1.7-4.1-3-8.3-4-12.6C-15.3-190.5-1.4-198.2,5.4-211.5z"/>
			<path fill="none" stroke="#FFFFFF" stroke-width="2" stroke-miterlimit="10.43" d="M-57-159.2c3-2.2,6.7-2.1,10.1-2.7
				c4.6,2.6,8.8,5.9,13.5,8.4c0.6,3.4,0.8,6.9,0.9,10.4c-6.2-2.8-11.5-7.2-17.3-10.7C-52.1-155.6-55.3-156.6-57-159.2z"/>
		</g>
		<g>
			<path fill="none" stroke="#FFFFFF" stroke-width="2" stroke-miterlimit="10.43" d="M-35.4-224.2c0.2-2.2,0.8-4.3,1.5-6.4
				c1.4,0.5,2.7,1,4,1.8c9.2,6,18.4,12.2,27.8,18c-0.8,2.2-3.1,6.3-5.8,4.1C-17.1-212.5-26-218.9-35.4-224.2z"/>
			<path fill="none" stroke="#FFFFFF" stroke-width="2" stroke-miterlimit="10.43" d="M-126.4-118.7c1-2.4,2-4.8,3.5-6.9
				c1.7,0.3,3.1,1.4,4.6,2.3c16.3,10.7,32.7,21.1,48.9,31.8c3.8,2.3,7.2,5.1,11.3,6.9c-2,2.4-4.2,4.8-6.7,6.8
				c-18.5-12.6-37.5-24.5-56.3-36.7C-122.9-115.9-125.3-116.7-126.4-118.7z"/>
		</g>
		<g>
			<path fill="none" stroke="#FFFFFF" stroke-width="2" stroke-miterlimit="10.43" d="M-35.8-217.5l0.5-1
				c7.2,4.9,14.5,9.7,21.8,14.3c0.9,0.7,2.1,1.2,2.6,2.4c-2.1,1.9-5.1,4.9-8.1,3.2c-4.8-2.8-9.4-6.1-14.1-9.1
				c-3-1.4-2.1-5.2-2.8-7.9c0-0.2-0.1-0.7-0.1-0.9C-35.8-216.7-35.8-217.3-35.8-217.5z"/>
			<path fill="none" stroke="#FFFFFF" stroke-width="2" stroke-miterlimit="10.43" d="M-78.6-155.2c3.4-1.3,7.7-3.6,11.1-1
				c11.7,7.4,23.2,15.1,34.8,22.4c-0.1,3-0.6,6-1.7,8.8c-14.9-9-29.2-19.2-44.2-28.2C-78.5-153.7-78.5-154.7-78.6-155.2z"/>
		</g>
		<g>
			<path fill="none" stroke="#FFFFFF" stroke-width="2" stroke-miterlimit="10.43" d="M-109.7-140.3c16.3,10.3,32.4,21,48.7,31.4
				c4.9,3.2,9.9,6.2,14.6,9.7c0,0.3,0,0.9,0,1.2c-1.7,1.9-3.4,3.8-5,5.7c-15.3-10.4-31.1-20.2-46.6-30.4c-5.3-3.1-10.1-7.2-15.7-9.8
				C-113.2-135.4-111.1-137.7-109.7-140.3z"/>
		</g>
		<g>
			<path fill="none" stroke="#FFFFFF" stroke-width="2" stroke-miterlimit="10.43" d="M-129.2-110.4c2.2,0.4,4,1.9,5.9,3.1
				c16.4,10.7,32.8,21.3,49.3,31.8c1.2,0.8,2.3,1.8,3.4,2.7c-2,2.2-4.4,3.9-6.9,5.6c-15-9.6-29.8-19.5-44.9-29.1
				c-2.7-1.9-5.7-3.3-8-5.6C-130.5-104.9-129.7-107.6-129.2-110.4z"/>
		</g>
		<g>
			<path fill="none" stroke="#FFFFFF" stroke-width="2" stroke-miterlimit="10.43" d="M-18.1-273.5c8.9,0,17.7,1.4,26.5,1.7
				c-1.9,2.8-4.7,4.8-7,7.1c-4.4,3.8-8.2,8.2-12.9,11.7c0.2-2.9,0.6-5.8,0.9-8.6c-3.3,1.6-5.7,4.6-8.6,6.7c-2.7,1.7-4.6,4.4-6.1,7.2
				c-0.8,1.4-1.8,2.7-2.7,4c-1.4,1.9-2.6,3.9-3.5,6c-0.8,2.3-1.6,4.7-2.4,7.1c-0.7,2.1-1.3,4.2-1.5,6.4c-0.1,2.2-0.2,4.5-0.4,6.7
				c0,0.3-0.1,0.8-0.1,1c0,0.2,0.1,0.7,0.1,0.9c0.3,9.9,3.9,19.3,6.6,28.8c1,4.3,2.3,8.6,4,12.6c5.3,15.9,7.5,33.4,2.5,49.7
				c-6.9,22.8-23.9,41.8-44.6,53.2c-4.2,2.2-8.1,4.9-12.6,6.3c0.7-0.9,1.4-1.7,2.3-2.3c2.5-1.6,4.9-3.3,6.9-5.6c1.7-2,3.8-3.5,5.9-5
				c2.5-1.9,4.7-4.3,6.7-6.8c2.1-2.6,4.4-5.1,6.7-7.6c1.7-1.9,3.3-3.8,5-5.7c0-0.3,0-0.9,0-1.2c1.7-2.6,3.3-5.3,5.1-7.9
				c1.6-2.3,3-4.7,3.6-7.4c1.1-3.5,2.2-7,3.4-10.4c1.1-2.8,1.7-5.8,1.7-8.8c0.1-3.1,0.3-6.2,0.2-9.4c-0.1-3.5-0.3-7-0.9-10.4
				c-1.3-5.7-2.9-11.3-4.2-17c-1-4.5-2.2-8.9-3.9-13.2c-4.5-13.1-7.5-27.3-4.4-41.1c2.5-10.9,8.3-21,16.1-29
				c5.4-5.3,11.9-9.3,18.7-12.6C-12.5-269.3-16.1-270.8-18.1-273.5z"/>
		</g>
	</g>
</g>
<g>
	<g>
		<g>
			<path fill="none" stroke="#FFFFFF" stroke-width="2" stroke-miterlimit="10.43" d="M28.9,7.2c0.4-0.7,0.8-1.3,1.5-1.7
				c1.9,1.3,3.9,2.5,5.8,3.7c0.2,0.2,0.5,0.3,0.7,0.6c-0.1,0.8-0.3,1.5-0.5,2.3c-1.4-0.6-2.6-1.6-3.9-2.4C31.3,8.9,30,8.2,28.9,7.2z
				"/>
		</g>
		<g>
			<path fill="none" stroke="#FFFFFF" stroke-width="2" stroke-miterlimit="10.43" d="M27.4,9.7c0.2-0.5,0.5-1,0.8-1.5
				c2.7,1.5,5.1,3.3,7.8,4.9c-0.1,0.6-0.3,1.2-0.7,1.7C32.7,13.1,29.9,11.5,27.4,9.7z"/>
			<path fill="none" stroke="#FFFFFF" stroke-width="2" stroke-miterlimit="10.43" d="M17.1,24.1c2.6-0.5,5.2-1,7.8-1.4
				c0.4,1,0.7,2.1,0.9,3.2c-2.6,0.8-5.4,1.1-8.1,1.7c-4,1-8,2.5-11.1,5.3c-2.1,1.8-3.5,4.3-4.2,7c-0.5,1.7-0.6,3.6-0.7,5.4
				c-1.2-3.5-1-7.5,0.7-10.8c1.2-2.6,3.2-4.7,5.5-6.3C10.7,26.2,13.8,24.9,17.1,24.1z"/>
			<path fill="none" stroke="#FFFFFF" stroke-width="2" stroke-miterlimit="10.43" d="M11.3,32.3c0.2-0.8,1-2,1.9-1.3
				c4,2.6,8,5.1,11.9,7.7c0.3,0.2,0.6,0.3,0.8,0.5l0,0.3c-0.1,0.7-0.5,1.2-0.9,1.8c-0.6-0.5-1.2-0.9-1.9-1.3
				C19.1,37.4,15.2,34.8,11.3,32.3z"/>
		</g>
		<g>
			<path fill="none" stroke="#FFFFFF" stroke-width="2" stroke-miterlimit="10.43" d="M36.3,16c1.2-2.1,1.6-4.5,2.2-6.8
				c0.5,3.3,0.1,6.9-1.6,9.8c-1.7,3-4.8,4.9-8,6c-0.4-1-0.7-2-1-3.1C31.3,21.1,34.7,19.2,36.3,16z"/>
			<path fill="none" stroke="#FFFFFF" stroke-width="2" stroke-miterlimit="10.43" d="M21.2,28.7c0.7-0.5,1.6-0.5,2.5-0.7
				c1.1,0.6,2.1,1.4,3.3,2c0.1,0.8,0.2,1.7,0.2,2.5c-1.5-0.7-2.8-1.7-4.2-2.6C22.4,29.6,21.6,29.3,21.2,28.7z"/>
		</g>
		<g>
			<path fill="none" stroke="#FFFFFF" stroke-width="2" stroke-miterlimit="10.43" d="M26.4,12.9c0.1-0.5,0.2-1,0.4-1.5
				c0.3,0.1,0.7,0.2,1,0.4c2.2,1.5,4.5,3,6.7,4.4c-0.2,0.5-0.8,1.5-1.4,1C30.8,15.8,28.7,14.2,26.4,12.9z"/>
			<path fill="none" stroke="#FFFFFF" stroke-width="2" stroke-miterlimit="10.43" d="M4.4,38.5c0.2-0.6,0.5-1.2,0.9-1.7
				c0.4,0.1,0.8,0.3,1.1,0.6c3.9,2.6,7.9,5.1,11.9,7.7c0.9,0.6,1.8,1.2,2.7,1.7c-0.5,0.6-1,1.2-1.6,1.6c-4.5-3.1-9.1-5.9-13.6-8.9
				C5.2,39.2,4.6,39,4.4,38.5z"/>
		</g>
		<g>
			<path fill="none" stroke="#FFFFFF" stroke-width="2" stroke-miterlimit="10.43" d="M26.3,14.5l0.1-0.2c1.7,1.2,3.5,2.3,5.3,3.5
				c0.2,0.2,0.5,0.3,0.6,0.6c-0.5,0.5-1.2,1.2-2,0.8c-1.2-0.7-2.3-1.5-3.4-2.2c-0.7-0.3-0.5-1.3-0.7-1.9c0-0.1,0-0.2,0-0.2
				C26.3,14.7,26.3,14.6,26.3,14.5z"/>
			<path fill="none" stroke="#FFFFFF" stroke-width="2" stroke-miterlimit="10.43" d="M16,29.7c0.8-0.3,1.9-0.9,2.7-0.2
				c2.8,1.8,5.6,3.6,8.4,5.4c0,0.7-0.2,1.5-0.4,2.1c-3.6-2.2-7.1-4.6-10.7-6.8C16,30,16,29.8,16,29.7z"/>
		</g>
		<g>
			<path fill="none" stroke="#FFFFFF" stroke-width="2" stroke-miterlimit="10.43" d="M8.4,33.3c4,2.5,7.9,5.1,11.8,7.6
				c1.2,0.8,2.4,1.5,3.5,2.4c0,0.1,0,0.2,0,0.3c-0.4,0.5-0.8,0.9-1.2,1.4c-3.7-2.5-7.5-4.9-11.3-7.4c-1.3-0.8-2.4-1.8-3.8-2.4
				C7.6,34.4,8.1,33.9,8.4,33.3z"/>
		</g>
		<g>
			<path fill="none" stroke="#FFFFFF" stroke-width="2" stroke-miterlimit="10.43" d="M3.7,40.5c0.5,0.1,1,0.5,1.4,0.7
				c4,2.6,7.9,5.2,11.9,7.7c0.3,0.2,0.5,0.4,0.8,0.7c-0.5,0.5-1.1,1-1.7,1.3c-3.6-2.3-7.2-4.7-10.9-7c-0.6-0.5-1.4-0.8-1.9-1.4
				C3.4,41.8,3.6,41.2,3.7,40.5z"/>
		</g>
		<g>
			<path fill="none" stroke="#FFFFFF" stroke-width="2" stroke-miterlimit="10.43" d="M30.6,1c2.2,0,4.3,0.3,6.4,0.4
				c-0.5,0.7-1.1,1.2-1.7,1.7c-1.1,0.9-2,2-3.1,2.8c0.1-0.7,0.1-1.4,0.2-2.1c-0.8,0.4-1.4,1.1-2.1,1.6c-0.7,0.4-1.1,1.1-1.5,1.7
				c-0.2,0.3-0.4,0.7-0.7,1c-0.3,0.5-0.6,0.9-0.8,1.5c-0.2,0.6-0.4,1.1-0.6,1.7c-0.2,0.5-0.3,1-0.4,1.5c0,0.5,0,1.1-0.1,1.6
				c0,0.1,0,0.2,0,0.3c0,0.1,0,0.2,0,0.2c0.1,2.4,1,4.7,1.6,7c0.3,1,0.6,2.1,1,3.1c1.3,3.8,1.8,8.1,0.6,12
				c-1.7,5.5-5.8,10.1-10.8,12.9c-1,0.5-2,1.2-3,1.5c0.2-0.2,0.3-0.4,0.6-0.6c0.6-0.4,1.2-0.8,1.7-1.3c0.4-0.5,0.9-0.8,1.4-1.2
				c0.6-0.5,1.1-1,1.6-1.6c0.5-0.6,1.1-1.2,1.6-1.8c0.4-0.5,0.8-0.9,1.2-1.4c0-0.1,0-0.2,0-0.3c0.4-0.6,0.8-1.3,1.2-1.9
				c0.4-0.6,0.7-1.1,0.9-1.8c0.3-0.8,0.5-1.7,0.8-2.5c0.3-0.7,0.4-1.4,0.4-2.1c0-0.8,0.1-1.5,0-2.3c0-0.8-0.1-1.7-0.2-2.5
				c-0.3-1.4-0.7-2.7-1-4.1c-0.2-1.1-0.5-2.2-0.9-3.2c-1.1-3.2-1.8-6.6-1.1-9.9c0.6-2.6,2-5.1,3.9-7c1.3-1.3,2.9-2.2,4.5-3
				C32,2,31.1,1.6,30.6,1z"/>
		</g>
	</g>
</g>
</svg>
