<?xml version="1.0" encoding="utf-8"?>
<!-- Generator: Adobe Illustrator 18.0.0, SVG Export Plug-In . SVG Version: 6.00 Build 0)  -->
<!DOCTYPE svg PUBLIC "-//W3C//DTD SVG 1.1//EN" "http://www.w3.org/Graphics/SVG/1.1/DTD/svg11.dtd" [
	<!ENTITY ns_extend "http://ns.adobe.com/Extensibility/1.0/">
	<!ENTITY ns_ai "http://ns.adobe.com/AdobeIllustrator/10.0/">
	<!ENTITY ns_graphs "http://ns.adobe.com/Graphs/1.0/">
	<!ENTITY ns_vars "http://ns.adobe.com/Variables/1.0/">
	<!ENTITY ns_imrep "http://ns.adobe.com/ImageReplacement/1.0/">
	<!ENTITY ns_sfw "http://ns.adobe.com/SaveForWeb/1.0/">
	<!ENTITY ns_custom "http://ns.adobe.com/GenericCustomNamespace/1.0/">
	<!ENTITY ns_adobe_xpath "http://ns.adobe.com/XPath/1.0/">
]>
<svg version="1.1" id="Layer_1" xmlns:x="&ns_extend;" xmlns:i="&ns_ai;" xmlns:graph="&ns_graphs;"
	 xmlns="http://www.w3.org/2000/svg" xmlns:xlink="http://www.w3.org/1999/xlink" x="0px" y="0px" viewBox="0 0 566 238"
	 enable-background="new 0 0 566 238" xml:space="preserve">
<metadata>
	<sfw  xmlns="&ns_sfw;">
		<slices></slices>
		<sliceSourceBounds  height="888.7" width="1944" x="99.4" y="-244.8" bottomLeftOrigin="true"></sliceSourceBounds>
		<optimizationSettings>
			<targetSettings  fileFormat="PNG24Format" targetSettingsID="0">
				<PNG24Format  transparency="true" interlaced="false" matteColor="#FFFFFF" noMatteColor="false" filtered="false">
					</PNG24Format>
			</targetSettings>
		</optimizationSettings>
	</sfw>
</metadata>
<g>
	<path fill="none" stroke="#24ABE2" stroke-width="2" stroke-miterlimit="10.43" d="M157.4-642.4c1.5-2.8,3.4-5.4,6.1-7.2
		c8,5.2,15.9,10.3,23.9,15.5c1,0.7,2.3,1.3,2.9,2.5c-0.3,3.2-1.1,6.2-1.9,9.3c-5.7-2.6-10.6-6.6-15.9-9.9
		C167.5-635.7,162.1-638.5,157.4-642.4z"/>
</g>
<g>
	<path fill="none" stroke="#25AAE2" stroke-width="2" stroke-miterlimit="10.43" d="M151.2-632.4c0.8-2.2,2.1-4.2,3.5-6
		c11,6.2,21.2,13.8,32,20.4c-0.4,2.6-1.4,5-2.7,7.2C173.1-618.1,161.9-624.8,151.2-632.4z"/>
	<path fill="none" stroke="#25AAE2" stroke-width="2" stroke-miterlimit="10.43" d="M108.9-572.7c10.7-2.2,21.6-3.9,32.4-5.7
		c1.7,4.2,2.9,8.7,3.9,13.2c-10.9,3.3-22.3,4.5-33.4,6.9c-16.5,4.2-33.2,10.2-46,21.9c-8.6,7.6-14.6,17.8-17.5,28.9
		c-2.1,7.2-2.3,14.7-2.9,22.2c-4.8-14.5-4-30.9,2.8-44.7c4.9-10.7,13.3-19.3,22.7-26.1C82.3-564,95.4-569.4,108.9-572.7z"/>
	<path fill="none" stroke="#25AAE2" stroke-width="2" stroke-miterlimit="10.43" d="M84.7-538.8c0.7-3.2,4.2-8.1,7.8-5.4
		c16.3,10.8,32.9,21.2,49.2,32c1.1,0.7,2.3,1.3,3.5,1.9l-0.2,1.1c-0.6,2.7-2,5.1-3.6,7.4c-2.3-2.2-5.1-3.8-7.8-5.5
		C117.3-517.8,101.2-528.6,84.7-538.8z"/>
</g>
<g>
	<path fill="none" stroke="#24AAE2" stroke-width="2" stroke-miterlimit="10.43" d="M188.1-606.3c5.1-8.6,6.6-18.6,9.1-28.2
		c2.2,13.7,0.6,28.6-6.8,40.6c-7.2,12.2-19.9,20.1-32.9,24.9c-1.7-4.1-3-8.3-4-12.6C167.4-585.3,181.3-593,188.1-606.3z"/>
	<path fill="none" stroke="#24AAE2" stroke-width="2" stroke-miterlimit="10.43" d="M125.7-554c3-2.1,6.7-2.1,10.1-2.7
		c4.6,2.7,8.8,5.9,13.5,8.5c0.6,3.4,0.8,6.9,0.9,10.4c-6.2-2.8-11.5-7.2-17.3-10.7C130.6-550.3,127.4-551.3,125.7-554z"/>
</g>
<g>
	<path fill="none" stroke="#25ABE3" stroke-width="2" stroke-miterlimit="10.43" d="M147.3-619c0.2-2.2,0.8-4.3,1.5-6.4
		c1.4,0.5,2.7,1,4,1.8c9.2,6,18.4,12.2,27.8,18c-0.8,2.2-3.1,6.3-5.8,4.1C165.6-607.2,156.7-613.6,147.3-619z"/>
	<path fill="none" stroke="#25ABE3" stroke-width="2" stroke-miterlimit="10.43" d="M56.2-513.4c1-2.4,2-4.8,3.5-6.9
		c1.7,0.3,3.1,1.4,4.6,2.3c16.3,10.7,32.7,21.1,48.9,31.8c3.8,2.3,7.2,5.1,11.3,6.9c-2,2.4-4.2,4.8-6.7,6.8
		c-18.5-12.6-37.5-24.5-56.3-36.7C59.8-510.6,57.4-511.4,56.2-513.4z"/>
</g>
<g>
	<path fill="none" stroke="#24ABE3" stroke-width="2" stroke-miterlimit="10.43" d="M146.9-612.3l0.5-1c7.2,4.9,14.5,9.7,21.9,14.3
		c0.9,0.7,2.1,1.2,2.6,2.4c-2.1,1.9-5.1,5-8.1,3.2c-4.8-2.8-9.4-6.1-14.1-9.1c-3-1.4-2.1-5.2-2.8-7.9c0-0.2-0.1-0.7-0.1-0.9
		C146.8-611.5,146.9-612,146.9-612.3z"/>
	<path fill="none" stroke="#24ABE3" stroke-width="2" stroke-miterlimit="10.43" d="M104.1-549.9c3.4-1.3,7.7-3.6,11.1-1
		c11.7,7.4,23.2,15.1,34.8,22.4c-0.1,3-0.6,6-1.7,8.8c-14.9-9.1-29.2-19.2-44.2-28.2C104.2-548.4,104.1-549.4,104.1-549.9z"/>
</g>
<g>
	<path fill="#1D598F" d="M182-568.5c1.2,0.3,2.6,0.4,3.3,1.5c18.2,19.5,37.4,38,55.8,57.4c-0.6-16.1-0.5-32.2-1.2-48.3
		c0-2.9-1.6-6-4.8-6.1c-1.9-0.7-6.5,0.9-5.4-2.5c4.3-0.7,8.7-0.1,13-0.1c5,0.1,10.1-0.6,15.1,0c0,3.5-4.1,1.8-6.2,2.9
		c-2.9,1.6-2.4,5.4-2.7,8.2c0,13-0.5,26-0.6,39c-0.4,9.4,0.1,18.8-0.8,28.1c-2.1,1.6-4.1-1-5.7-2.2c-13.2-13.1-26.4-26.3-39.5-39.5
		c-4.7-4.7-8.9-10.1-14-14.4c0.2,11,0.6,22,0.8,33c0.3,6.2-0.2,12.6,2.1,18.4c2.7,1.4,5.7,1.2,8.6,1.8l0.6,1c-1.6,2-4.4,1.1-6.6,1.3
		c-7.4-0.5-14.8,0.1-22.2-0.1c-0.1-0.5-0.4-1.5-0.6-2c2.7-0.7,6-0.1,8.2-2.1c1.8-3.8,1.1-8.1,1.5-12.2c0-16,0.5-32,0.7-48.1
		C181.7-558.5,180.7-563.6,182-568.5z"/>
	<path fill="#1D598F" d="M366.7-565.5c0.3-1,0.4-3.2,2.1-2.7c1.5-0.4,2,1.2,2.6,2.2c9.4,18.9,18.4,38,28,56.8
		c9.5-19.1,18.5-38.5,28-57.6c0.6-2.2,3.7-1.7,3.9,0.4c3.6,22.3,6.6,44.6,10.1,66.9c0.5,3.2,1.7,7.1,5.5,7.5
		c2.4,1.1,6.7-0.8,7.3,2.7c-2.7,0.6-5.5,0.7-8.3,0.4c-6.3-0.4-12.6,0.4-18.8-0.9c-0.6-1.4,0.5-2.3,1.4-3.2c0.1-3.8-0.8-7.5-1.2-11.2
		c-1.6-11.7-3.2-23.4-4.8-35.2c-7.7,14.6-14.6,29.8-22,44.6c-1.1,2-1.8,4.3-3.5,5.8c-1.6,0.6-2.3-1.4-3.1-2.4
		c-8.3-15.4-15.7-31.3-23.5-47c-1.9,13.1-3.6,26.1-5.3,39.2c-0.1,2.5-1.1,6.8,2.5,7.1c1.9,0.9,6.3-0.6,5.9,2.4
		c-2.7,1.2-5.8,0.5-8.7,0.5c-5.5-0.4-11.1,0.4-16.6,0c-1.6-3.2,2.6-2.2,4.4-2.7c2.6-0.4,3.2-3.5,3.7-5.6
		C359.8-520.2,363.1-542.9,366.7-565.5z"/>
	<g>
		<path fill="#1D598F" d="M495.5-567.9c1.7-1.2,3.4,0.1,3.8,1.8c9.1,21.4,17.4,43.1,26.5,64.5c1.3,2.9,2.8,5.8,5.1,8
			c2.4,2.2,6,1.8,9,2.2c-0.1,0.4-0.4,1.4-0.6,1.8c-4.7,1-9.6,0.4-14.5,0.4c-4.3-0.3-8.6,0.3-12.9-0.6c-0.7-1.8,1.4-1.9,2.5-2.6
			c-2.5-7.7-5.8-15-8.5-22.6c-7.9-0.3-15.8-0.1-23.6-0.1c-1.9,4.9-3.8,9.8-5.8,14.7c-1,2.7-2.2,5.7-0.6,8.5c1.9,0.5,7.3-0.9,5.9,2.5
			c-5,0.7-10.1-0.2-15.2,0.1c-3.9-0.2-8,1-11.8-0.4c0-0.4,0.1-1.1,0.1-1.5c2.6-0.8,5.7-0.3,8.1-1.9c2.5-2,3.8-5.1,5-8
			c7.7-19.2,15.5-38.4,23.3-57.6C492.7-561.7,493.8-565,495.5-567.9z M490.9-537.4c-2,5.5-4.2,11-6.1,16.6c6.3-0.1,12.5,0,18.8-0.1
			c-3-8.3-6-16.6-9.1-24.9C492.7-543.3,492-540.2,490.9-537.4z"/>
	</g>
	<path fill="#1D598F" d="M266-566.2c3.4-1.2,7.2-0.2,10.8-0.4c5.7,0.3,11.4-0.6,17.1,0.1c1.3,2.7-3.4,1.8-3.5,4
		c0.4,1.7,1.2,3.2,2,4.7c5.2,9.3,10.5,18.6,15.9,27.9c4.8-7.7,8.9-15.8,13.4-23.7c1.4-3,3.7-6.1,2.8-9.6c-1.3-1.2-4.4-0.9-3.6-3.3
		c6.7-0.6,13.4,0.3,20.1-0.3c1.6,0.1,5.1-0.7,4.7,1.9c-2.8,0.8-6,0.9-8.3,2.8c-4.6,4-7.4,9.5-10.6,14.5c-4.1,6.9-8.4,13.7-12,20.9
		c-2.8,5.3-1.5,11.5-1.8,17.2c0.3,5.6-0.9,11.4,1.4,16.7c3.1,1,6.3,1.2,9.6,1.3c-0.1,0.6-0.2,1.8-0.3,2.4c-8.9,0.2-17.8-0.5-26.7,0
		c-2.2-0.2-5.5,0.9-6.7-1.5c2.2-2.2,7.2,0,8.2-3.8c1.3-6.2,0.8-12.7,0.9-19c0.1-4.7-0.4-9.5-2.8-13.6c-3.9-6.8-8-13.4-12.1-20
		c-3.4-5.1-6.1-10.9-10.9-14.9c-2-1.8-4.8-2-7.3-2.8C266-565.1,266-565.9,266-566.2z"/>
</g>
<g>
	<path fill="none" stroke="#25ABE2" stroke-width="2" stroke-miterlimit="10.43" d="M73-535c16.4,10.3,32.4,21,48.7,31.4
		c4.9,3.2,9.9,6.2,14.6,9.7c0,0.3,0,0.9,0,1.2c-1.7,1.9-3.4,3.8-5,5.7c-15.3-10.4-31.1-20.2-46.6-30.4c-5.3-3.1-10.1-7.2-15.7-9.8
		C69.4-530.2,71.6-532.4,73-535z"/>
</g>
<g>
	<path fill="none" stroke="#25AAE3" stroke-width="2" stroke-miterlimit="10.43" d="M53.5-505.2c2.2,0.4,4,1.9,5.9,3.1
		c16.4,10.7,32.8,21.3,49.3,31.8c1.2,0.8,2.3,1.8,3.4,2.7c-2,2.2-4.4,3.9-6.9,5.6c-15-9.6-29.8-19.5-44.9-29.1
		c-2.7-1.9-5.7-3.3-8-5.6C52.2-499.6,53-502.4,53.5-505.2z"/>
</g>
<g>
	<path fill="#040404" d="M156.1-476.7c2.2,0,4.5-0.1,6.8,0.4c-0.5,0.1-1.5,0.4-2.1,0.5c0.1,5.9-0.7,11.7-0.4,17.5
		c-1-0.2-1.8-0.6-2.5-1.3c-3.8-3.7-7.5-7.5-11.5-11c0,3.6-0.2,7.4,0.5,11c0.6,0.3,1.8,0.8,2.4,1.1c-2.6,0.2-5.2,0.1-7.7-0.1
		c0.9-0.4,1.8-0.8,2.6-1.2c0-5.8,0.2-11.6,0.4-17.4c5,4,8.8,9.1,13.8,13.1c-0.2-3.8,0.6-7.8-0.5-11.6c-0.4-0.1-1.3-0.4-1.8-0.5
		C156.1-476.3,156.1-476.6,156.1-476.7z"/>
	<path fill="#040404" d="M227.2-476.6c2.1,0,4.3,0,6.4,0c-3.6,1.5-5.1,5.3-6.9,8.4c-1.6,2.6-0.8,5.8-0.8,8.7
		c0.7,0.2,2.2,0.5,2.9,0.6c-3.1,0.6-6.2,0.6-9.2,0.1c4-0.1,2.5-4.9,2.3-7.5c-1.9-3.7-3.8-7.6-7.2-10.2c1.8-0.1,3.6-0.2,5.4-0.3
		c1.1,2.9,2.7,5.7,4.3,8.3c1.2-2.1,2.4-4.3,3.6-6.4C227.8-475.4,227.5-476,227.2-476.6z"/>
	<g>
		<path fill="#040404" d="M446.1-477.4c3.4,5.5,4.7,12.1,8,17.6c0.7,0.3,2.1,0.8,2.8,1.1c-2.3,0.2-4.6,0.3-6.8,0.3
			c-0.5-2.1-1.2-4.1-2.1-6.1c-1.7,0-3.4,0.1-5.1,0.1c-0.6,1.5-1.3,2.9-1.9,4.4c0.5,0.4,1.5,1,1.9,1.4c-2.5,0.1-5,0.1-7.5-0.3
			c0.7-0.2,2.2-0.6,2.9-0.8C441.2-465.5,443.1-471.7,446.1-477.4z M445.4-471.4c-0.6,1.9-1.2,3.7-1.7,5.6c1.3,0,2.6-0.1,3.9-0.1
			C446.9-467.7,446.2-469.5,445.4-471.4z"/>
	</g>
	<path fill="#040404" d="M166.8-473.8c3.7,0,7.4,0.2,11-0.3c-0.2,1.2-0.4,2.5-0.5,3.7c-0.4-0.7-0.9-1.4-1.3-2c-1.4,0-2.7,0-4.1,0
		c0,1.7,0,3.4,0,5c1.8-0.1,3.7-0.2,5.5-0.4c-0.2,1.4-0.3,2.8-0.5,4.2c-0.5-0.8-1-1.6-1.4-2.4c-1.2,0-2.4-0.1-3.6-0.1c0,2,0,4,0,6
		c2.4,0.7,5,0.4,6.2-2.1c-0.1,1.2-0.1,2.5-0.2,3.8c-3.8,0.1-7.7,0.1-11.5-0.1c0.6-0.4,1.7-1,2.2-1.4c-0.2-4.3-0.1-8.6-0.1-12.9
		C168.1-473.1,167.2-473.6,166.8-473.8z"/>
	<path fill="#040404" d="M180.7-473.8c1.8,0,3.6,0,5.4-0.1c-0.1,3.6,1.5,7,2.7,10.3c1.4-3.6,2.7-7.2,4.2-10.7
		c2.8,3,3.5,7.2,5.3,10.7c0.9-3,1.9-6,2.8-9c-0.3-0.3-1-1-1.3-1.3c1.9,0.1,3.8,0.1,5.7,0c-0.7,0.4-1.4,0.8-2,1.2
		c-1.7,4.7-3.3,9.5-5,14.2c-0.3,0-1,0.1-1.4,0.1c-1.6-3-2.5-6.9-4.4-9.5c-1.8,2.8-2.5,6.5-4.2,9.5c-0.4,0-1-0.1-1.4-0.2
		c-1.7-4.6-3.3-9.3-4.9-14C181.9-472.9,181.1-473.5,180.7-473.8z"/>
	<g>
		<path fill="#040404" d="M255.6-473.8c4.2,0.1,8.6-0.8,12.4,1.2c0.8,2.6-0.3,5-2.4,6.6c1.9,2.9,4.1,5.8,7.3,7.2
			c-1.6,0.1-3.4,0.6-4.9-0.1c-3-1.3-3.6-5.6-6.9-6.4c0.1,2.5-1.1,6.6,2.8,6.5c-2.8,0.3-5.6,0.4-8.4,0c0.5-0.2,1.6-0.7,2.1-0.9
			c0-4.4,0-8.8,0-13.2C257-473.1,256.3-473.5,255.6-473.8z M261.1-472.6c0,2.2,0,4.4,0.1,6.6c3.7,0.5,4.9-3.6,3.1-6.1
			C263.5-472.2,261.9-472.4,261.1-472.6z"/>
	</g>
	<path fill="#040404" d="M328.9-473.9c3.9,0.2,7.8,0.2,11.7-0.1c-0.3,1.2-0.5,2.4-0.8,3.6c-0.4-2.6-3.1-1.8-5-2.1
		c0,1.7,0,3.4-0.1,5.2c1.8-0.1,3.6-0.2,5.5-0.4c-0.1,1-0.3,2.9-0.4,3.9c-0.9-2.1-2.9-2.5-4.9-2.4c-0.1,2.1-0.1,4.3,0.2,6.4
		c2.4,0.3,4.8,0.1,5.8-2.4c0,0.9,0,2.7,0,3.6c-3.7,0.2-7.4,0-11.1,0.1c0.4-0.5,1.2-1.4,1.6-1.9c0.2-4.2,0-8.4,0-12.5
		C330.6-473.2,329.7-473.6,328.9-473.9z"/>
	<g>
		<path fill="#040404" d="M344.6-473.9c5.1,0.6,10.7-1.1,15.3,1.7c4.4,3,3.5,10.4-1.1,12.8c-4.4,2.2-9.4,0.8-14.1,0.9
			c0.5-0.3,1.5-0.8,1.9-1c0.4-4.4,0.2-8.9,0.1-13.3C346.1-473.2,345.1-473.7,344.6-473.9z M350.1-472.4c0.1,4.2-0.2,8.5,0.3,12.7
			c2.5,0,5.6,0.5,7.4-1.7c2.1-2.9,1.8-7.7-1.4-9.8C354.7-472.7,352.3-472.3,350.1-472.4z"/>
	</g>
	<path fill="#040404" d="M366.6-473.8c2.4-0.1,4.8-0.1,7.3,0c-0.7,0.3-1.3,0.7-2,1c0.1,4.3-0.2,8.6,0.2,12.9c0.5,0.3,1.4,1,1.8,1.4
		c-2.4,0-4.9,0-7.3,0.1c0.5-0.4,1.5-1.3,2-1.7c0.1-4.2,0-8.5,0-12.8C368.1-473.1,367.1-473.6,366.6-473.8z"/>
	<path fill="#040404" d="M382.8-473.4c3.3-1,7-0.8,10.3,0.1c0,1.5,0.1,3.1,0.2,4.6c-1-1-1.6-2.2-2.3-3.4c-2.6-0.9-5.9-1.5-8,0.8
		c-3.2,4-0.8,11.1,4.6,11.6c2.5,0.6,4.1-1.5,5.7-3c-0.2,1-0.7,2.9-1,3.8c-3.6,1-7.8,0.8-11.1-1.1
		C376.4-462.9,377.4-471.5,382.8-473.4z"/>
	<path fill="#040404" d="M482.8-472.3c3.6-2.6,8.4-1.8,12.5-1.1c-0.1,1.3-0.1,2.7-0.2,4.1c-0.9-0.6-1.6-1.6-2.1-2.5
		c-3-1.6-8.2-1.5-9.2,2.5c-2.1,5.1,2.8,11.1,8.3,9.8c0-1.8,0-3.6,0.1-5.4c-0.9-0.4-1.8-0.8-2.6-1.1c2.5-0.2,4.9-0.3,7.4-0.3
		c-0.4,0.4-1.3,1.3-1.7,1.7c0,1.9,0,3.8,0,5.7c-3.9,1.1-8.4,1.4-12.1-0.7C478.9-462.3,478.6-469.5,482.8-472.3z"/>
	<path fill="#040404" d="M515.9-473.9c2.6,0.1,5.3,0.2,7.9-0.2c-0.9,0.7-2.4,1.2-2,2.6c-0.1,3.9-0.1,7.8,0.2,11.7
		c2.6,0.4,5,0,6.3-2.5c-0.1,1.3-0.2,2.6-0.4,3.9c-3.8,0-7.5,0-11.2,0c0.4-0.5,1.2-1.4,1.6-1.8c0.2-4.2,0-8.4,0-12.6
		C517.5-473.2,516.7-473.5,515.9-473.9z"/>
</g>
<g>
	<path fill="#050505" d="M306-477.2c3.7,3.7,4.9,9.2,7.6,13.6c2.5-4.6,4.2-9.6,7.3-13.8c1.7,5.8,1.8,11.9,3.1,17.8
		c1.2,0.2,2.4,0.5,3.6,0.7c-2.4,0.4-4.9,0.5-7.4,0.4c0-3.7-0.8-7.3-1.2-10.9c-2.1,3.6-3.9,7.4-5.7,11.2c-3.3-2.7-4-7.3-6.3-10.6
		c-0.7,3-1.1,6.1-1.3,9.2c0.6,0.3,1.8,0.8,2.4,1c-2.1,0.1-4.2,0.2-6.3,0.2c0.4-0.4,1.1-1.4,1.5-1.8C304.4-465.8,305-471.6,306-477.2
		z"/>
	<path fill="#050505" d="M414.7-473.8c2.4,0,4.8,0,7.2,0c-0.5,0.2-1.5,0.7-2,0.9c0,4.3-0.2,8.7,0.2,13c2.6,0.6,5-0.1,6.7-2.2
		c-0.3,1.2-0.5,2.5-0.8,3.7c-3.9-0.1-7.7,0-11.6-0.2c0.5-0.3,1.6-0.9,2.1-1.2c0-4.3,0-8.7,0-13C416-473.1,415.3-473.5,414.7-473.8z"
		/>
</g>
<g>
	<g>
		<path fill="#020202" d="M240.2-473.7c3.7-0.7,8.2-0.6,10.7,2.7c2.7,4,1.2,10.4-3.5,12.1c-3.9,1.4-9.1,1.1-11.6-2.6
			C232.6-465.7,235-472.6,240.2-473.7z M240.1-472c-4.2,3.5-2.2,12.2,3.6,12.5c4.2,0.4,5.6-4.8,4.8-8
			C248-471.2,243.4-474.5,240.1-472z"/>
	</g>
</g>
<g>
	<path fill="#030303" d="M273.8-473.7c2.6-0.1,5.3-0.1,7.9-0.4c-2.7,1.1-1.8,4.2-1.6,6.5c1.5-2,4.1-3.6,4.5-6.2c1.7,0,3.5,0,5.2,0
		c-3.1,1.5-5.6,3.9-7.8,6.5c2.9,3.4,5.9,7,10,8.8c-2.3,0-5,0.5-6.9-1.2c-2-1.7-3.6-3.9-5.3-5.9c0,2,0,4,0,6c0.6,0.2,1.7,0.6,2.3,0.8
		c-2.5,0.3-5,0.3-7.6,0.3c0.5-0.4,1.5-1.2,2-1.6c-0.1-4.3,0-8.6-0.1-12.9C275.5-473.2,274.6-473.4,273.8-473.7z"/>
	<path fill="#030303" d="M469.7-474.1c2.3,0.3,4.6,0.3,6.9,0.2c-0.8,0.4-1.5,0.8-2.3,1.2c-0.2,4.8,0.1,9.7-0.5,14.4l-0.8,0.1
		c-3.9-3.2-7.4-6.9-11.1-10.4c0,2.9,0,5.8,0.1,8.7c0.5,0.3,1.5,1,2,1.3c-2.2,0.1-4.4,0.1-6.6-0.1c0.5-0.3,1.6-0.8,2.1-1.1
		c0.5-4.9-0.6-10.1,0.9-14.8c4,3.7,7.6,7.7,11.6,11.3C471.5-466.8,474-472.3,469.7-474.1z"/>
	<path fill="#030303" d="M500.6-473.8c3.9-0.1,7.7,0.1,11.6-0.2c-0.2,1.2-0.5,2.4-0.7,3.6c-0.9-2.5-3.3-2.1-5.4-2c0,1.6,0,3.2,0,4.9
		c1.9,0.1,3.9,0,5.8-0.3c-0.2,0.9-0.5,2.7-0.7,3.6c-0.6-0.6-1.2-1.2-1.7-1.9c-1.1,0-2.2,0-3.3,0c0,1.8-0.1,3.6,0.1,5.3
		c0.9,1.5,2.8,0.8,4.2,1c0.7-0.9,1.3-1.7,2-2.6c-0.1,1.3-0.2,2.6-0.3,3.9c-3.8,0-7.7,0-11.5-0.2c0.5-0.3,1.4-0.8,1.9-1.1
		c0.5-4.4,0.1-8.8,0.2-13.1C502-473.2,501.3-473.5,500.6-473.8z"/>
</g>
<g>
	<g>
		<path fill="#070707" d="M403.2-474.5c3.5,4.2,4.7,9.9,7.2,14.7c0.7,0.2,2,0.7,2.7,1c-2.1,0.4-4.2,0.5-6.4,0.5
			c-0.3-1.7-0.7-3.3-1.2-4.9c-1.7-0.1-3.4-0.1-5-0.2c-0.6,1.2-1.1,2.4-1.7,3.6c0.5,0.3,1.4,1,1.9,1.3c-2,0.1-4.1,0.2-6.1,0.3
			C399.2-462.7,400-469.3,403.2-474.5z M403-469.3c-0.7,1.5-1.4,3-2.1,4.5c1.2,0,2.5,0,3.7,0C404.1-466.3,403.6-467.8,403-469.3z"/>
	</g>
</g>
<g>
	<path fill="#010101" d="M532.4-470.4c0.7-4.3,6.1-3.8,9.3-3.3c0,0.9,0,2.7,0,3.6c-1.6-2.3-4.1-4-6.7-1.9c-0.3,3.1,3.1,3.7,5,5.2
		c2.5,1.5,2.8,5.4,0.6,7.2c-2.4,1.9-5.6,1.3-8.4,0.9c0-1.4,0-2.7,0-4.1c1.2,2.5,5.5,5,6.9,1.4C539.6-465.9,531.4-465.4,532.4-470.4z
		"/>
</g>
<g>
	<path fill="#FFFFFF" d="M1607.8-519.1c8.9,0,17.7,1.4,26.5,1.7c-1.9,2.8-4.7,4.8-7,7.1c-4.4,3.8-8.2,8.2-12.9,11.7
		c0.2-2.9,0.6-5.8,0.9-8.6c-3.3,1.6-5.7,4.6-8.6,6.7c-2.7,1.7-4.5,4.4-6.1,7.1c-0.8,1.4-1.8,2.7-2.7,4c-1.3,1.9-2.6,3.8-3.5,6
		c-0.8,2.3-1.6,4.7-2.4,7.1c-0.7,2.1-1.3,4.2-1.5,6.4c-0.1,2.2-0.2,4.5-0.4,6.7c0,0.3-0.1,0.8-0.1,1.1c0,0.2,0.1,0.7,0.1,0.9
		c0.3,9.9,3.9,19.3,6.6,28.8c1,4.3,2.3,8.5,4,12.6c5.3,15.9,7.5,33.5,2.5,49.7c-6.9,22.8-23.9,41.8-44.7,53.2
		c-4.2,2.2-8.1,4.9-12.6,6.3c0.7-0.9,1.4-1.7,2.3-2.3c2.5-1.6,5-3.3,6.9-5.5c1.7-2,3.8-3.5,5.9-5c2.5-1.9,4.7-4.3,6.7-6.8
		c2.1-2.6,4.4-5.1,6.7-7.6c1.7-1.9,3.3-3.8,5-5.7c0-0.3,0-0.9,0-1.2c1.7-2.6,3.3-5.3,5.1-7.9c1.6-2.3,3-4.7,3.6-7.4
		c1.1-3.5,2.2-7,3.4-10.4c1.1-2.8,1.7-5.8,1.7-8.8c0.2-3.1,0.3-6.2,0.2-9.4c-0.1-3.5-0.3-7-0.9-10.4c-1.3-5.7-2.9-11.3-4.2-17
		c-1-4.5-2.2-8.9-3.9-13.2c-4.5-13.1-7.5-27.3-4.4-41c2.5-10.9,8.3-21,16.1-29c5.4-5.3,11.9-9.3,18.7-12.6
		C1613.4-515,1609.9-516.5,1607.8-519.1z"/>
</g>
<g>
	<path fill="#FFFFFF" d="M1600.6-493.3c1.5-2.8,3.4-5.4,6.1-7.1c8,5.2,15.9,10.3,23.9,15.5c1,0.7,2.3,1.3,2.9,2.5
		c-0.3,3.2-1.1,6.2-1.9,9.3c-5.7-2.6-10.6-6.6-15.9-9.9C1610.8-486.6,1605.3-489.4,1600.6-493.3z"/>
</g>
<g>
	<path fill="#FFFFFF" d="M1594.5-483.3c0.8-2.2,2.1-4.1,3.5-6c11,6.2,21.2,13.8,32,20.4c-0.4,2.6-1.4,5-2.7,7.2
		C1616.3-469,1605.1-475.7,1594.5-483.3z"/>
	<path fill="#FFFFFF" d="M1552.1-423.6c10.7-2.2,21.6-3.9,32.4-5.7c1.7,4.2,2.9,8.7,3.9,13.2c-10.9,3.3-22.3,4.5-33.4,6.9
		c-16.5,4.2-33.2,10.2-46,21.9c-8.5,7.6-14.6,17.8-17.5,28.9c-2.1,7.2-2.3,14.7-2.9,22.2c-4.8-14.6-4-30.9,2.8-44.7
		c4.9-10.6,13.3-19.3,22.7-26.1C1525.6-414.9,1538.6-420.3,1552.1-423.6z"/>
	<path fill="#FFFFFF" d="M1527.9-389.7c0.7-3.2,4.2-8.1,7.8-5.4c16.3,10.8,32.9,21.2,49.2,32c1.1,0.7,2.3,1.3,3.5,1.9l-0.2,1.1
		c-0.6,2.7-2,5.1-3.6,7.4c-2.3-2.2-5.2-3.8-7.8-5.5C1560.5-368.7,1544.4-379.5,1527.9-389.7z"/>
</g>
<g>
	<path fill="#FFFFFF" d="M1631.3-457.2c5.1-8.6,6.6-18.6,9.1-28.2c2.2,13.7,0.6,28.6-6.8,40.6c-7.2,12.2-19.9,20.1-32.9,24.9
		c-1.7-4.1-3-8.4-4-12.6C1610.6-436.2,1624.6-443.9,1631.3-457.2z"/>
	<path fill="#FFFFFF" d="M1569-404.9c3-2.1,6.7-2.1,10.1-2.7c4.6,2.6,8.8,5.9,13.5,8.5c0.6,3.4,0.9,6.9,0.9,10.4
		c-6.2-2.8-11.5-7.2-17.3-10.7C1573.8-401.2,1570.6-402.2,1569-404.9z"/>
</g>
<g>
	<path fill="#FFFFFF" d="M1590.5-469.9c0.2-2.2,0.8-4.3,1.5-6.4c1.4,0.5,2.7,1,4,1.8c9.2,6,18.4,12.2,27.8,18
		c-0.8,2.2-3.2,6.3-5.8,4.1C1608.8-458.1,1600-464.5,1590.5-469.9z"/>
	<path fill="#FFFFFF" d="M1499.5-364.3c1-2.4,2-4.8,3.5-6.9c1.7,0.3,3.1,1.4,4.6,2.3c16.3,10.7,32.7,21.1,48.9,31.8
		c3.8,2.3,7.2,5.1,11.3,6.9c-2,2.4-4.2,4.8-6.7,6.8c-18.5-12.6-37.5-24.5-56.3-36.7C1503.1-361.5,1500.6-362.3,1499.5-364.3z"/>
</g>
<g>
	<path fill="#FFFFFF" d="M1590.1-463.2l0.5-1c7.2,4.9,14.5,9.7,21.8,14.4c0.9,0.7,2.1,1.2,2.6,2.4c-2.1,1.9-5.1,4.9-8.1,3.2
		c-4.8-2.8-9.4-6.1-14.1-9.1c-3-1.4-2.1-5.2-2.8-7.9c0-0.2-0.1-0.7-0.1-0.9C1590.1-462.4,1590.1-462.9,1590.1-463.2z"/>
	<path fill="#FFFFFF" d="M1547.4-400.8c3.4-1.3,7.7-3.6,11.1-1c11.7,7.4,23.2,15.1,34.8,22.4c-0.1,3-0.6,6-1.7,8.8
		c-14.9-9.1-29.2-19.2-44.2-28.2C1547.4-399.3,1547.4-400.3,1547.4-400.8z"/>
</g>
<g>
	<path fill="#FFFFFF" d="M1625.2-419.4c1.2,0.3,2.6,0.4,3.3,1.5c18.2,19.5,37.5,38,55.8,57.4c-0.6-16.1-0.5-32.2-1.2-48.3
		c0-2.9-1.5-6-4.8-6.1c-1.9-0.7-6.5,0.9-5.4-2.5c4.3-0.7,8.7-0.1,13-0.1c5.1,0.1,10.1-0.6,15.2,0c0,3.5-4.1,1.8-6.2,2.9
		c-2.9,1.6-2.4,5.4-2.7,8.2c0,13-0.5,26-0.6,39c-0.4,9.4,0.1,18.8-0.8,28.1c-2.1,1.6-4.1-1-5.7-2.2c-13.2-13.1-26.4-26.3-39.5-39.5
		c-4.7-4.7-8.9-10.1-14-14.4c0.2,11,0.6,22,0.8,33c0.3,6.2-0.2,12.6,2.1,18.4c2.7,1.4,5.7,1.2,8.6,1.8l0.6,1c-1.6,2-4.4,1.1-6.6,1.3
		c-7.4-0.6-14.8,0.1-22.2-0.1c-0.2-0.5-0.4-1.5-0.6-2c2.7-0.7,6-0.1,8.2-2c1.8-3.8,1.1-8.1,1.5-12.2c0-16,0.5-32.1,0.7-48.1
		C1624.9-409.4,1623.9-414.5,1625.2-419.4z"/>
	<path fill="#FFFFFF" d="M1809.9-416.4c0.3-1,0.4-3.2,2.1-2.7c1.5-0.4,2,1.2,2.6,2.2c9.4,18.9,18.4,38,28,56.8
		c9.5-19.1,18.5-38.5,28-57.6c0.6-2.2,3.7-1.7,3.9,0.4c3.6,22.3,6.6,44.6,10.1,66.9c0.5,3.2,1.7,7.1,5.5,7.5
		c2.4,1.1,6.7-0.8,7.3,2.7c-2.7,0.6-5.5,0.7-8.3,0.4c-6.3-0.4-12.6,0.4-18.8-0.9c-0.6-1.4,0.5-2.3,1.4-3.2c0.1-3.8-0.8-7.5-1.2-11.2
		c-1.6-11.7-3.2-23.4-4.8-35.2c-7.7,14.6-14.6,29.8-22,44.6c-1.1,2-1.8,4.3-3.5,5.8c-1.6,0.6-2.3-1.4-3.1-2.4
		c-8.3-15.4-15.7-31.3-23.5-47c-1.9,13.1-3.6,26.1-5.3,39.2c-0.1,2.5-1.1,6.8,2.6,7.1c1.8,0.9,6.3-0.6,5.9,2.4
		c-2.7,1.2-5.8,0.5-8.7,0.5c-5.5-0.4-11.1,0.4-16.6,0c-1.6-3.2,2.6-2.2,4.3-2.7c2.6-0.4,3.2-3.5,3.7-5.6
		C1803-371.1,1806.3-393.8,1809.9-416.4z"/>
	<g>
		<path fill="#FFFFFF" d="M1938.7-418.8c1.7-1.2,3.4,0.1,3.8,1.8c9.1,21.4,17.4,43.1,26.5,64.5c1.3,2.9,2.8,5.8,5.1,7.9
			c2.4,2.2,6,1.8,9,2.2c-0.1,0.5-0.4,1.4-0.6,1.8c-4.7,1-9.7,0.4-14.5,0.4c-4.3-0.3-8.6,0.3-12.9-0.6c-0.7-1.8,1.4-1.9,2.5-2.6
			c-2.5-7.7-5.8-15-8.5-22.6c-7.9-0.3-15.8-0.1-23.6-0.1c-1.9,4.9-3.8,9.8-5.8,14.7c-1,2.7-2.2,5.7-0.6,8.4c1.9,0.5,7.3-0.9,5.9,2.5
			c-5,0.7-10.1-0.2-15.2,0.1c-3.9-0.2-8,1-11.8-0.5c0-0.4,0.1-1.1,0.1-1.4c2.6-0.8,5.7-0.3,8.1-1.9c2.5-2,3.8-5.1,5-8
			c7.7-19.2,15.5-38.4,23.3-57.5C1936-412.6,1937-415.9,1938.7-418.8z M1934.1-388.3c-2,5.5-4.2,11-6.1,16.6
			c6.3-0.1,12.5,0,18.8-0.1c-3-8.3-6-16.6-9.1-24.9C1936-394.2,1935.2-391.1,1934.1-388.3z"/>
	</g>
	<path fill="#FFFFFF" d="M1709.2-417.1c3.4-1.2,7.2-0.2,10.8-0.4c5.7,0.3,11.4-0.6,17.1,0.1c1.3,2.7-3.4,1.8-3.5,4
		c0.4,1.6,1.2,3.2,2,4.7c5.2,9.4,10.6,18.6,15.9,27.9c4.8-7.7,8.9-15.8,13.4-23.7c1.4-3,3.7-6.1,2.8-9.6c-1.3-1.2-4.4-0.9-3.6-3.3
		c6.7-0.6,13.4,0.3,20.1-0.3c1.6,0.1,5.1-0.7,4.7,1.9c-2.8,0.8-6,0.9-8.3,2.8c-4.6,4-7.4,9.4-10.6,14.5c-4.1,6.9-8.4,13.7-12,20.9
		c-2.8,5.3-1.5,11.5-1.8,17.2c0.3,5.5-0.9,11.4,1.4,16.7c3.1,1,6.3,1.2,9.6,1.3c-0.1,0.6-0.2,1.8-0.3,2.4c-8.9,0.2-17.8-0.5-26.7,0
		c-2.2-0.2-5.5,0.9-6.7-1.4c2.2-2.2,7.2,0,8.2-3.9c1.3-6.2,0.8-12.7,0.9-19c0.1-4.7-0.4-9.5-2.8-13.6c-3.8-6.8-8-13.4-12.1-20
		c-3.4-5.1-6.1-10.9-10.9-14.9c-2-1.8-4.8-2-7.3-2.8C1709.3-416,1709.2-416.8,1709.2-417.1z"/>
</g>
<g>
	<path fill="#FFFFFF" d="M1516.3-385.9c16.3,10.3,32.4,21,48.7,31.4c4.9,3.2,9.9,6.2,14.6,9.7c0,0.3,0,0.9,0,1.2
		c-1.7,1.9-3.4,3.8-5,5.7c-15.3-10.4-31.1-20.2-46.6-30.4c-5.3-3.1-10.1-7.2-15.7-9.8C1512.7-381.1,1514.9-383.3,1516.3-385.9z"/>
</g>
<g>
	<path fill="#FFFFFF" d="M1496.7-356.1c2.2,0.4,4,1.9,5.9,3.1c16.4,10.7,32.8,21.3,49.3,31.8c1.2,0.8,2.3,1.8,3.4,2.7
		c-2,2.2-4.4,3.9-6.9,5.5c-15-9.6-29.8-19.5-44.9-29.1c-2.7-1.9-5.7-3.3-8-5.6C1495.4-350.5,1496.2-353.3,1496.7-356.1z"/>
</g>
<g>
	<path fill="#FFFFFF" d="M1599.4-327.6c2.2,0,4.5-0.1,6.8,0.4c-0.5,0.1-1.5,0.4-2.1,0.5c0.1,5.9-0.7,11.7-0.5,17.5
		c-1-0.2-1.8-0.6-2.5-1.3c-3.8-3.7-7.5-7.5-11.5-11c-0.1,3.6-0.2,7.4,0.5,11c0.6,0.3,1.8,0.8,2.4,1c-2.6,0.2-5.2,0.1-7.7-0.1
		c0.9-0.4,1.8-0.8,2.7-1.2c0-5.8,0.2-11.6,0.4-17.4c5,4,8.8,9.1,13.8,13.1c-0.2-3.8,0.6-7.8-0.5-11.6c-0.4-0.1-1.3-0.4-1.8-0.5
		C1599.3-327.2,1599.3-327.5,1599.4-327.6z"/>
	<path fill="#FFFFFF" d="M1670.4-327.5c2.1,0,4.3,0,6.4,0c-3.5,1.5-5.1,5.3-6.9,8.4c-1.6,2.6-0.8,5.8-0.8,8.7
		c0.7,0.2,2.2,0.5,2.9,0.6c-3.1,0.6-6.2,0.6-9.2,0.1c4-0.1,2.5-4.9,2.3-7.5c-1.9-3.7-3.8-7.6-7.2-10.2c1.8-0.1,3.6-0.2,5.4-0.3
		c1.1,2.9,2.7,5.7,4.3,8.3c1.2-2.1,2.4-4.3,3.7-6.4C1671-326.3,1670.7-326.9,1670.4-327.5z"/>
	<g>
		<path fill="#FFFFFF" d="M1889.3-328.3c3.4,5.5,4.7,12.1,8,17.6c0.7,0.3,2.1,0.8,2.8,1.1c-2.3,0.2-4.6,0.3-6.8,0.3
			c-0.5-2.1-1.2-4.1-2-6.1c-1.7,0-3.4,0.1-5.1,0.1c-0.6,1.5-1.3,2.9-1.9,4.4c0.5,0.4,1.5,1,1.9,1.4c-2.5,0.1-5,0.1-7.5-0.3
			c0.7-0.2,2.2-0.6,2.9-0.8C1884.4-316.4,1886.4-322.6,1889.3-328.3z M1888.6-322.3c-0.6,1.9-1.2,3.7-1.7,5.6c1.3,0,2.6-0.1,3.9-0.1
			C1890.1-318.6,1889.4-320.4,1888.6-322.3z"/>
	</g>
	<path fill="#FFFFFF" d="M1610-324.7c3.7,0,7.4,0.2,11-0.3c-0.2,1.2-0.3,2.5-0.5,3.7c-0.4-0.7-0.9-1.4-1.3-2c-1.4,0-2.7,0-4.1-0.1
		c0,1.7,0,3.4,0,5c1.8-0.1,3.7-0.2,5.5-0.4c-0.2,1.4-0.3,2.8-0.5,4.2c-0.5-0.8-1-1.6-1.4-2.4c-1.2-0.1-2.4-0.1-3.6-0.1c0,2,0,4,0,6
		c2.5,0.7,5,0.4,6.2-2.1c-0.1,1.2-0.1,2.5-0.2,3.8c-3.8,0-7.7,0-11.5-0.1c0.6-0.4,1.7-1,2.2-1.4c-0.2-4.3-0.1-8.6-0.1-12.9
		C1611.4-324,1610.4-324.5,1610-324.7z"/>
	<path fill="#FFFFFF" d="M1624-324.7c1.8,0,3.6,0,5.4-0.1c-0.2,3.6,1.5,7,2.6,10.3c1.4-3.6,2.7-7.2,4.2-10.7c2.8,3,3.5,7.2,5.3,10.7
		c0.9-3,1.9-6,2.8-9c-0.3-0.3-1-1-1.3-1.3c1.9,0.1,3.8,0.1,5.7,0c-0.7,0.4-1.4,0.8-2,1.2c-1.7,4.7-3.3,9.5-5,14.2
		c-0.3,0-1,0.1-1.4,0.1c-1.7-3-2.5-6.9-4.4-9.5c-1.8,2.8-2.5,6.5-4.2,9.5c-0.3,0-1-0.1-1.4-0.2c-1.7-4.6-3.3-9.3-4.9-14
		C1625.1-323.8,1624.4-324.4,1624-324.7z"/>
	<g>
		<path fill="#FFFFFF" d="M1698.9-324.7c4.2,0.1,8.6-0.8,12.4,1.2c0.8,2.6-0.3,5-2.4,6.6c1.9,2.9,4.1,5.8,7.3,7.2
			c-1.6,0.1-3.4,0.6-4.9-0.1c-3-1.3-3.6-5.6-6.9-6.4c0.1,2.5-1.1,6.6,2.8,6.4c-2.8,0.3-5.6,0.4-8.4,0c0.5-0.2,1.6-0.7,2.2-0.9
			c0-4.4,0-8.8,0-13.2C1700.3-324,1699.6-324.4,1698.9-324.7z M1704.3-323.5c0,2.2,0,4.4,0.1,6.6c3.7,0.5,4.9-3.6,3.1-6.1
			C1706.8-323.1,1705.2-323.3,1704.3-323.5z"/>
	</g>
	<path fill="#FFFFFF" d="M1772.1-324.8c3.9,0.2,7.8,0.2,11.7,0c-0.3,1.2-0.5,2.4-0.8,3.5c-0.4-2.6-3.1-1.8-5-2.1
		c0,1.7,0,3.4-0.1,5.2c1.8-0.1,3.6-0.2,5.5-0.4c-0.1,1-0.3,2.9-0.4,3.9c-0.9-2.1-2.9-2.5-4.9-2.4c-0.1,2.1-0.1,4.3,0.2,6.4
		c2.4,0.3,4.8,0.1,5.8-2.4c0,0.9,0,2.7,0,3.7c-3.7,0.2-7.4,0-11.1,0.1c0.4-0.5,1.2-1.4,1.6-1.9c0.2-4.2,0-8.4,0-12.5
		C1773.8-324.1,1772.9-324.5,1772.1-324.8z"/>
	<g>
		<path fill="#FFFFFF" d="M1787.8-324.8c5,0.6,10.7-1.1,15.3,1.7c4.4,3,3.5,10.4-1.1,12.8c-4.4,2.2-9.4,0.8-14.1,0.9
			c0.5-0.3,1.5-0.8,1.9-1c0.4-4.4,0.2-8.9,0.1-13.3C1789.4-324.1,1788.3-324.6,1787.8-324.8z M1793.4-323.3
			c0.1,4.2-0.2,8.5,0.3,12.7c2.5,0.1,5.6,0.6,7.4-1.7c2.1-2.9,1.8-7.7-1.4-9.8C1797.9-323.6,1795.5-323.2,1793.4-323.3z"/>
	</g>
	<path fill="#FFFFFF" d="M1809.8-324.7c2.4,0,4.8,0,7.3,0c-0.7,0.3-1.3,0.7-2,1c0.1,4.3-0.2,8.6,0.2,12.9c0.5,0.3,1.4,1,1.8,1.4
		c-2.4,0-4.9,0-7.3,0.1c0.5-0.4,1.5-1.3,2-1.7c0.1-4.2,0-8.5,0-12.8C1811.3-324,1810.3-324.5,1809.8-324.7z"/>
	<path fill="#FFFFFF" d="M1826.1-324.3c3.3-1,7-0.8,10.3,0.2c0,1.5,0.1,3.1,0.2,4.6c-1-1-1.6-2.2-2.3-3.4c-2.6-0.9-5.9-1.4-8,0.8
		c-3.2,4-0.8,11.1,4.6,11.6c2.5,0.6,4.1-1.5,5.7-3c-0.2,1-0.7,2.9-1,3.8c-3.6,1-7.8,0.8-11.1-1.1
		C1819.6-313.8,1820.6-322.4,1826.1-324.3z"/>
	<path fill="#FFFFFF" d="M1926-323.2c3.6-2.6,8.4-1.8,12.5-1.1c-0.1,1.4-0.1,2.7-0.2,4.1c-0.9-0.6-1.6-1.6-2.1-2.5
		c-3-1.6-8.2-1.5-9.2,2.5c-2.1,5.1,2.8,11.1,8.3,9.8c0-1.8,0-3.6,0.1-5.4c-0.9-0.4-1.8-0.8-2.6-1.1c2.5-0.2,4.9-0.3,7.4-0.3
		c-0.4,0.4-1.3,1.3-1.7,1.7c0,1.9,0,3.8,0,5.7c-3.9,1.1-8.4,1.4-12.1-0.7C1922.1-313.2,1921.9-320.4,1926-323.2z"/>
	<path fill="#FFFFFF" d="M1959.1-324.8c2.6,0.1,5.3,0.2,7.9-0.2c-0.9,0.7-2.4,1.2-2,2.6c-0.1,3.9-0.1,7.8,0.2,11.7
		c2.6,0.4,5,0,6.3-2.5c-0.1,1.3-0.2,2.6-0.4,3.9c-3.8,0-7.5,0-11.2,0c0.4-0.4,1.2-1.3,1.6-1.8c0.2-4.2,0-8.4,0-12.6
		C1960.8-324.1,1959.9-324.4,1959.1-324.8z"/>
</g>
<g>
	<path fill="#FFFFFF" d="M1749.3-328.1c3.7,3.6,4.9,9.2,7.6,13.6c2.5-4.6,4.2-9.6,7.3-13.8c1.7,5.8,1.8,11.9,3.1,17.8
		c1.2,0.2,2.4,0.5,3.6,0.7c-2.4,0.4-4.9,0.5-7.3,0.5c0-3.7-0.8-7.3-1.2-11c-2.1,3.6-3.9,7.4-5.7,11.2c-3.3-2.7-3.9-7.3-6.3-10.6
		c-0.7,3-1.1,6.1-1.3,9.2c0.6,0.3,1.8,0.8,2.4,1c-2.1,0.1-4.2,0.2-6.3,0.2c0.4-0.5,1.1-1.4,1.5-1.8
		C1747.6-316.7,1748.2-322.5,1749.3-328.1z"/>
	<path fill="#FFFFFF" d="M1857.9-324.7c2.4,0,4.8,0,7.2,0c-0.5,0.2-1.5,0.7-2,0.9c0,4.3-0.2,8.7,0.2,13c2.6,0.6,5-0.1,6.7-2.2
		c-0.3,1.2-0.5,2.5-0.8,3.7c-3.8,0-7.7,0.1-11.6-0.2c0.5-0.3,1.6-0.9,2.1-1.1c0-4.3,0-8.7,0-13
		C1859.2-324,1858.6-324.4,1857.9-324.7z"/>
</g>
<g>
	<g>
		<path fill="#FFFFFF" d="M1683.4-324.6c3.7-0.7,8.2-0.6,10.7,2.6c2.7,4,1.2,10.4-3.5,12.1c-3.9,1.4-9,1.1-11.6-2.6
			C1675.8-316.6,1678.2-323.5,1683.4-324.6z M1683.3-322.9c-4.2,3.4-2.2,12.2,3.6,12.4c4.2,0.4,5.6-4.8,4.8-8
			C1691.2-322.1,1686.7-325.4,1683.3-322.9z"/>
	</g>
</g>
<g>
	<path fill="#FFFFFF" d="M1717-324.6c2.6-0.1,5.3-0.1,7.9-0.4c-2.7,1.1-1.8,4.2-1.6,6.5c1.5-2,4.1-3.6,4.5-6.2c1.7,0,3.5,0,5.2,0
		c-3.1,1.5-5.6,3.9-7.8,6.5c2.9,3.4,5.9,7,10,8.9c-2.3,0-5,0.5-6.9-1.2c-2-1.7-3.6-3.9-5.3-5.8c0,2,0,4,0,6c0.6,0.2,1.7,0.6,2.3,0.8
		c-2.5,0.3-5,0.3-7.6,0.3c0.5-0.4,1.5-1.2,2-1.6c-0.1-4.3,0-8.6-0.1-12.9C1718.7-324.1,1717.8-324.3,1717-324.6z"/>
	<path fill="#FFFFFF" d="M1912.9-325c2.3,0.4,4.6,0.3,6.9,0.2c-0.8,0.4-1.5,0.8-2.3,1.2c-0.2,4.8,0.1,9.7-0.5,14.4l-0.8,0.1
		c-3.9-3.2-7.4-6.9-11.1-10.4c0,2.9,0,5.8,0.1,8.7c0.5,0.3,1.5,1,2,1.4c-2.2,0.1-4.4,0.1-6.6-0.1c0.5-0.3,1.6-0.8,2.1-1.1
		c0.5-4.9-0.6-10.1,0.9-14.8c4,3.7,7.6,7.7,11.6,11.3C1914.8-317.7,1917.3-323.2,1912.9-325z"/>
	<path fill="#FFFFFF" d="M1943.8-324.7c3.9-0.1,7.7,0.1,11.6-0.2c-0.2,1.2-0.5,2.4-0.7,3.6c-0.8-2.5-3.3-2.1-5.4-2
		c0,1.6,0,3.2,0,4.9c1.9,0.1,3.9,0,5.8-0.3c-0.2,0.9-0.5,2.7-0.7,3.6c-0.6-0.6-1.2-1.2-1.7-1.9c-1.1,0-2.2,0-3.3,0
		c0,1.8-0.1,3.6,0.1,5.4c0.9,1.5,2.8,0.8,4.2,1c0.7-0.9,1.3-1.7,2-2.6c-0.1,1.3-0.2,2.6-0.3,3.9c-3.8,0-7.7,0-11.5-0.2
		c0.5-0.3,1.4-0.8,1.9-1.1c0.5-4.4,0.1-8.8,0.2-13.1C1945.3-324.1,1944.5-324.4,1943.8-324.7z"/>
</g>
<g>
	<g>
		<path fill="#FFFFFF" d="M1846.4-325.4c3.5,4.2,4.7,9.9,7.2,14.6c0.7,0.2,2.1,0.7,2.7,1c-2.1,0.4-4.2,0.5-6.4,0.5
			c-0.3-1.7-0.7-3.3-1.2-4.9c-1.7-0.1-3.4-0.1-5-0.2c-0.6,1.2-1.1,2.4-1.7,3.6c0.5,0.3,1.4,0.9,1.9,1.3c-2,0.1-4.1,0.2-6.1,0.3
			C1842.4-313.6,1843.3-320.2,1846.4-325.4z M1846.2-320.2c-0.7,1.5-1.4,3-2.1,4.5c1.2,0,2.5,0,3.7,0
			C1847.3-317.2,1846.8-318.7,1846.2-320.2z"/>
	</g>
</g>
<g>
	<path fill="#FFFFFF" d="M1975.7-321.3c0.7-4.3,6.1-3.8,9.3-3.3c0,0.9,0,2.7,0,3.6c-1.6-2.3-4.1-4-6.7-1.9c-0.3,3.1,3.1,3.7,5,5.2
		c2.5,1.5,2.8,5.4,0.6,7.2c-2.4,1.9-5.6,1.3-8.4,0.9c0-1.4,0-2.7,0-4.1c1.2,2.5,5.5,4.9,6.9,1.4
		C1982.9-316.8,1974.6-316.3,1975.7-321.3z"/>
</g>
<g>
	<path fill="none" stroke="#377EC0" stroke-width="2" stroke-miterlimit="10.43" d="M164.6-668.2c8.9,0,17.7,1.4,26.5,1.7
		c-1.9,2.8-4.7,4.8-7,7.1c-4.4,3.8-8.2,8.2-12.9,11.7c0.2-2.9,0.6-5.8,0.9-8.6c-3.3,1.6-5.6,4.6-8.6,6.7c-2.7,1.7-4.6,4.4-6.1,7.2
		c-0.8,1.4-1.8,2.7-2.7,4c-1.4,1.9-2.7,3.8-3.5,6c-0.8,2.3-1.6,4.7-2.4,7c-0.7,2.1-1.3,4.2-1.5,6.4c-0.1,2.2-0.2,4.5-0.4,6.7
		c0,0.3-0.1,0.8-0.1,1.1c0,0.2,0.1,0.7,0.1,0.9c0.3,9.9,3.9,19.3,6.6,28.8c1,4.3,2.3,8.5,4,12.6c5.3,15.9,7.5,33.5,2.5,49.7
		c-6.9,22.8-23.9,41.8-44.6,53.2c-4.2,2.2-8.1,4.9-12.6,6.3c0.7-0.9,1.4-1.7,2.3-2.3c2.5-1.6,5-3.3,6.9-5.6c1.7-2,3.8-3.5,5.9-5
		c2.5-1.9,4.7-4.3,6.7-6.8c2.1-2.6,4.4-5.1,6.7-7.6c1.7-1.9,3.3-3.8,5-5.7c0-0.3,0-0.9,0-1.2c1.7-2.6,3.3-5.3,5.1-7.9
		c1.6-2.3,3-4.7,3.6-7.4c1.1-3.5,2.2-7,3.4-10.4c1.1-2.8,1.7-5.8,1.7-8.8c0.1-3.1,0.3-6.2,0.2-9.4c-0.1-3.5-0.3-7-0.9-10.4
		c-1.3-5.7-2.9-11.3-4.2-17c-1-4.5-2.2-8.9-3.9-13.2c-4.5-13.1-7.5-27.3-4.4-41c2.5-10.9,8.3-21,16.1-29c5.4-5.3,11.9-9.3,18.7-12.6
		C170.2-664.1,166.6-665.6,164.6-668.2z"/>
</g>
<g>
	<g>
		<path fill="#FFFFFF" d="M182-323.2c1.2,0.3,2.6,0.4,3.3,1.5c18.2,19.5,37.4,38,55.8,57.4c-0.6-16.1-0.5-32.2-1.2-48.3
			c0-2.9-1.6-6-4.8-6.1c-1.9-0.7-6.5,0.9-5.4-2.5c4.3-0.7,8.7-0.1,13-0.1c5,0.1,10.1-0.6,15.1,0c0,3.5-4.1,1.8-6.2,2.9
			c-2.9,1.6-2.4,5.4-2.7,8.2c0,13-0.5,26-0.6,39c-0.4,9.4,0.1,18.8-0.8,28.1c-2.1,1.6-4.1-1-5.7-2.2c-13.2-13.1-26.4-26.3-39.5-39.5
			c-4.7-4.7-8.9-10.1-14-14.4c0.2,11,0.6,22,0.8,33c0.3,6.2-0.2,12.6,2.1,18.4c2.7,1.4,5.7,1.2,8.6,1.8l0.6,1
			c-1.6,2-4.4,1.1-6.6,1.3c-7.4-0.6-14.8,0.1-22.2-0.1c-0.1-0.5-0.4-1.5-0.6-2.1c2.7-0.7,6-0.1,8.2-2.1c1.8-3.8,1.1-8.1,1.5-12.2
			c0-16,0.5-32.1,0.7-48.1C181.7-313.1,180.7-318.3,182-323.2z"/>
		<path fill="#FFFFFF" d="M366.7-320.2c0.3-1,0.4-3.2,2.1-2.7c1.5-0.4,2,1.2,2.6,2.2c9.4,18.9,18.4,38,28,56.8
			c9.5-19.1,18.5-38.5,28-57.6c0.6-2.2,3.7-1.7,3.9,0.4c3.6,22.3,6.6,44.6,10.1,66.9c0.5,3.2,1.7,7.1,5.5,7.5
			c2.4,1.1,6.7-0.8,7.3,2.7c-2.7,0.6-5.5,0.7-8.3,0.4c-6.3-0.4-12.6,0.4-18.8-0.9c-0.6-1.4,0.5-2.3,1.4-3.2
			c0.1-3.8-0.8-7.5-1.2-11.2c-1.6-11.7-3.2-23.4-4.8-35.2c-7.7,14.6-14.6,29.8-22,44.6c-1.1,1.9-1.8,4.3-3.5,5.8
			c-1.6,0.6-2.3-1.4-3.1-2.4c-8.3-15.4-15.7-31.3-23.5-47c-1.9,13.1-3.6,26.1-5.3,39.2c-0.1,2.5-1.1,6.8,2.5,7.1
			c1.9,0.9,6.3-0.6,5.9,2.4c-2.7,1.2-5.8,0.5-8.7,0.5c-5.5-0.4-11.1,0.4-16.6,0c-1.6-3.2,2.6-2.2,4.4-2.7c2.6-0.4,3.2-3.5,3.7-5.6
			C359.8-274.8,363.1-297.5,366.7-320.2z"/>
		<g>
			<path fill="#FFFFFF" d="M495.5-322.5c1.7-1.2,3.4,0.1,3.8,1.8c9.1,21.4,17.4,43.1,26.5,64.5c1.3,2.9,2.8,5.8,5.1,7.9
				c2.4,2.2,6,1.8,9,2.2c-0.1,0.4-0.4,1.4-0.6,1.8c-4.7,1-9.6,0.4-14.5,0.4c-4.3-0.3-8.6,0.3-12.9-0.6c-0.7-1.8,1.4-1.9,2.5-2.6
				c-2.5-7.7-5.8-15-8.5-22.6c-7.9-0.3-15.8-0.1-23.6-0.1c-1.9,4.9-3.8,9.8-5.8,14.7c-1,2.7-2.2,5.7-0.6,8.4
				c1.9,0.5,7.3-0.9,5.9,2.5c-5,0.7-10.1-0.2-15.2,0.1c-3.9-0.2-8,1-11.8-0.4c0-0.4,0.1-1.1,0.1-1.5c2.6-0.8,5.7-0.3,8.1-1.9
				c2.5-2,3.8-5.1,5-8c7.7-19.2,15.5-38.4,23.3-57.6C492.7-316.4,493.8-319.6,495.5-322.5z M490.9-292.1c-2,5.5-4.2,11-6.1,16.6
				c6.3-0.1,12.5,0,18.8-0.1c-3-8.3-6-16.6-9.1-24.9C492.7-297.9,492-294.9,490.9-292.1z"/>
		</g>
		<path fill="#FFFFFF" d="M266-320.9c3.4-1.2,7.2-0.2,10.8-0.4c5.7,0.3,11.4-0.6,17.1,0.1c1.3,2.7-3.4,1.8-3.5,4
			c0.4,1.6,1.2,3.2,2,4.7c5.2,9.4,10.5,18.6,15.9,27.9c4.8-7.7,8.9-15.8,13.4-23.7c1.4-3,3.7-6.1,2.8-9.6c-1.3-1.2-4.4-0.9-3.6-3.3
			c6.7-0.6,13.4,0.3,20.1-0.3c1.6,0.1,5.1-0.7,4.7,1.9c-2.8,0.8-6,0.9-8.3,2.8c-4.6,4-7.4,9.4-10.6,14.5c-4.1,6.9-8.4,13.7-12,20.9
			c-2.8,5.3-1.5,11.5-1.8,17.2c0.3,5.5-0.9,11.4,1.4,16.7c3.1,1,6.3,1.2,9.6,1.3c-0.1,0.6-0.2,1.8-0.3,2.4c-8.9,0.2-17.8-0.5-26.7,0
			c-2.2-0.2-5.5,0.9-6.7-1.4c2.2-2.2,7.2,0,8.2-3.9c1.3-6.2,0.8-12.7,0.9-19c0.1-4.7-0.4-9.5-2.8-13.6c-3.9-6.8-8-13.4-12.1-20
			c-3.4-5.1-6.1-10.9-10.9-14.9c-2-1.8-4.8-2-7.3-2.8C266-319.8,266-320.5,266-320.9z"/>
	</g>
	<g>
		<path fill="#FFFFFF" d="M156.1-231.3c2.2,0,4.5-0.1,6.8,0.4c-0.5,0.1-1.5,0.4-2.1,0.5c0.1,5.8-0.7,11.7-0.4,17.5
			c-1-0.2-1.8-0.6-2.5-1.3c-3.8-3.7-7.5-7.5-11.5-11c0,3.6-0.2,7.3,0.5,11c0.6,0.3,1.8,0.8,2.4,1.1c-2.6,0.2-5.2,0.1-7.7-0.1
			c0.9-0.4,1.8-0.8,2.6-1.2c0-5.8,0.2-11.6,0.4-17.4c5,4,8.8,9.1,13.8,13.1c-0.2-3.8,0.6-7.8-0.5-11.6c-0.4-0.1-1.3-0.4-1.8-0.5
			C156.1-231,156.1-231.2,156.1-231.3z"/>
		<path fill="#FFFFFF" d="M227.2-231.3c2.1,0,4.3,0,6.4,0c-3.6,1.5-5.1,5.3-6.9,8.4c-1.6,2.6-0.8,5.8-0.8,8.7
			c0.7,0.2,2.2,0.5,2.9,0.6c-3.1,0.6-6.2,0.6-9.2,0.1c4-0.1,2.5-4.9,2.3-7.5c-1.9-3.7-3.8-7.6-7.2-10.2c1.8-0.1,3.6-0.2,5.4-0.3
			c1.1,2.9,2.7,5.7,4.3,8.3c1.2-2.1,2.4-4.3,3.6-6.4C227.8-230.1,227.5-230.7,227.2-231.3z"/>
		<g>
			<path fill="#FFFFFF" d="M446.1-232.1c3.4,5.5,4.7,12.1,8,17.6c0.7,0.3,2.1,0.8,2.8,1.1c-2.3,0.2-4.6,0.3-6.8,0.3
				c-0.5-2.1-1.2-4.1-2.1-6.1c-1.7,0-3.4,0.1-5.1,0.1c-0.6,1.5-1.3,2.9-1.9,4.4c0.5,0.3,1.5,1,1.9,1.4c-2.5,0.2-5,0.1-7.5-0.3
				c0.7-0.2,2.2-0.6,2.9-0.8C441.2-220.2,443.1-226.4,446.1-232.1z M445.4-226c-0.6,1.9-1.2,3.7-1.7,5.6c1.3,0,2.6-0.1,3.9-0.1
				C446.9-222.4,446.2-224.2,445.4-226z"/>
		</g>
		<path fill="#FFFFFF" d="M166.8-228.5c3.7,0,7.4,0.2,11-0.3c-0.2,1.2-0.4,2.5-0.5,3.7c-0.4-0.7-0.9-1.4-1.3-2c-1.4,0-2.7,0-4.1-0.1
			c0,1.7,0,3.3,0,5c1.8-0.1,3.7-0.2,5.5-0.4c-0.2,1.4-0.3,2.8-0.5,4.2c-0.5-0.8-1-1.6-1.4-2.4c-1.2-0.1-2.4-0.1-3.6-0.1c0,2,0,4,0,6
			c2.4,0.7,5,0.4,6.2-2.1c-0.1,1.2-0.1,2.5-0.2,3.8c-3.8,0.1-7.7,0.1-11.5-0.1c0.6-0.3,1.7-1,2.2-1.4c-0.2-4.3-0.1-8.6-0.1-12.9
			C168.1-227.8,167.2-228.2,166.8-228.5z"/>
		<path fill="#FFFFFF" d="M180.7-228.5c1.8,0,3.6,0,5.4-0.1c-0.1,3.6,1.5,7,2.7,10.3c1.4-3.6,2.7-7.2,4.2-10.7
			c2.8,3,3.5,7.2,5.3,10.7c0.9-3,1.9-6,2.8-9c-0.3-0.3-1-1-1.3-1.3c1.9,0.1,3.8,0.1,5.7,0c-0.7,0.4-1.4,0.8-2,1.2
			c-1.7,4.7-3.3,9.5-5,14.2c-0.3,0-1,0.1-1.4,0.1c-1.6-3-2.5-6.8-4.4-9.5c-1.8,2.8-2.5,6.5-4.2,9.5c-0.4,0-1-0.1-1.4-0.2
			c-1.7-4.6-3.3-9.3-4.9-14C181.9-227.6,181.1-228.2,180.7-228.5z"/>
		<g>
			<path fill="#FFFFFF" d="M255.6-228.4c4.2,0.1,8.6-0.8,12.4,1.2c0.8,2.6-0.3,5-2.4,6.7c1.9,2.8,4.1,5.8,7.3,7.2
				c-1.6,0.1-3.4,0.6-4.9-0.1c-3-1.3-3.6-5.6-6.9-6.4c0.1,2.5-1.1,6.6,2.8,6.5c-2.8,0.3-5.6,0.4-8.4,0c0.5-0.2,1.6-0.7,2.1-0.9
				c0-4.4,0-8.8,0-13.2C257-227.8,256.3-228.1,255.6-228.4z M261.1-227.2c0,2.2,0,4.4,0.1,6.6c3.7,0.5,4.9-3.6,3.1-6.1
				C263.5-226.8,261.9-227.1,261.1-227.2z"/>
		</g>
		<path fill="#FFFFFF" d="M328.9-228.6c3.9,0.2,7.8,0.2,11.7-0.1c-0.3,1.2-0.5,2.4-0.8,3.6c-0.4-2.6-3.1-1.8-5-2.1
			c0,1.7,0,3.4-0.1,5.2c1.8-0.1,3.6-0.2,5.5-0.4c-0.1,1-0.3,2.9-0.4,3.9c-0.9-2.1-2.9-2.5-4.9-2.4c-0.1,2.1-0.1,4.3,0.2,6.4
			c2.4,0.3,4.8,0.2,5.8-2.3c0,0.9,0,2.7,0,3.6c-3.7,0.2-7.4,0-11.1,0.1c0.4-0.5,1.2-1.4,1.6-1.9c0.2-4.2,0-8.4,0-12.5
			C330.6-227.8,329.7-228.2,328.9-228.6z"/>
		<g>
			<path fill="#FFFFFF" d="M344.6-228.6c5.1,0.6,10.7-1.1,15.3,1.7c4.4,3,3.5,10.4-1.1,12.8c-4.4,2.2-9.4,0.8-14.1,0.9
				c0.5-0.3,1.5-0.8,1.9-1c0.4-4.4,0.2-8.9,0.1-13.3C346.1-227.9,345.1-228.3,344.6-228.6z M350.1-227.1c0.1,4.2-0.2,8.5,0.3,12.7
				c2.5,0,5.6,0.5,7.4-1.7c2.1-2.9,1.8-7.7-1.4-9.8C354.7-227.4,352.3-227,350.1-227.1z"/>
		</g>
		<path fill="#FFFFFF" d="M366.6-228.4c2.4,0,4.8,0,7.3,0c-0.7,0.3-1.3,0.7-2,1c0.1,4.3-0.2,8.6,0.2,12.9c0.5,0.3,1.4,1,1.8,1.4
			c-2.4,0-4.9,0-7.3,0.1c0.5-0.4,1.5-1.3,2-1.7c0.1-4.2,0-8.5,0-12.8C368.1-227.8,367.1-228.2,366.6-228.4z"/>
		<path fill="#FFFFFF" d="M382.8-228.1c3.3-1,7-0.8,10.3,0.1c0,1.5,0.1,3.1,0.2,4.6c-1-1-1.6-2.2-2.3-3.4c-2.6-0.9-5.9-1.4-8,0.8
			c-3.2,4-0.8,11.1,4.6,11.6c2.5,0.7,4.1-1.5,5.7-3c-0.2,0.9-0.7,2.9-1,3.8c-3.6,1-7.8,0.8-11.1-1.1
			C376.4-217.6,377.4-226.2,382.8-228.1z"/>
		<path fill="#FFFFFF" d="M482.8-227c3.6-2.6,8.4-1.8,12.5-1.1c-0.1,1.4-0.1,2.7-0.2,4.1c-0.9-0.6-1.6-1.6-2.1-2.5
			c-3-1.6-8.2-1.5-9.2,2.5c-2.1,5.1,2.8,11.1,8.3,9.8c0-1.8,0-3.6,0.1-5.4c-0.9-0.4-1.8-0.8-2.6-1.2c2.5-0.2,4.9-0.3,7.4-0.3
			c-0.4,0.4-1.3,1.3-1.7,1.7c0,1.9,0,3.8,0,5.7c-3.9,1.1-8.4,1.4-12.1-0.7C478.9-217,478.6-224.1,482.8-227z"/>
		<path fill="#FFFFFF" d="M515.9-228.5c2.6,0.1,5.3,0.2,7.9-0.2c-0.9,0.7-2.4,1.2-2,2.6c-0.1,3.9-0.1,7.8,0.2,11.7
			c2.6,0.4,5,0,6.3-2.5c-0.1,1.3-0.2,2.6-0.4,3.9c-3.8,0-7.5,0-11.2,0c0.4-0.4,1.2-1.4,1.6-1.8c0.2-4.2,0-8.4,0-12.6
			C517.5-227.8,516.7-228.2,515.9-228.5z"/>
	</g>
	<g>
		<path fill="#FFFFFF" d="M306-231.9c3.7,3.6,4.9,9.2,7.6,13.6c2.5-4.6,4.2-9.6,7.3-13.8c1.7,5.8,1.8,11.9,3.1,17.8
			c1.2,0.2,2.4,0.4,3.6,0.7c-2.4,0.4-4.9,0.6-7.4,0.4c0-3.7-0.8-7.3-1.2-10.9c-2.1,3.6-3.9,7.4-5.7,11.2c-3.3-2.7-4-7.3-6.3-10.6
			c-0.7,3-1.1,6.1-1.3,9.2c0.6,0.3,1.8,0.8,2.4,1c-2.1,0.1-4.2,0.2-6.3,0.2c0.4-0.4,1.1-1.4,1.5-1.8
			C304.4-220.5,305-226.2,306-231.9z"/>
		<path fill="#FFFFFF" d="M414.7-228.5c2.4,0,4.8,0,7.2,0c-0.5,0.2-1.5,0.7-2,0.9c0,4.3-0.2,8.7,0.2,13c2.6,0.6,5-0.1,6.7-2.2
			c-0.3,1.2-0.5,2.5-0.8,3.7c-3.9-0.1-7.7,0.1-11.6-0.2c0.5-0.3,1.6-0.9,2.1-1.1c0-4.3,0-8.7,0-13
			C416-227.8,415.3-228.1,414.7-228.5z"/>
	</g>
	<g>
		<g>
			<path fill="#FFFFFF" d="M240.2-228.4c3.7-0.7,8.2-0.6,10.7,2.6c2.7,4,1.2,10.4-3.5,12.1c-3.9,1.4-9.1,1.1-11.6-2.6
				C232.6-220.4,235-227.3,240.2-228.4z M240.1-226.7c-4.2,3.4-2.2,12.2,3.6,12.4c4.2,0.4,5.6-4.8,4.8-8
				C248-225.9,243.4-229.1,240.1-226.7z"/>
		</g>
	</g>
	<g>
		<path fill="#FFFFFF" d="M273.8-228.3c2.6-0.1,5.3-0.1,7.9-0.4c-2.7,1.1-1.8,4.2-1.6,6.5c1.5-2.1,4.1-3.6,4.5-6.2
			c1.7,0,3.5,0,5.2,0c-3.1,1.5-5.6,3.9-7.8,6.5c2.9,3.4,5.9,7,10,8.9c-2.3,0-5,0.5-6.9-1.2c-2-1.7-3.6-3.9-5.3-5.9c0,2,0,4,0,6
			c0.6,0.2,1.7,0.6,2.3,0.8c-2.5,0.3-5,0.3-7.6,0.3c0.5-0.4,1.5-1.2,2-1.6c-0.1-4.3,0-8.6-0.1-12.9
			C275.5-227.9,274.6-228.1,273.8-228.3z"/>
		<path fill="#FFFFFF" d="M469.7-228.8c2.3,0.4,4.6,0.3,6.9,0.2c-0.8,0.4-1.5,0.8-2.3,1.2c-0.2,4.8,0.1,9.7-0.5,14.4l-0.8,0.1
			c-3.9-3.2-7.4-6.9-11.1-10.4c0,2.9,0,5.8,0.1,8.7c0.5,0.3,1.5,1,2,1.4c-2.2,0.1-4.4,0.1-6.6-0.1c0.5-0.3,1.6-0.8,2.1-1.1
			c0.5-4.9-0.6-10.1,0.9-14.8c4,3.7,7.6,7.7,11.6,11.3C471.5-221.4,474-227,469.7-228.8z"/>
		<path fill="#FFFFFF" d="M500.6-228.4c3.9-0.1,7.7,0.1,11.6-0.2c-0.2,1.2-0.5,2.4-0.7,3.6c-0.9-2.5-3.3-2.1-5.4-2
			c0,1.6,0,3.2,0,4.9c1.9,0.1,3.9,0,5.8-0.3c-0.2,0.9-0.5,2.7-0.7,3.6c-0.6-0.6-1.2-1.2-1.7-1.8c-1.1,0-2.2,0-3.3,0
			c0,1.8-0.1,3.6,0.1,5.4c0.9,1.4,2.8,0.8,4.2,1c0.7-0.9,1.3-1.7,2-2.6c-0.1,1.3-0.2,2.6-0.3,3.9c-3.8,0-7.7,0-11.5-0.2
			c0.5-0.3,1.4-0.8,1.9-1.1c0.5-4.4,0.1-8.8,0.2-13.1C502-227.8,501.3-228.1,500.6-228.4z"/>
	</g>
	<g>
		<g>
			<path fill="#FFFFFF" d="M403.2-229.2c3.5,4.2,4.7,9.9,7.2,14.6c0.7,0.2,2,0.7,2.7,1c-2.1,0.4-4.2,0.5-6.4,0.5
				c-0.3-1.7-0.7-3.3-1.2-4.9c-1.7-0.1-3.4-0.2-5-0.2c-0.6,1.2-1.1,2.4-1.7,3.6c0.5,0.3,1.4,1,1.9,1.3c-2,0.1-4.1,0.2-6.1,0.3
				C399.2-217.3,400-224,403.2-229.2z M403-224c-0.7,1.5-1.4,3-2.1,4.5c1.2,0,2.5,0,3.7,0C404.1-221,403.6-222.5,403-224z"/>
		</g>
	</g>
	<g>
		<path fill="#FFFFFF" d="M532.4-225.1c0.7-4.3,6.1-3.8,9.3-3.3c0,0.9,0,2.7,0,3.6c-1.6-2.3-4.1-4-6.7-1.9c-0.3,3.1,3.1,3.7,5,5.2
			c2.5,1.5,2.8,5.4,0.6,7.2c-2.4,1.9-5.6,1.3-8.4,0.9c0-1.4,0-2.7,0-4.1c1.2,2.5,5.5,4.9,6.9,1.4C539.6-220.5,531.4-220,532.4-225.1
			z"/>
	</g>
	<g>
		<g>
			<path fill="none" stroke="#FFFFFF" stroke-width="2" stroke-miterlimit="10.43" d="M157.4-397.1c1.5-2.8,3.4-5.4,6.1-7.1
				c8,5.2,15.9,10.3,23.9,15.5c1,0.7,2.3,1.3,2.9,2.5c-0.3,3.2-1.1,6.2-1.9,9.3c-5.7-2.6-10.6-6.6-15.9-9.9
				C167.5-390.4,162.1-393.2,157.4-397.1z"/>
		</g>
		<g>
			<path fill="none" stroke="#FFFFFF" stroke-width="2" stroke-miterlimit="10.43" d="M151.2-387c0.8-2.2,2.1-4.1,3.5-6
				c11,6.2,21.2,13.8,32,20.4c-0.4,2.6-1.4,5-2.7,7.2C173.1-372.8,161.9-379.5,151.2-387z"/>
			<path fill="none" stroke="#FFFFFF" stroke-width="2" stroke-miterlimit="10.43" d="M108.9-327.4c10.7-2.2,21.6-3.9,32.4-5.7
				c1.7,4.2,2.9,8.7,3.9,13.2c-10.9,3.3-22.3,4.5-33.4,6.9c-16.5,4.2-33.2,10.2-46,21.9c-8.6,7.6-14.6,17.8-17.5,28.9
				c-2.1,7.2-2.3,14.7-2.9,22.2c-4.8-14.6-4-30.9,2.8-44.7c4.9-10.6,13.3-19.3,22.7-26.1C82.3-318.7,95.4-324.1,108.9-327.4z"/>
			<path fill="none" stroke="#FFFFFF" stroke-width="2" stroke-miterlimit="10.43" d="M84.7-293.5c0.7-3.2,4.2-8.1,7.8-5.4
				c16.3,10.8,32.9,21.2,49.2,32c1.1,0.7,2.3,1.3,3.5,1.9l-0.2,1.1c-0.6,2.7-2,5.1-3.6,7.4c-2.3-2.2-5.1-3.8-7.8-5.5
				C117.3-272.5,101.2-283.3,84.7-293.5z"/>
		</g>
		<g>
			<path fill="none" stroke="#FFFFFF" stroke-width="2" stroke-miterlimit="10.43" d="M188.1-360.9c5.1-8.6,6.6-18.6,9.1-28.2
				c2.2,13.7,0.6,28.6-6.8,40.6c-7.2,12.2-19.9,20.1-32.9,24.9c-1.7-4.1-3-8.4-4-12.6C167.4-340,181.3-347.7,188.1-360.9z"/>
			<path fill="none" stroke="#FFFFFF" stroke-width="2" stroke-miterlimit="10.43" d="M125.7-308.6c3-2.1,6.7-2.1,10.1-2.7
				c4.6,2.6,8.8,5.9,13.5,8.5c0.6,3.4,0.8,6.9,0.9,10.4c-6.2-2.8-11.5-7.2-17.3-10.7C130.6-305,127.4-306,125.7-308.6z"/>
		</g>
		<g>
			<path fill="none" stroke="#FFFFFF" stroke-width="2" stroke-miterlimit="10.43" d="M147.3-373.6c0.2-2.2,0.8-4.3,1.5-6.4
				c1.4,0.5,2.7,1,4,1.8c9.2,6,18.4,12.2,27.8,18c-0.8,2.2-3.1,6.3-5.8,4.1C165.6-361.9,156.7-368.3,147.3-373.6z"/>
			<path fill="none" stroke="#FFFFFF" stroke-width="2" stroke-miterlimit="10.43" d="M56.2-268.1c1-2.4,2-4.8,3.5-6.9
				c1.7,0.3,3.1,1.4,4.6,2.3c16.3,10.7,32.7,21.1,48.9,31.8c3.8,2.3,7.2,5.1,11.3,6.9c-2,2.4-4.2,4.8-6.7,6.8
				c-18.5-12.6-37.5-24.5-56.3-36.7C59.8-265.3,57.4-266.1,56.2-268.1z"/>
		</g>
		<g>
			<path fill="none" stroke="#FFFFFF" stroke-width="2" stroke-miterlimit="10.43" d="M146.9-366.9l0.5-1
				c7.2,4.9,14.5,9.7,21.9,14.4c0.9,0.7,2.1,1.2,2.6,2.4c-2.1,1.9-5.1,4.9-8.1,3.2c-4.8-2.8-9.4-6.1-14.1-9.1
				c-3-1.4-2.1-5.2-2.8-7.9c0-0.2-0.1-0.7-0.1-0.9C146.8-366.2,146.9-366.7,146.9-366.9z"/>
			<path fill="none" stroke="#FFFFFF" stroke-width="2" stroke-miterlimit="10.43" d="M104.1-304.6c3.4-1.3,7.7-3.6,11.1-1
				c11.7,7.4,23.2,15.1,34.8,22.4c-0.1,3-0.6,6-1.7,8.8c-14.9-9.1-29.2-19.2-44.2-28.2C104.2-303.1,104.1-304.1,104.1-304.6z"/>
		</g>
		<g>
			<path fill="none" stroke="#FFFFFF" stroke-width="2" stroke-miterlimit="10.43" d="M73-289.7c16.4,10.3,32.4,21,48.7,31.4
				c4.9,3.2,9.9,6.2,14.6,9.7c0,0.3,0,0.9,0,1.2c-1.7,1.9-3.4,3.8-5,5.7C116-252,100.2-261.8,84.7-272c-5.3-3.1-10.1-7.2-15.7-9.8
				C69.4-284.8,71.6-287.1,73-289.7z"/>
		</g>
		<g>
			<path fill="none" stroke="#FFFFFF" stroke-width="2" stroke-miterlimit="10.43" d="M53.5-259.8c2.2,0.4,4,1.9,5.9,3.1
				c16.4,10.7,32.8,21.3,49.3,31.8c1.2,0.8,2.3,1.8,3.4,2.7c-2,2.2-4.4,3.9-6.9,5.5c-15-9.6-29.8-19.5-44.9-29.1
				c-2.7-1.9-5.7-3.3-8-5.6C52.2-254.3,53-257.1,53.5-259.8z"/>
		</g>
		<g>
			<path fill="none" stroke="#FFFFFF" stroke-width="2" stroke-miterlimit="10.43" d="M164.6-422.9c8.9,0,17.7,1.4,26.5,1.7
				c-1.9,2.8-4.7,4.8-7,7.1c-4.4,3.8-8.2,8.2-12.9,11.7c0.2-2.9,0.6-5.8,0.9-8.6c-3.3,1.6-5.6,4.6-8.6,6.7c-2.7,1.7-4.6,4.4-6.1,7.1
				c-0.8,1.4-1.8,2.7-2.7,4c-1.4,1.9-2.7,3.8-3.5,6c-0.8,2.3-1.6,4.7-2.4,7.1c-0.7,2.1-1.3,4.2-1.5,6.4c-0.1,2.2-0.2,4.5-0.4,6.7
				c0,0.3-0.1,0.8-0.1,1.1c0,0.2,0.1,0.7,0.1,0.9c0.3,9.9,3.9,19.3,6.6,28.8c1,4.3,2.3,8.5,4,12.6c5.3,15.9,7.5,33.5,2.5,49.7
				c-6.9,22.8-23.9,41.8-44.6,53.2c-4.2,2.2-8.1,4.9-12.6,6.3c0.7-0.9,1.4-1.7,2.3-2.3c2.5-1.6,5-3.3,6.9-5.5c1.7-2,3.8-3.5,5.9-5
				c2.5-1.9,4.7-4.3,6.7-6.8c2.1-2.6,4.4-5.1,6.7-7.6c1.7-1.9,3.3-3.8,5-5.7c0-0.3,0-0.9,0-1.2c1.7-2.6,3.3-5.3,5.1-7.9
				c1.6-2.3,3-4.7,3.6-7.4c1.1-3.5,2.2-7,3.4-10.4c1.1-2.8,1.7-5.8,1.7-8.8c0.1-3.1,0.3-6.2,0.2-9.4c-0.1-3.5-0.3-7-0.9-10.4
				c-1.3-5.7-2.9-11.3-4.2-17c-1-4.5-2.2-8.9-3.9-13.2c-4.5-13.1-7.5-27.3-4.4-41c2.5-10.9,8.3-21,16.1-29
				c5.4-5.3,11.9-9.3,18.7-12.6C170.2-418.8,166.6-420.3,164.6-422.9z"/>
		</g>
	</g>
</g>
<g>
	<g>
		<path fill="#FFFFFF" d="M182,108.8c1.2,0.3,2.6,0.4,3.3,1.5c18.2,19.5,37.4,38,55.8,57.4c-0.6-16.1-0.5-32.2-1.2-48.3
			c0-2.9-1.6-6-4.8-6.1c-1.9-0.7-6.5,0.9-5.4-2.5c4.3-0.7,8.7-0.1,13-0.1c5,0.1,10.1-0.6,15.1,0c0,3.5-4.1,1.8-6.2,2.9
			c-2.9,1.6-2.4,5.4-2.7,8.2c0,13-0.5,26-0.6,39c-0.4,9.4,0.1,18.8-0.8,28.1c-2.1,1.6-4.1-1-5.7-2.2c-13.2-13.1-26.4-26.3-39.5-39.5
			c-4.7-4.7-8.9-10.1-14-14.4c0.2,11,0.6,22,0.8,33c0.3,6.2-0.2,12.6,2.1,18.4c2.7,1.4,5.7,1.2,8.6,1.8l0.6,1
			c-1.6,2-4.4,1.1-6.6,1.3c-7.4-0.6-14.8,0.1-22.2-0.1c-0.1-0.5-0.4-1.5-0.6-2.1c2.7-0.7,6-0.1,8.2-2.1c1.8-3.8,1.1-8.1,1.5-12.2
			c0-16,0.5-32,0.7-48.1C181.7,118.9,180.7,113.7,182,108.8z"/>
		<path fill="#FFFFFF" d="M366.7,111.8c0.3-1,0.4-3.2,2.1-2.7c1.5-0.4,2,1.2,2.6,2.2c9.4,18.9,18.4,38,28,56.8
			c9.5-19.1,18.5-38.5,28-57.6c0.6-2.2,3.7-1.7,3.9,0.4c3.6,22.3,6.6,44.6,10.1,66.9c0.5,3.2,1.7,7.1,5.5,7.5
			c2.4,1.1,6.7-0.8,7.3,2.7c-2.7,0.6-5.5,0.7-8.3,0.4c-6.3-0.4-12.6,0.4-18.8-0.9c-0.6-1.4,0.5-2.3,1.4-3.2
			c0.1-3.8-0.8-7.5-1.2-11.2c-1.6-11.7-3.2-23.4-4.8-35.2c-7.7,14.6-14.6,29.8-22,44.6c-1.1,1.9-1.8,4.3-3.5,5.8
			c-1.6,0.6-2.3-1.4-3.1-2.4c-8.3-15.4-15.7-31.3-23.5-47c-1.9,13.1-3.6,26.1-5.3,39.2c-0.1,2.5-1.1,6.8,2.5,7.1
			c1.9,0.9,6.3-0.6,5.9,2.4c-2.7,1.2-5.8,0.5-8.7,0.5c-5.5-0.4-11.1,0.4-16.6,0c-1.6-3.2,2.6-2.2,4.4-2.7c2.6-0.4,3.2-3.5,3.7-5.6
			C359.8,157.2,363.1,134.5,366.7,111.8z"/>
		<g>
			<path fill="#FFFFFF" d="M495.5,109.5c1.7-1.2,3.4,0.1,3.8,1.8c9.1,21.4,17.4,43.1,26.5,64.5c1.3,2.9,2.8,5.8,5.1,7.9
				c2.4,2.2,6,1.8,9,2.2c-0.1,0.4-0.4,1.4-0.6,1.8c-4.7,1-9.6,0.4-14.5,0.4c-4.3-0.3-8.6,0.3-12.9-0.6c-0.7-1.8,1.4-1.9,2.5-2.6
				c-2.5-7.7-5.8-15-8.5-22.6c-7.9-0.3-15.8-0.1-23.6-0.1c-1.9,4.9-3.8,9.8-5.8,14.7c-1,2.7-2.2,5.7-0.6,8.4
				c1.9,0.5,7.3-0.9,5.9,2.5c-5,0.7-10.1-0.2-15.2,0.1c-3.9-0.2-8,1-11.8-0.4c0-0.4,0.1-1.1,0.1-1.5c2.6-0.8,5.7-0.3,8.1-1.9
				c2.5-2,3.8-5.1,5-8c7.7-19.2,15.5-38.4,23.3-57.6C492.7,115.6,493.8,112.4,495.5,109.5z M490.9,139.9c-2,5.5-4.2,11-6.1,16.6
				c6.3-0.1,12.5,0,18.8-0.1c-3-8.3-6-16.6-9.1-24.9C492.7,134.1,492,137.1,490.9,139.9z"/>
		</g>
		<path fill="#FFFFFF" d="M266,111.1c3.4-1.2,7.2-0.2,10.8-0.4c5.7,0.3,11.4-0.6,17.1,0.1c1.3,2.7-3.4,1.8-3.5,4
			c0.4,1.7,1.2,3.2,2,4.7c5.2,9.4,10.5,18.6,15.9,27.9c4.8-7.7,8.9-15.8,13.4-23.7c1.4-3,3.7-6.1,2.8-9.6c-1.3-1.2-4.4-0.9-3.6-3.3
			c6.7-0.6,13.4,0.3,20.1-0.3c1.6,0.1,5.1-0.7,4.7,2c-2.8,0.8-6,0.9-8.3,2.8c-4.6,4-7.4,9.4-10.6,14.5c-4.1,6.9-8.4,13.7-12,20.9
			c-2.8,5.3-1.5,11.5-1.8,17.2c0.3,5.6-0.9,11.4,1.4,16.7c3.1,1,6.3,1.2,9.6,1.3c-0.1,0.6-0.2,1.8-0.3,2.4c-8.9,0.2-17.8-0.5-26.7,0
			c-2.2-0.2-5.5,0.9-6.7-1.4c2.2-2.2,7.2,0,8.2-3.9c1.3-6.2,0.8-12.7,0.9-19.1c0.1-4.7-0.4-9.5-2.8-13.6c-3.9-6.8-8-13.4-12.1-20
			c-3.4-5.1-6.1-10.9-10.9-14.9c-2-1.8-4.8-2-7.3-2.8C266,112.2,266,111.5,266,111.1z"/>
	</g>
	<g>
		<path fill="#FFFFFF" d="M156.1,200.7c2.2,0,4.5-0.1,6.8,0.4c-0.5,0.1-1.5,0.4-2.1,0.5c0.1,5.8-0.7,11.7-0.4,17.5
			c-1-0.2-1.8-0.6-2.5-1.3c-3.8-3.7-7.5-7.5-11.5-11c0,3.6-0.2,7.3,0.5,11c0.6,0.3,1.8,0.8,2.4,1.1c-2.6,0.2-5.2,0.1-7.7-0.1
			c0.9-0.4,1.8-0.8,2.6-1.2c0-5.8,0.2-11.6,0.4-17.4c5,4,8.8,9.1,13.8,13.1c-0.2-3.8,0.6-7.8-0.5-11.6c-0.4-0.1-1.3-0.4-1.8-0.5
			C156.1,201,156.1,200.8,156.1,200.7z"/>
		<path fill="#FFFFFF" d="M227.2,200.7c2.1,0,4.3,0,6.4,0c-3.6,1.5-5.1,5.3-6.9,8.4c-1.6,2.6-0.8,5.8-0.8,8.7
			c0.7,0.2,2.2,0.5,2.9,0.6c-3.1,0.6-6.2,0.6-9.2,0.1c4-0.1,2.5-4.9,2.3-7.5c-1.9-3.7-3.8-7.6-7.2-10.2c1.8-0.1,3.6-0.2,5.4-0.3
			c1.1,2.9,2.7,5.7,4.3,8.3c1.2-2.1,2.4-4.3,3.6-6.4C227.8,201.9,227.5,201.3,227.2,200.7z"/>
		<g>
			<path fill="#FFFFFF" d="M446.1,199.9c3.4,5.5,4.7,12.1,8,17.6c0.7,0.3,2.1,0.8,2.8,1.1c-2.3,0.2-4.6,0.3-6.8,0.3
				c-0.5-2.1-1.2-4.1-2.1-6.1c-1.7,0-3.4,0.1-5.1,0.1c-0.6,1.5-1.3,2.9-1.9,4.4c0.5,0.3,1.5,1,1.9,1.4c-2.5,0.2-5,0.1-7.5-0.3
				c0.7-0.2,2.2-0.6,2.9-0.8C441.2,211.8,443.1,205.6,446.1,199.9z M445.4,206c-0.6,1.9-1.2,3.7-1.7,5.6c1.3,0,2.6-0.1,3.9-0.1
				C446.9,209.6,446.2,207.8,445.4,206z"/>
		</g>
		<path fill="#FFFFFF" d="M166.8,203.5c3.7,0,7.4,0.2,11-0.3c-0.2,1.2-0.4,2.5-0.5,3.7c-0.4-0.7-0.9-1.4-1.3-2c-1.4,0-2.7,0-4.1-0.1
			c0,1.7,0,3.3,0,5c1.8-0.1,3.7-0.2,5.5-0.4c-0.2,1.4-0.3,2.8-0.5,4.2c-0.5-0.8-1-1.6-1.4-2.4c-1.2-0.1-2.4-0.1-3.6-0.1c0,2,0,4,0,6
			c2.4,0.7,5,0.4,6.2-2.1c-0.1,1.2-0.1,2.5-0.2,3.8c-3.8,0.1-7.7,0.1-11.5-0.1c0.6-0.3,1.7-1,2.2-1.4c-0.2-4.3-0.1-8.6-0.1-12.9
			C168.1,204.2,167.2,203.8,166.8,203.5z"/>
		<path fill="#FFFFFF" d="M180.7,203.5c1.8,0,3.6,0,5.4-0.1c-0.1,3.6,1.5,7,2.7,10.3c1.4-3.6,2.7-7.2,4.2-10.7
			c2.8,3,3.5,7.2,5.3,10.7c0.9-3,1.9-6,2.8-9c-0.3-0.3-1-1-1.3-1.3c1.9,0.1,3.8,0.1,5.7,0c-0.7,0.4-1.4,0.8-2,1.2
			c-1.7,4.7-3.3,9.5-5,14.2c-0.3,0-1,0.1-1.4,0.1c-1.6-3-2.5-6.8-4.4-9.5c-1.8,2.8-2.5,6.5-4.2,9.5c-0.4,0-1-0.1-1.4-0.2
			c-1.7-4.6-3.3-9.3-4.9-14C181.9,204.4,181.1,203.8,180.7,203.5z"/>
		<g>
			<path fill="#FFFFFF" d="M255.6,203.6c4.2,0.1,8.6-0.8,12.4,1.2c0.8,2.6-0.3,5-2.4,6.7c1.9,2.8,4.1,5.8,7.3,7.2
				c-1.6,0.1-3.4,0.6-4.9-0.1c-3-1.3-3.6-5.6-6.9-6.4c0.1,2.5-1.1,6.6,2.8,6.5c-2.8,0.3-5.6,0.4-8.4,0c0.5-0.2,1.6-0.7,2.1-0.9
				c0-4.4,0-8.8,0-13.2C257,204.2,256.3,203.9,255.6,203.6z M261.1,204.8c0,2.2,0,4.4,0.1,6.6c3.7,0.5,4.9-3.6,3.1-6.1
				C263.5,205.2,261.9,204.9,261.1,204.8z"/>
		</g>
		<path fill="#FFFFFF" d="M328.9,203.4c3.9,0.2,7.8,0.2,11.7-0.1c-0.3,1.2-0.5,2.4-0.8,3.6c-0.4-2.6-3.1-1.8-5-2.1
			c0,1.7,0,3.4-0.1,5.2c1.8-0.1,3.6-0.2,5.5-0.4c-0.1,1-0.3,2.9-0.4,3.9c-0.9-2.1-2.9-2.5-4.9-2.4c-0.1,2.1-0.1,4.3,0.2,6.4
			c2.4,0.3,4.8,0.2,5.8-2.3c0,0.9,0,2.7,0,3.6c-3.7,0.2-7.4,0-11.1,0.1c0.4-0.5,1.2-1.4,1.6-1.9c0.2-4.2,0-8.4,0-12.5
			C330.6,204.2,329.7,203.8,328.9,203.4z"/>
		<g>
			<path fill="#FFFFFF" d="M344.6,203.4c5.1,0.6,10.7-1.1,15.3,1.7c4.4,3,3.5,10.4-1.1,12.8c-4.4,2.2-9.4,0.8-14.1,0.9
				c0.5-0.3,1.5-0.8,1.9-1c0.4-4.4,0.2-8.9,0.1-13.3C346.1,204.1,345.1,203.7,344.6,203.4z M350.1,204.9c0.1,4.2-0.2,8.5,0.3,12.7
				c2.5,0,5.6,0.5,7.4-1.7c2.1-2.9,1.8-7.7-1.4-9.8C354.7,204.6,352.3,205,350.1,204.9z"/>
		</g>
		<path fill="#FFFFFF" d="M366.6,203.6c2.4,0,4.8,0,7.3,0c-0.7,0.3-1.3,0.7-2,1c0.1,4.3-0.2,8.6,0.2,12.9c0.5,0.3,1.4,1,1.8,1.4
			c-2.4,0-4.9,0-7.3,0.1c0.5-0.4,1.5-1.3,2-1.7c0.1-4.2,0-8.5,0-12.8C368.1,204.2,367.1,203.8,366.6,203.6z"/>
		<path fill="#FFFFFF" d="M382.8,203.9c3.3-1,7-0.8,10.3,0.1c0,1.5,0.1,3.1,0.2,4.6c-1-1-1.6-2.2-2.3-3.4c-2.6-0.9-5.9-1.4-8,0.8
			c-3.2,4-0.8,11.1,4.6,11.6c2.5,0.7,4.1-1.5,5.7-3c-0.2,0.9-0.7,2.9-1,3.8c-3.6,1-7.8,0.8-11.1-1.1
			C376.4,214.4,377.4,205.8,382.8,203.9z"/>
		<path fill="#FFFFFF" d="M482.8,205c3.6-2.6,8.4-1.8,12.5-1.1c-0.1,1.4-0.1,2.7-0.2,4.1c-0.9-0.6-1.6-1.6-2.1-2.5
			c-3-1.6-8.2-1.5-9.2,2.5c-2.1,5.1,2.8,11.1,8.3,9.8c0-1.8,0-3.6,0.1-5.4c-0.9-0.4-1.8-0.8-2.6-1.2c2.5-0.2,4.9-0.3,7.4-0.3
			c-0.4,0.4-1.3,1.3-1.7,1.7c0,1.9,0,3.8,0,5.7c-3.9,1.1-8.4,1.4-12.1-0.7C478.9,215,478.6,207.9,482.8,205z"/>
		<path fill="#FFFFFF" d="M515.9,203.5c2.6,0.1,5.3,0.2,7.9-0.2c-0.9,0.7-2.4,1.2-2,2.6c-0.1,3.9-0.1,7.8,0.2,11.7
			c2.6,0.4,5,0,6.3-2.5c-0.1,1.3-0.2,2.6-0.4,3.9c-3.8,0-7.5,0-11.2,0c0.4-0.4,1.2-1.4,1.6-1.8c0.2-4.2,0-8.4,0-12.6
			C517.5,204.2,516.7,203.8,515.9,203.5z"/>
	</g>
	<g>
		<path fill="#FFFFFF" d="M306,200.1c3.7,3.6,4.9,9.2,7.6,13.6c2.5-4.6,4.2-9.6,7.3-13.8c1.7,5.8,1.8,11.9,3.1,17.8
			c1.2,0.2,2.4,0.4,3.6,0.7c-2.4,0.4-4.9,0.6-7.4,0.4c0-3.7-0.8-7.3-1.2-10.9c-2.1,3.6-3.9,7.4-5.7,11.2c-3.3-2.7-4-7.3-6.3-10.6
			c-0.7,3-1.1,6.1-1.3,9.2c0.6,0.3,1.8,0.8,2.4,1c-2.1,0.1-4.2,0.2-6.3,0.2c0.4-0.4,1.1-1.4,1.5-1.8
			C304.4,211.5,305,205.8,306,200.1z"/>
		<path fill="#FFFFFF" d="M414.7,203.5c2.4,0,4.8,0,7.2,0c-0.5,0.2-1.5,0.7-2,0.9c0,4.3-0.2,8.7,0.2,13c2.6,0.6,5-0.1,6.7-2.2
			c-0.3,1.2-0.5,2.5-0.8,3.7c-3.9-0.1-7.7,0.1-11.6-0.2c0.5-0.3,1.6-0.9,2.1-1.1c0-4.3,0-8.7,0-13
			C416,204.2,415.3,203.9,414.7,203.5z"/>
	</g>
	<g>
		<g>
			<path fill="#FFFFFF" d="M240.2,203.6c3.7-0.7,8.2-0.6,10.7,2.6c2.7,4,1.2,10.4-3.5,12.1c-3.9,1.4-9.1,1.1-11.6-2.6
				C232.6,211.6,235,204.7,240.2,203.6z M240.1,205.3c-4.2,3.4-2.2,12.2,3.6,12.4c4.2,0.4,5.6-4.8,4.8-8
				C248,206.1,243.4,202.9,240.1,205.3z"/>
		</g>
	</g>
	<g>
		<path fill="#FFFFFF" d="M273.8,203.7c2.6-0.1,5.3-0.1,7.9-0.4c-2.7,1.1-1.8,4.2-1.6,6.5c1.5-2.1,4.1-3.6,4.5-6.2
			c1.7,0,3.5,0,5.2,0c-3.1,1.5-5.6,3.9-7.8,6.5c2.9,3.4,5.9,7,10,8.9c-2.3,0-5,0.5-6.9-1.2c-2-1.7-3.6-3.9-5.3-5.9c0,2,0,4,0,6
			c0.6,0.2,1.7,0.6,2.3,0.8c-2.5,0.3-5,0.3-7.6,0.3c0.5-0.4,1.5-1.2,2-1.6c-0.1-4.3,0-8.6-0.1-12.9
			C275.5,204.1,274.6,203.9,273.8,203.7z"/>
		<path fill="#FFFFFF" d="M469.7,203.2c2.3,0.4,4.6,0.3,6.9,0.2c-0.8,0.4-1.5,0.8-2.3,1.2c-0.2,4.8,0.1,9.7-0.5,14.4l-0.8,0.1
			c-3.9-3.2-7.4-6.9-11.1-10.4c0,2.9,0,5.8,0.1,8.7c0.5,0.3,1.5,1,2,1.4c-2.2,0.1-4.4,0.1-6.6-0.1c0.5-0.3,1.6-0.8,2.1-1.1
			c0.5-4.9-0.6-10.1,0.9-14.8c4,3.7,7.6,7.7,11.6,11.3C471.5,210.6,474,205,469.7,203.2z"/>
		<path fill="#FFFFFF" d="M500.6,203.6c3.9-0.1,7.7,0.1,11.6-0.2c-0.2,1.2-0.5,2.4-0.7,3.6c-0.9-2.5-3.3-2.1-5.4-2
			c0,1.6,0,3.2,0,4.9c1.9,0.1,3.9,0,5.8-0.3c-0.2,0.9-0.5,2.7-0.7,3.6c-0.6-0.6-1.2-1.2-1.7-1.8c-1.1,0-2.2,0-3.3,0
			c0,1.8-0.1,3.6,0.1,5.4c0.9,1.4,2.8,0.8,4.2,1c0.7-0.9,1.3-1.7,2-2.6c-0.1,1.3-0.2,2.6-0.3,3.9c-3.8,0-7.7,0-11.5-0.2
			c0.5-0.3,1.4-0.8,1.9-1.1c0.5-4.4,0.1-8.8,0.2-13.1C502,204.2,501.3,203.9,500.6,203.6z"/>
	</g>
	<g>
		<g>
			<path fill="#FFFFFF" d="M403.2,202.8c3.5,4.2,4.7,9.9,7.2,14.6c0.7,0.2,2,0.7,2.7,1c-2.1,0.4-4.2,0.5-6.4,0.5
				c-0.3-1.7-0.7-3.3-1.2-4.9c-1.7-0.1-3.4-0.2-5-0.2c-0.6,1.2-1.1,2.4-1.7,3.6c0.5,0.3,1.4,1,1.9,1.3c-2,0.1-4.1,0.2-6.1,0.3
				C399.2,214.7,400,208,403.2,202.8z M403,208c-0.7,1.5-1.4,3-2.1,4.5c1.2,0,2.5,0,3.7,0C404.1,211,403.6,209.5,403,208z"/>
		</g>
	</g>
	<g>
		<path fill="#FFFFFF" d="M532.4,206.9c0.7-4.3,6.1-3.8,9.3-3.3c0,0.9,0,2.7,0,3.6c-1.6-2.3-4.1-4-6.7-1.9c-0.3,3.1,3.1,3.7,5,5.2
			c2.5,1.5,2.8,5.4,0.6,7.2c-2.4,1.9-5.6,1.3-8.4,0.9c0-1.4,0-2.7,0-4.1c1.2,2.5,5.5,4.9,6.9,1.4C539.6,211.5,531.4,212,532.4,206.9
			z"/>
	</g>
	<g>
		<g>
			<path fill="none" stroke="#FFFFFF" stroke-width="2" stroke-miterlimit="10.43" d="M157.4,34.9c1.5-2.8,3.4-5.4,6.1-7.2
				c8,5.2,15.9,10.3,23.9,15.5c1,0.7,2.3,1.3,2.9,2.5c-0.3,3.2-1.1,6.2-1.9,9.3c-5.7-2.6-10.6-6.6-15.9-9.9
				C167.5,41.6,162.1,38.8,157.4,34.9z"/>
		</g>
		<g>
			<path fill="none" stroke="#FFFFFF" stroke-width="2" stroke-miterlimit="10.43" d="M151.2,45c0.8-2.2,2.1-4.1,3.5-6
				c11,6.2,21.2,13.8,32,20.4c-0.4,2.6-1.4,5-2.7,7.2C173.1,59.2,161.9,52.5,151.2,45z"/>
			<path fill="none" stroke="#FFFFFF" stroke-width="2" stroke-miterlimit="10.43" d="M108.9,104.6c10.7-2.2,21.6-3.9,32.4-5.7
				c1.7,4.2,2.9,8.7,3.9,13.2c-10.9,3.3-22.3,4.5-33.4,6.9c-16.5,4.2-33.2,10.2-46,21.9c-8.6,7.6-14.6,17.8-17.5,28.9
				c-2.1,7.2-2.3,14.7-2.9,22.2c-4.8-14.6-4-30.9,2.8-44.7c4.9-10.6,13.3-19.3,22.7-26.1C82.3,113.3,95.4,107.9,108.9,104.6z"/>
			<path fill="none" stroke="#FFFFFF" stroke-width="2" stroke-miterlimit="10.43" d="M84.7,138.5c0.7-3.2,4.2-8.1,7.8-5.4
				c16.3,10.8,32.9,21.2,49.2,32c1.1,0.7,2.3,1.3,3.5,1.9l-0.2,1.1c-0.6,2.7-2,5.1-3.6,7.4c-2.3-2.2-5.1-3.8-7.8-5.5
				C117.3,159.5,101.2,148.7,84.7,138.5z"/>
		</g>
		<g>
			<path fill="none" stroke="#FFFFFF" stroke-width="2" stroke-miterlimit="10.43" d="M188.1,71.1c5.1-8.6,6.6-18.6,9.1-28.2
				c2.2,13.7,0.6,28.6-6.8,40.6c-7.2,12.2-19.9,20.1-32.9,24.9c-1.7-4.1-3-8.3-4-12.7C167.4,92,181.3,84.3,188.1,71.1z"/>
			<path fill="none" stroke="#FFFFFF" stroke-width="2" stroke-miterlimit="10.43" d="M125.7,123.4c3-2.2,6.7-2.1,10.1-2.7
				c4.6,2.7,8.8,5.9,13.5,8.4c0.6,3.4,0.8,6.9,0.9,10.4c-6.2-2.8-11.5-7.2-17.3-10.7C130.6,127,127.4,126,125.7,123.4z"/>
		</g>
		<g>
			<path fill="none" stroke="#FFFFFF" stroke-width="2" stroke-miterlimit="10.43" d="M147.3,58.4c0.2-2.2,0.8-4.3,1.5-6.4
				c1.4,0.5,2.7,1,4,1.8c9.2,6,18.4,12.2,27.8,18c-0.8,2.2-3.1,6.3-5.8,4.1C165.6,70.1,156.7,63.7,147.3,58.4z"/>
			<path fill="none" stroke="#FFFFFF" stroke-width="2" stroke-miterlimit="10.43" d="M56.2,163.9c1-2.4,2-4.8,3.5-6.9
				c1.7,0.3,3.1,1.4,4.6,2.3c16.3,10.7,32.7,21.1,48.9,31.8c3.8,2.3,7.2,5.1,11.3,6.9c-2,2.4-4.2,4.8-6.7,6.8
				c-18.5-12.6-37.5-24.5-56.3-36.7C59.8,166.7,57.4,165.9,56.2,163.9z"/>
		</g>
		<g>
			<path fill="none" stroke="#FFFFFF" stroke-width="2" stroke-miterlimit="10.43" d="M146.9,65.1l0.5-1c7.2,4.9,14.5,9.7,21.9,14.3
				c0.9,0.7,2.1,1.2,2.6,2.4c-2.1,1.9-5.1,4.9-8.1,3.2c-4.8-2.8-9.4-6.1-14.1-9.1c-3-1.4-2.1-5.2-2.8-7.9c0-0.2-0.1-0.7-0.1-0.9
				C146.8,65.8,146.9,65.3,146.9,65.1z"/>
			<path fill="none" stroke="#FFFFFF" stroke-width="2" stroke-miterlimit="10.43" d="M104.1,127.4c3.4-1.3,7.7-3.6,11.1-1
				c11.7,7.4,23.2,15.1,34.8,22.4c-0.1,3-0.6,6-1.7,8.8c-14.9-9-29.2-19.2-44.2-28.2C104.2,128.9,104.1,127.9,104.1,127.4z"/>
		</g>
		<g>
			<path fill="none" stroke="#FFFFFF" stroke-width="2" stroke-miterlimit="10.43" d="M73,142.3c16.4,10.3,32.4,21,48.7,31.4
				c4.9,3.2,9.9,6.2,14.6,9.7c0,0.3,0,0.9,0,1.2c-1.7,1.9-3.4,3.8-5,5.7C116,180,100.2,170.2,84.7,160c-5.3-3.1-10.1-7.2-15.7-9.8
				C69.4,147.2,71.6,144.9,73,142.3z"/>
		</g>
		<g>
			<path fill="none" stroke="#FFFFFF" stroke-width="2" stroke-miterlimit="10.43" d="M53.5,172.2c2.2,0.4,4,1.9,5.9,3.1
				c16.4,10.7,32.8,21.3,49.3,31.8c1.2,0.8,2.3,1.8,3.4,2.7c-2,2.2-4.4,3.9-6.9,5.5c-15-9.6-29.8-19.5-44.9-29.1
				c-2.7-1.9-5.7-3.3-8-5.6C52.2,177.7,53,174.9,53.5,172.2z"/>
		</g>
		<g>
			<path fill="none" stroke="#FFFFFF" stroke-width="2" stroke-miterlimit="10.43" d="M164.6,9.1c8.9,0,17.7,1.4,26.5,1.7
				c-1.9,2.8-4.7,4.8-7,7.1c-4.4,3.8-8.2,8.2-12.9,11.7c0.2-2.9,0.6-5.8,0.9-8.6c-3.3,1.6-5.6,4.6-8.6,6.7c-2.7,1.7-4.6,4.4-6.1,7.2
				c-0.8,1.4-1.8,2.7-2.7,4c-1.4,1.9-2.7,3.8-3.5,6c-0.8,2.3-1.6,4.7-2.4,7.1c-0.7,2.1-1.3,4.2-1.5,6.4c-0.1,2.2-0.2,4.5-0.4,6.7
				c0,0.3-0.1,0.8-0.1,1c0,0.2,0.1,0.7,0.1,0.9c0.3,9.9,3.9,19.3,6.6,28.8c1,4.3,2.3,8.6,4,12.7c5.3,15.9,7.5,33.4,2.5,49.7
				c-6.9,22.8-23.9,41.8-44.6,53.2c-4.2,2.2-8.1,4.9-12.6,6.3c0.7-0.9,1.4-1.7,2.3-2.3c2.5-1.6,5-3.3,6.9-5.5c1.7-2,3.8-3.5,5.9-5
				c2.5-1.9,4.7-4.3,6.7-6.8c2.1-2.6,4.4-5.1,6.7-7.6c1.7-1.9,3.3-3.8,5-5.7c0-0.3,0-0.9,0-1.2c1.7-2.6,3.3-5.3,5.1-7.9
				c1.6-2.3,3-4.7,3.6-7.4c1.1-3.5,2.2-7,3.4-10.5c1.1-2.8,1.7-5.8,1.7-8.8c0.1-3.1,0.3-6.2,0.2-9.4c-0.1-3.5-0.3-7-0.9-10.4
				c-1.3-5.7-2.9-11.3-4.2-17c-1-4.5-2.2-8.9-3.9-13.2c-4.5-13.1-7.5-27.3-4.4-41c2.5-10.9,8.3-21,16.1-29
				c5.4-5.3,11.9-9.3,18.7-12.6C170.2,13.2,166.6,11.7,164.6,9.1z"/>
		</g>
	</g>
</g>
</svg>
